<?xml version="1.0" encoding="utf-8" standalone="no"?>
<!DOCTYPE svg PUBLIC "-//W3C//DTD SVG 1.1//EN"
  "http://www.w3.org/Graphics/SVG/1.1/DTD/svg11.dtd">
<svg xmlns:xlink="http://www.w3.org/1999/xlink" width="460.896122pt" height="387.72pt" viewBox="0 0 460.896122 387.72" xmlns="http://www.w3.org/2000/svg" version="1.1">
 <metadata>
  <rdf:RDF xmlns:dc="http://purl.org/dc/elements/1.1/" xmlns:cc="http://creativecommons.org/ns#" xmlns:rdf="http://www.w3.org/1999/02/22-rdf-syntax-ns#">
   <cc:Work>
    <dc:type rdf:resource="http://purl.org/dc/dcmitype/StillImage"/>
    <dc:date>2022-09-20T09:45:23.561153</dc:date>
    <dc:format>image/svg+xml</dc:format>
    <dc:creator>
     <cc:Agent>
      <dc:title>Matplotlib v3.5.2, https://matplotlib.org/</dc:title>
     </cc:Agent>
    </dc:creator>
   </cc:Work>
  </rdf:RDF>
 </metadata>
 <defs>
  <style type="text/css">*{stroke-linejoin: round; stroke-linecap: butt}</style>
 </defs>
 <g id="figure_1">
  <g id="patch_1">
   <path d="M 0 387.72 
L 460.896122 387.72 
L 460.896122 0 
L 0 0 
z
" style="fill: #ffffff"/>
  </g>
  <g id="axes_1">
   <g id="patch_2">
    <path d="M 101.557344 296.307692 
L 436.357344 296.307692 
L 436.357344 3.6 
L 101.557344 3.6 
z
" style="fill: #ffffff"/>
   </g>
   <g id="matplotlib.axis_1"/>
   <g id="matplotlib.axis_2">
    <g id="ytick_1">
     <g id="line2d_1">
      <defs>
       <path id="m34a634e2fc" d="M 0 0 
L -5 0 
" style="stroke: #000000; stroke-width: 1.875"/>
      </defs>
      <g>
       <use xlink:href="#m34a634e2fc" x="101.557344" y="286.598715" style="stroke: #000000; stroke-width: 1.875"/>
      </g>
     </g>
     <g id="text_1">
      <!-- 0.00 -->
      <g transform="translate(60.946797 292.50391)scale(0.165 -0.165)">
       <defs>
        <path id="ArialMT-30" d="M 266 2259 
Q 266 3072 433 3567 
Q 600 4063 929 4331 
Q 1259 4600 1759 4600 
Q 2128 4600 2406 4451 
Q 2684 4303 2865 4023 
Q 3047 3744 3150 3342 
Q 3253 2941 3253 2259 
Q 3253 1453 3087 958 
Q 2922 463 2592 192 
Q 2263 -78 1759 -78 
Q 1097 -78 719 397 
Q 266 969 266 2259 
z
M 844 2259 
Q 844 1131 1108 757 
Q 1372 384 1759 384 
Q 2147 384 2411 759 
Q 2675 1134 2675 2259 
Q 2675 3391 2411 3762 
Q 2147 4134 1753 4134 
Q 1366 4134 1134 3806 
Q 844 3388 844 2259 
z
" transform="scale(0.015625)"/>
        <path id="ArialMT-2e" d="M 581 0 
L 581 641 
L 1222 641 
L 1222 0 
L 581 0 
z
" transform="scale(0.015625)"/>
       </defs>
       <use xlink:href="#ArialMT-30"/>
       <use xlink:href="#ArialMT-2e" x="55.615234"/>
       <use xlink:href="#ArialMT-30" x="83.398438"/>
       <use xlink:href="#ArialMT-30" x="139.013672"/>
      </g>
     </g>
    </g>
    <g id="ytick_2">
     <g id="line2d_2">
      <g>
       <use xlink:href="#m34a634e2fc" x="101.557344" y="209.735976" style="stroke: #000000; stroke-width: 1.875"/>
      </g>
     </g>
     <g id="text_2">
      <!-- 0.25 -->
      <g transform="translate(60.946797 215.641171)scale(0.165 -0.165)">
       <defs>
        <path id="ArialMT-32" d="M 3222 541 
L 3222 0 
L 194 0 
Q 188 203 259 391 
Q 375 700 629 1000 
Q 884 1300 1366 1694 
Q 2113 2306 2375 2664 
Q 2638 3022 2638 3341 
Q 2638 3675 2398 3904 
Q 2159 4134 1775 4134 
Q 1369 4134 1125 3890 
Q 881 3647 878 3216 
L 300 3275 
Q 359 3922 746 4261 
Q 1134 4600 1788 4600 
Q 2447 4600 2831 4234 
Q 3216 3869 3216 3328 
Q 3216 3053 3103 2787 
Q 2991 2522 2730 2228 
Q 2469 1934 1863 1422 
Q 1356 997 1212 845 
Q 1069 694 975 541 
L 3222 541 
z
" transform="scale(0.015625)"/>
        <path id="ArialMT-35" d="M 266 1200 
L 856 1250 
Q 922 819 1161 601 
Q 1400 384 1738 384 
Q 2144 384 2425 690 
Q 2706 997 2706 1503 
Q 2706 1984 2436 2262 
Q 2166 2541 1728 2541 
Q 1456 2541 1237 2417 
Q 1019 2294 894 2097 
L 366 2166 
L 809 4519 
L 3088 4519 
L 3088 3981 
L 1259 3981 
L 1013 2750 
Q 1425 3038 1878 3038 
Q 2478 3038 2890 2622 
Q 3303 2206 3303 1553 
Q 3303 931 2941 478 
Q 2500 -78 1738 -78 
Q 1113 -78 717 272 
Q 322 622 266 1200 
z
" transform="scale(0.015625)"/>
       </defs>
       <use xlink:href="#ArialMT-30"/>
       <use xlink:href="#ArialMT-2e" x="55.615234"/>
       <use xlink:href="#ArialMT-32" x="83.398438"/>
       <use xlink:href="#ArialMT-35" x="139.013672"/>
      </g>
     </g>
    </g>
    <g id="ytick_3">
     <g id="line2d_3">
      <g>
       <use xlink:href="#m34a634e2fc" x="101.557344" y="132.873238" style="stroke: #000000; stroke-width: 1.875"/>
      </g>
     </g>
     <g id="text_3">
      <!-- 0.50 -->
      <g transform="translate(60.946797 138.778433)scale(0.165 -0.165)">
       <use xlink:href="#ArialMT-30"/>
       <use xlink:href="#ArialMT-2e" x="55.615234"/>
       <use xlink:href="#ArialMT-35" x="83.398438"/>
       <use xlink:href="#ArialMT-30" x="139.013672"/>
      </g>
     </g>
    </g>
    <g id="ytick_4">
     <g id="line2d_4">
      <g>
       <use xlink:href="#m34a634e2fc" x="101.557344" y="56.010499" style="stroke: #000000; stroke-width: 1.875"/>
      </g>
     </g>
     <g id="text_4">
      <!-- 0.75 -->
      <g transform="translate(60.946797 61.915694)scale(0.165 -0.165)">
       <defs>
        <path id="ArialMT-37" d="M 303 3981 
L 303 4522 
L 3269 4522 
L 3269 4084 
Q 2831 3619 2401 2847 
Q 1972 2075 1738 1259 
Q 1569 684 1522 0 
L 944 0 
Q 953 541 1156 1306 
Q 1359 2072 1739 2783 
Q 2119 3494 2547 3981 
L 303 3981 
z
" transform="scale(0.015625)"/>
       </defs>
       <use xlink:href="#ArialMT-30"/>
       <use xlink:href="#ArialMT-2e" x="55.615234"/>
       <use xlink:href="#ArialMT-37" x="83.398438"/>
       <use xlink:href="#ArialMT-35" x="139.013672"/>
      </g>
     </g>
    </g>
    <g id="text_5">
     <!-- Matching accuracy -->
     <g transform="translate(53.158359 224.981502)rotate(-90)scale(0.18 -0.18)">
      <defs>
       <path id="ArialMT-4d" d="M 475 0 
L 475 4581 
L 1388 4581 
L 2472 1338 
Q 2622 884 2691 659 
Q 2769 909 2934 1394 
L 4031 4581 
L 4847 4581 
L 4847 0 
L 4263 0 
L 4263 3834 
L 2931 0 
L 2384 0 
L 1059 3900 
L 1059 0 
L 475 0 
z
" transform="scale(0.015625)"/>
       <path id="ArialMT-61" d="M 2588 409 
Q 2275 144 1986 34 
Q 1697 -75 1366 -75 
Q 819 -75 525 192 
Q 231 459 231 875 
Q 231 1119 342 1320 
Q 453 1522 633 1644 
Q 813 1766 1038 1828 
Q 1203 1872 1538 1913 
Q 2219 1994 2541 2106 
Q 2544 2222 2544 2253 
Q 2544 2597 2384 2738 
Q 2169 2928 1744 2928 
Q 1347 2928 1158 2789 
Q 969 2650 878 2297 
L 328 2372 
Q 403 2725 575 2942 
Q 747 3159 1072 3276 
Q 1397 3394 1825 3394 
Q 2250 3394 2515 3294 
Q 2781 3194 2906 3042 
Q 3031 2891 3081 2659 
Q 3109 2516 3109 2141 
L 3109 1391 
Q 3109 606 3145 398 
Q 3181 191 3288 0 
L 2700 0 
Q 2613 175 2588 409 
z
M 2541 1666 
Q 2234 1541 1622 1453 
Q 1275 1403 1131 1340 
Q 988 1278 909 1158 
Q 831 1038 831 891 
Q 831 666 1001 516 
Q 1172 366 1500 366 
Q 1825 366 2078 508 
Q 2331 650 2450 897 
Q 2541 1088 2541 1459 
L 2541 1666 
z
" transform="scale(0.015625)"/>
       <path id="ArialMT-74" d="M 1650 503 
L 1731 6 
Q 1494 -44 1306 -44 
Q 1000 -44 831 53 
Q 663 150 594 308 
Q 525 466 525 972 
L 525 2881 
L 113 2881 
L 113 3319 
L 525 3319 
L 525 4141 
L 1084 4478 
L 1084 3319 
L 1650 3319 
L 1650 2881 
L 1084 2881 
L 1084 941 
Q 1084 700 1114 631 
Q 1144 563 1211 522 
Q 1278 481 1403 481 
Q 1497 481 1650 503 
z
" transform="scale(0.015625)"/>
       <path id="ArialMT-63" d="M 2588 1216 
L 3141 1144 
Q 3050 572 2676 248 
Q 2303 -75 1759 -75 
Q 1078 -75 664 370 
Q 250 816 250 1647 
Q 250 2184 428 2587 
Q 606 2991 970 3192 
Q 1334 3394 1763 3394 
Q 2303 3394 2647 3120 
Q 2991 2847 3088 2344 
L 2541 2259 
Q 2463 2594 2264 2762 
Q 2066 2931 1784 2931 
Q 1359 2931 1093 2626 
Q 828 2322 828 1663 
Q 828 994 1084 691 
Q 1341 388 1753 388 
Q 2084 388 2306 591 
Q 2528 794 2588 1216 
z
" transform="scale(0.015625)"/>
       <path id="ArialMT-68" d="M 422 0 
L 422 4581 
L 984 4581 
L 984 2938 
Q 1378 3394 1978 3394 
Q 2347 3394 2619 3248 
Q 2891 3103 3008 2847 
Q 3125 2591 3125 2103 
L 3125 0 
L 2563 0 
L 2563 2103 
Q 2563 2525 2380 2717 
Q 2197 2909 1863 2909 
Q 1613 2909 1392 2779 
Q 1172 2650 1078 2428 
Q 984 2206 984 1816 
L 984 0 
L 422 0 
z
" transform="scale(0.015625)"/>
       <path id="ArialMT-69" d="M 425 3934 
L 425 4581 
L 988 4581 
L 988 3934 
L 425 3934 
z
M 425 0 
L 425 3319 
L 988 3319 
L 988 0 
L 425 0 
z
" transform="scale(0.015625)"/>
       <path id="ArialMT-6e" d="M 422 0 
L 422 3319 
L 928 3319 
L 928 2847 
Q 1294 3394 1984 3394 
Q 2284 3394 2536 3286 
Q 2788 3178 2913 3003 
Q 3038 2828 3088 2588 
Q 3119 2431 3119 2041 
L 3119 0 
L 2556 0 
L 2556 2019 
Q 2556 2363 2490 2533 
Q 2425 2703 2258 2804 
Q 2091 2906 1866 2906 
Q 1506 2906 1245 2678 
Q 984 2450 984 1813 
L 984 0 
L 422 0 
z
" transform="scale(0.015625)"/>
       <path id="ArialMT-67" d="M 319 -275 
L 866 -356 
Q 900 -609 1056 -725 
Q 1266 -881 1628 -881 
Q 2019 -881 2231 -725 
Q 2444 -569 2519 -288 
Q 2563 -116 2559 434 
Q 2191 0 1641 0 
Q 956 0 581 494 
Q 206 988 206 1678 
Q 206 2153 378 2554 
Q 550 2956 876 3175 
Q 1203 3394 1644 3394 
Q 2231 3394 2613 2919 
L 2613 3319 
L 3131 3319 
L 3131 450 
Q 3131 -325 2973 -648 
Q 2816 -972 2473 -1159 
Q 2131 -1347 1631 -1347 
Q 1038 -1347 672 -1080 
Q 306 -813 319 -275 
z
M 784 1719 
Q 784 1066 1043 766 
Q 1303 466 1694 466 
Q 2081 466 2343 764 
Q 2606 1063 2606 1700 
Q 2606 2309 2336 2618 
Q 2066 2928 1684 2928 
Q 1309 2928 1046 2623 
Q 784 2319 784 1719 
z
" transform="scale(0.015625)"/>
       <path id="ArialMT-20" transform="scale(0.015625)"/>
       <path id="ArialMT-75" d="M 2597 0 
L 2597 488 
Q 2209 -75 1544 -75 
Q 1250 -75 995 37 
Q 741 150 617 320 
Q 494 491 444 738 
Q 409 903 409 1263 
L 409 3319 
L 972 3319 
L 972 1478 
Q 972 1038 1006 884 
Q 1059 663 1231 536 
Q 1403 409 1656 409 
Q 1909 409 2131 539 
Q 2353 669 2445 892 
Q 2538 1116 2538 1541 
L 2538 3319 
L 3100 3319 
L 3100 0 
L 2597 0 
z
" transform="scale(0.015625)"/>
       <path id="ArialMT-72" d="M 416 0 
L 416 3319 
L 922 3319 
L 922 2816 
Q 1116 3169 1280 3281 
Q 1444 3394 1641 3394 
Q 1925 3394 2219 3213 
L 2025 2691 
Q 1819 2813 1613 2813 
Q 1428 2813 1281 2702 
Q 1134 2591 1072 2394 
Q 978 2094 978 1738 
L 978 0 
L 416 0 
z
" transform="scale(0.015625)"/>
       <path id="ArialMT-79" d="M 397 -1278 
L 334 -750 
Q 519 -800 656 -800 
Q 844 -800 956 -737 
Q 1069 -675 1141 -563 
Q 1194 -478 1313 -144 
Q 1328 -97 1363 -6 
L 103 3319 
L 709 3319 
L 1400 1397 
Q 1534 1031 1641 628 
Q 1738 1016 1872 1384 
L 2581 3319 
L 3144 3319 
L 1881 -56 
Q 1678 -603 1566 -809 
Q 1416 -1088 1222 -1217 
Q 1028 -1347 759 -1347 
Q 597 -1347 397 -1278 
z
" transform="scale(0.015625)"/>
      </defs>
      <use xlink:href="#ArialMT-4d"/>
      <use xlink:href="#ArialMT-61" x="83.300781"/>
      <use xlink:href="#ArialMT-74" x="138.916016"/>
      <use xlink:href="#ArialMT-63" x="166.699219"/>
      <use xlink:href="#ArialMT-68" x="216.699219"/>
      <use xlink:href="#ArialMT-69" x="272.314453"/>
      <use xlink:href="#ArialMT-6e" x="294.53125"/>
      <use xlink:href="#ArialMT-67" x="350.146484"/>
      <use xlink:href="#ArialMT-20" x="405.761719"/>
      <use xlink:href="#ArialMT-61" x="433.544922"/>
      <use xlink:href="#ArialMT-63" x="489.160156"/>
      <use xlink:href="#ArialMT-63" x="539.160156"/>
      <use xlink:href="#ArialMT-75" x="589.160156"/>
      <use xlink:href="#ArialMT-72" x="644.775391"/>
      <use xlink:href="#ArialMT-61" x="678.076172"/>
      <use xlink:href="#ArialMT-63" x="733.691406"/>
      <use xlink:href="#ArialMT-79" x="783.691406"/>
     </g>
    </g>
   </g>
   <g id="PathCollection_1"/>
   <g id="PathCollection_2"/>
   <g id="line2d_5">
    <path d="M 116.775526 271.495861 
L 139.32098 271.495861 
" clip-path="url(#p57bdadf59d)" style="fill: none; stroke: #000000; stroke-width: 2.25; stroke-linecap: round"/>
   </g>
   <g id="line2d_6">
    <path d="M 173.139162 233.199338 
L 195.684616 233.199338 
" clip-path="url(#p57bdadf59d)" style="fill: none; stroke: #000000; stroke-width: 2.25; stroke-linecap: round"/>
   </g>
   <g id="line2d_7">
    <path d="M 229.502798 152.111397 
L 252.048253 152.111397 
" clip-path="url(#p57bdadf59d)" style="fill: none; stroke: #000000; stroke-width: 2.25; stroke-linecap: round"/>
   </g>
   <g id="line2d_8">
    <path d="M 285.866435 85.766717 
L 308.411889 85.766717 
" clip-path="url(#p57bdadf59d)" style="fill: none; stroke: #000000; stroke-width: 2.25; stroke-linecap: round"/>
   </g>
   <g id="line2d_9">
    <path d="M 342.230071 57.71856 
L 364.775526 57.71856 
" clip-path="url(#p57bdadf59d)" style="fill: none; stroke: #000000; stroke-width: 2.25; stroke-linecap: round"/>
   </g>
   <g id="line2d_10">
    <path d="M 398.593707 35.244075 
L 421.139162 35.244075 
" clip-path="url(#p57bdadf59d)" style="fill: none; stroke: #000000; stroke-width: 2.25; stroke-linecap: round"/>
   </g>
   <g id="patch_3">
    <path d="M 101.557344 296.307692 
L 101.557344 3.6 
" style="fill: none; stroke: #000000; stroke-width: 1.875; stroke-linejoin: miter; stroke-linecap: square"/>
   </g>
   <g id="patch_4">
    <path d="M 101.557344 296.307692 
L 436.357344 296.307692 
" style="fill: none; stroke: #000000; stroke-width: 1.875; stroke-linejoin: miter; stroke-linecap: square"/>
   </g>
   <g id="PathCollection_3">
    <defs>
     <path id="C0_0_4441f4434d" d="M 0 2.5 
C 0.663008 2.5 1.29895 2.236584 1.767767 1.767767 
C 2.236584 1.29895 2.5 0.663008 2.5 -0 
C 2.5 -0.663008 2.236584 -1.29895 1.767767 -1.767767 
C 1.29895 -2.236584 0.663008 -2.5 0 -2.5 
C -0.663008 -2.5 -1.29895 -2.236584 -1.767767 -1.767767 
C -2.236584 -1.29895 -2.5 -0.663008 -2.5 0 
C -2.5 0.663008 -2.236584 1.29895 -1.767767 1.767767 
C -1.29895 2.236584 -0.663008 2.5 0 2.5 
z
"/>
    </defs>
    <g clip-path="url(#p57bdadf59d)">
     <use xlink:href="#C0_0_4441f4434d" x="138.602662" y="270.417086" style="fill: #0173b2"/>
    </g>
    <g clip-path="url(#p57bdadf59d)">
     <use xlink:href="#C0_0_4441f4434d" x="118.324132" y="270.417086" style="fill: #0173b2"/>
    </g>
    <g clip-path="url(#p57bdadf59d)">
     <use xlink:href="#C0_0_4441f4434d" x="137.293151" y="272.215044" style="fill: #0173b2"/>
    </g>
    <g clip-path="url(#p57bdadf59d)">
     <use xlink:href="#C0_0_4441f4434d" x="119.772695" y="270.417086" style="fill: #0173b2"/>
    </g>
    <g clip-path="url(#p57bdadf59d)">
     <use xlink:href="#C0_0_4441f4434d" x="126.046882" y="283.002797" style="fill: #0173b2"/>
    </g>
    <g clip-path="url(#p57bdadf59d)">
     <use xlink:href="#C0_0_4441f4434d" x="124.171148" y="265.023209" style="fill: #0173b2"/>
    </g>
    <g clip-path="url(#p57bdadf59d)">
     <use xlink:href="#C0_0_4441f4434d" x="124.47377" y="272.215044" style="fill: #0173b2"/>
    </g>
    <g clip-path="url(#p57bdadf59d)">
     <use xlink:href="#C0_0_4441f4434d" x="123.621731" y="268.619127" style="fill: #0173b2"/>
    </g>
    <g clip-path="url(#p57bdadf59d)">
     <use xlink:href="#C0_0_4441f4434d" x="117.91947" y="266.821168" style="fill: #0173b2"/>
    </g>
    <g clip-path="url(#p57bdadf59d)">
     <use xlink:href="#C0_0_4441f4434d" x="125.987192" y="275.810962" style="fill: #0173b2"/>
    </g>
   </g>
   <g id="PathCollection_4">
    <defs>
     <path id="C1_0_f0bdfd253a" d="M 0 2.5 
C 0.663008 2.5 1.29895 2.236584 1.767767 1.767767 
C 2.236584 1.29895 2.5 0.663008 2.5 -0 
C 2.5 -0.663008 2.236584 -1.29895 1.767767 -1.767767 
C 1.29895 -2.236584 0.663008 -2.5 0 -2.5 
C -0.663008 -2.5 -1.29895 -2.236584 -1.767767 -1.767767 
C -2.236584 -1.29895 -2.5 -0.663008 -2.5 0 
C -2.5 0.663008 -2.236584 1.29895 -1.767767 1.767767 
C -1.29895 2.236584 -0.663008 2.5 0 2.5 
z
"/>
    </defs>
    <g clip-path="url(#p57bdadf59d)">
     <use xlink:href="#C1_0_f0bdfd253a" x="181.82214" y="230.861992" style="fill: #de8f05"/>
    </g>
    <g clip-path="url(#p57bdadf59d)">
     <use xlink:href="#C1_0_f0bdfd253a" x="192.725213" y="232.659951" style="fill: #de8f05"/>
    </g>
    <g clip-path="url(#p57bdadf59d)">
     <use xlink:href="#C1_0_f0bdfd253a" x="180.105153" y="227.266074" style="fill: #de8f05"/>
    </g>
    <g clip-path="url(#p57bdadf59d)">
     <use xlink:href="#C1_0_f0bdfd253a" x="176.463248" y="229.064033" style="fill: #de8f05"/>
    </g>
    <g clip-path="url(#p57bdadf59d)">
     <use xlink:href="#C1_0_f0bdfd253a" x="181.315602" y="232.659951" style="fill: #de8f05"/>
    </g>
    <g clip-path="url(#p57bdadf59d)">
     <use xlink:href="#C1_0_f0bdfd253a" x="187.235012" y="243.447704" style="fill: #de8f05"/>
    </g>
    <g clip-path="url(#p57bdadf59d)">
     <use xlink:href="#C1_0_f0bdfd253a" x="181.398877" y="239.851786" style="fill: #de8f05"/>
    </g>
    <g clip-path="url(#p57bdadf59d)">
     <use xlink:href="#C1_0_f0bdfd253a" x="187.778479" y="230.861992" style="fill: #de8f05"/>
    </g>
    <g clip-path="url(#p57bdadf59d)">
     <use xlink:href="#C1_0_f0bdfd253a" x="184.124747" y="245.245662" style="fill: #de8f05"/>
    </g>
    <g clip-path="url(#p57bdadf59d)">
     <use xlink:href="#C1_0_f0bdfd253a" x="183.726577" y="220.074239" style="fill: #de8f05"/>
    </g>
   </g>
   <g id="PathCollection_5">
    <defs>
     <path id="C2_0_d766ea0098" d="M 0 2.5 
C 0.663008 2.5 1.29895 2.236584 1.767767 1.767767 
C 2.236584 1.29895 2.5 0.663008 2.5 -0 
C 2.5 -0.663008 2.236584 -1.29895 1.767767 -1.767767 
C 1.29895 -2.236584 0.663008 -2.5 0 -2.5 
C -0.663008 -2.5 -1.29895 -2.236584 -1.767767 -1.767767 
C -2.236584 -1.29895 -2.5 -0.663008 -2.5 0 
C -2.5 0.663008 -2.236584 1.29895 -1.767767 1.767767 
C -1.29895 2.236584 -0.663008 2.5 0 2.5 
z
"/>
    </defs>
    <g clip-path="url(#p57bdadf59d)">
     <use xlink:href="#C2_0_d766ea0098" x="247.105044" y="158.94364" style="fill: #0173b2"/>
    </g>
    <g clip-path="url(#p57bdadf59d)">
     <use xlink:href="#C2_0_d766ea0098" x="237.652334" y="146.357929" style="fill: #0173b2"/>
    </g>
    <g clip-path="url(#p57bdadf59d)">
     <use xlink:href="#C2_0_d766ea0098" x="233.824918" y="144.55997" style="fill: #0173b2"/>
    </g>
    <g clip-path="url(#p57bdadf59d)">
     <use xlink:href="#C2_0_d766ea0098" x="235.601163" y="146.357929" style="fill: #0173b2"/>
    </g>
    <g clip-path="url(#p57bdadf59d)">
     <use xlink:href="#C2_0_d766ea0098" x="236.740407" y="162.539558" style="fill: #0173b2"/>
    </g>
    <g clip-path="url(#p57bdadf59d)">
     <use xlink:href="#C2_0_d766ea0098" x="229.598426" y="144.55997" style="fill: #0173b2"/>
    </g>
    <g clip-path="url(#p57bdadf59d)">
     <use xlink:href="#C2_0_d766ea0098" x="251.471294" y="155.347723" style="fill: #0173b2"/>
    </g>
    <g clip-path="url(#p57bdadf59d)">
     <use xlink:href="#C2_0_d766ea0098" x="247.810242" y="162.539558" style="fill: #0173b2"/>
    </g>
    <g clip-path="url(#p57bdadf59d)">
     <use xlink:href="#C2_0_d766ea0098" x="251.663961" y="149.953846" style="fill: #0173b2"/>
    </g>
    <g clip-path="url(#p57bdadf59d)">
     <use xlink:href="#C2_0_d766ea0098" x="244.84158" y="149.953846" style="fill: #0173b2"/>
    </g>
   </g>
   <g id="PathCollection_6">
    <defs>
     <path id="C3_0_e4722dfce6" d="M 0 2.5 
C 0.663008 2.5 1.29895 2.236584 1.767767 1.767767 
C 2.236584 1.29895 2.5 0.663008 2.5 -0 
C 2.5 -0.663008 2.236584 -1.29895 1.767767 -1.767767 
C 1.29895 -2.236584 0.663008 -2.5 0 -2.5 
C -0.663008 -2.5 -1.29895 -2.236584 -1.767767 -1.767767 
C -2.236584 -1.29895 -2.5 -0.663008 -2.5 0 
C -2.5 0.663008 -2.236584 1.29895 -1.767767 1.767767 
C -1.29895 2.236584 -0.663008 2.5 0 2.5 
z
"/>
    </defs>
    <g clip-path="url(#p57bdadf59d)">
     <use xlink:href="#C3_0_e4722dfce6" x="287.878137" y="87.025288" style="fill: #de8f05"/>
    </g>
    <g clip-path="url(#p57bdadf59d)">
     <use xlink:href="#C3_0_e4722dfce6" x="303.101538" y="88.823247" style="fill: #de8f05"/>
    </g>
    <g clip-path="url(#p57bdadf59d)">
     <use xlink:href="#C3_0_e4722dfce6" x="303.586886" y="88.823247" style="fill: #de8f05"/>
    </g>
    <g clip-path="url(#p57bdadf59d)">
     <use xlink:href="#C3_0_e4722dfce6" x="288.31409" y="83.429371" style="fill: #de8f05"/>
    </g>
    <g clip-path="url(#p57bdadf59d)">
     <use xlink:href="#C3_0_e4722dfce6" x="290.03" y="87.025288" style="fill: #de8f05"/>
    </g>
    <g clip-path="url(#p57bdadf59d)">
     <use xlink:href="#C3_0_e4722dfce6" x="305.095452" y="81.631412" style="fill: #de8f05"/>
    </g>
    <g clip-path="url(#p57bdadf59d)">
     <use xlink:href="#C3_0_e4722dfce6" x="302.454354" y="83.429371" style="fill: #de8f05"/>
    </g>
    <g clip-path="url(#p57bdadf59d)">
     <use xlink:href="#C3_0_e4722dfce6" x="292.037396" y="85.227329" style="fill: #de8f05"/>
    </g>
    <g clip-path="url(#p57bdadf59d)">
     <use xlink:href="#C3_0_e4722dfce6" x="305.150526" y="83.429371" style="fill: #de8f05"/>
    </g>
    <g clip-path="url(#p57bdadf59d)">
     <use xlink:href="#C3_0_e4722dfce6" x="295.999322" y="88.823247" style="fill: #de8f05"/>
    </g>
   </g>
   <g id="PathCollection_7">
    <defs>
     <path id="C4_0_8e4be10a75" d="M 0 2.5 
C 0.663008 2.5 1.29895 2.236584 1.767767 1.767767 
C 2.236584 1.29895 2.5 0.663008 2.5 -0 
C 2.5 -0.663008 2.236584 -1.29895 1.767767 -1.767767 
C 1.29895 -2.236584 0.663008 -2.5 0 -2.5 
C -0.663008 -2.5 -1.29895 -2.236584 -1.767767 -1.767767 
C -2.236584 -1.29895 -2.5 -0.663008 -2.5 0 
C -2.5 0.663008 -2.236584 1.29895 -1.767767 1.767767 
C -1.29895 2.236584 -0.663008 2.5 0 2.5 
z
"/>
    </defs>
    <g clip-path="url(#p57bdadf59d)">
     <use xlink:href="#C4_0_8e4be10a75" x="362.723134" y="60.055906" style="fill: #0173b2"/>
    </g>
    <g clip-path="url(#p57bdadf59d)">
     <use xlink:href="#C4_0_8e4be10a75" x="349.972317" y="56.459989" style="fill: #0173b2"/>
    </g>
    <g clip-path="url(#p57bdadf59d)">
     <use xlink:href="#C4_0_8e4be10a75" x="352.188209" y="67.247741" style="fill: #0173b2"/>
    </g>
    <g clip-path="url(#p57bdadf59d)">
     <use xlink:href="#C4_0_8e4be10a75" x="358.067213" y="63.651824" style="fill: #0173b2"/>
    </g>
    <g clip-path="url(#p57bdadf59d)">
     <use xlink:href="#C4_0_8e4be10a75" x="350.946591" y="58.257947" style="fill: #0173b2"/>
    </g>
    <g clip-path="url(#p57bdadf59d)">
     <use xlink:href="#C4_0_8e4be10a75" x="350.952473" y="51.066112" style="fill: #0173b2"/>
    </g>
    <g clip-path="url(#p57bdadf59d)">
     <use xlink:href="#C4_0_8e4be10a75" x="343.495868" y="58.257947" style="fill: #0173b2"/>
    </g>
    <g clip-path="url(#p57bdadf59d)">
     <use xlink:href="#C4_0_8e4be10a75" x="350.801684" y="31.288565" style="fill: #0173b2"/>
    </g>
    <g clip-path="url(#p57bdadf59d)">
     <use xlink:href="#C4_0_8e4be10a75" x="350.339731" y="72.641618" style="fill: #0173b2"/>
    </g>
    <g clip-path="url(#p57bdadf59d)">
     <use xlink:href="#C4_0_8e4be10a75" x="352.755175" y="58.257947" style="fill: #0173b2"/>
    </g>
   </g>
   <g id="PathCollection_8">
    <defs>
     <path id="C5_0_0149366e37" d="M 0 2.5 
C 0.663008 2.5 1.29895 2.236584 1.767767 1.767767 
C 2.236584 1.29895 2.5 0.663008 2.5 -0 
C 2.5 -0.663008 2.236584 -1.29895 1.767767 -1.767767 
C 1.29895 -2.236584 0.663008 -2.5 0 -2.5 
C -0.663008 -2.5 -1.29895 -2.236584 -1.767767 -1.767767 
C -2.236584 -1.29895 -2.5 -0.663008 -2.5 0 
C -2.5 0.663008 -2.236584 1.29895 -1.767767 1.767767 
C -1.29895 2.236584 -0.663008 2.5 0 2.5 
z
"/>
    </defs>
    <g clip-path="url(#p57bdadf59d)">
     <use xlink:href="#C5_0_0149366e37" x="399.16394" y="24.09673" style="fill: #de8f05"/>
    </g>
    <g clip-path="url(#p57bdadf59d)">
     <use xlink:href="#C5_0_0149366e37" x="402.847747" y="33.086524" style="fill: #de8f05"/>
    </g>
    <g clip-path="url(#p57bdadf59d)">
     <use xlink:href="#C5_0_0149366e37" x="413.639543" y="34.884483" style="fill: #de8f05"/>
    </g>
    <g clip-path="url(#p57bdadf59d)">
     <use xlink:href="#C5_0_0149366e37" x="416.921653" y="27.692648" style="fill: #de8f05"/>
    </g>
    <g clip-path="url(#p57bdadf59d)">
     <use xlink:href="#C5_0_0149366e37" x="411.988043" y="58.257947" style="fill: #de8f05"/>
    </g>
    <g clip-path="url(#p57bdadf59d)">
     <use xlink:href="#C5_0_0149366e37" x="407.445763" y="45.672236" style="fill: #de8f05"/>
    </g>
    <g clip-path="url(#p57bdadf59d)">
     <use xlink:href="#C5_0_0149366e37" x="399.931997" y="31.288565" style="fill: #de8f05"/>
    </g>
    <g clip-path="url(#p57bdadf59d)">
     <use xlink:href="#C5_0_0149366e37" x="402.906915" y="31.288565" style="fill: #de8f05"/>
    </g>
    <g clip-path="url(#p57bdadf59d)">
     <use xlink:href="#C5_0_0149366e37" x="408.084755" y="16.904895" style="fill: #de8f05"/>
    </g>
    <g clip-path="url(#p57bdadf59d)">
     <use xlink:href="#C5_0_0149366e37" x="416.724247" y="49.268153" style="fill: #de8f05"/>
    </g>
   </g>
   <g id="text_6">
    <!-- 0.05 -->
    <g transform="translate(140.448253 276.149142)scale(0.18 -0.18)">
     <use xlink:href="#ArialMT-30"/>
     <use xlink:href="#ArialMT-2e" x="55.615234"/>
     <use xlink:href="#ArialMT-30" x="83.398438"/>
     <use xlink:href="#ArialMT-35" x="139.013672"/>
    </g>
   </g>
   <g id="text_7">
    <!-- 0.17 -->
    <g transform="translate(196.811889 237.85262)scale(0.18 -0.18)">
     <defs>
      <path id="ArialMT-31" d="M 2384 0 
L 1822 0 
L 1822 3584 
Q 1619 3391 1289 3197 
Q 959 3003 697 2906 
L 697 3450 
Q 1169 3672 1522 3987 
Q 1875 4303 2022 4600 
L 2384 4600 
L 2384 0 
z
" transform="scale(0.015625)"/>
     </defs>
     <use xlink:href="#ArialMT-30"/>
     <use xlink:href="#ArialMT-2e" x="55.615234"/>
     <use xlink:href="#ArialMT-31" x="83.398438"/>
     <use xlink:href="#ArialMT-37" x="139.013672"/>
    </g>
   </g>
   <g id="text_8">
    <!-- 0.44 -->
    <g transform="translate(253.175526 156.764678)scale(0.18 -0.18)">
     <defs>
      <path id="ArialMT-34" d="M 2069 0 
L 2069 1097 
L 81 1097 
L 81 1613 
L 2172 4581 
L 2631 4581 
L 2631 1613 
L 3250 1613 
L 3250 1097 
L 2631 1097 
L 2631 0 
L 2069 0 
z
M 2069 1613 
L 2069 3678 
L 634 1613 
L 2069 1613 
z
" transform="scale(0.015625)"/>
     </defs>
     <use xlink:href="#ArialMT-30"/>
     <use xlink:href="#ArialMT-2e" x="55.615234"/>
     <use xlink:href="#ArialMT-34" x="83.398438"/>
     <use xlink:href="#ArialMT-34" x="139.013672"/>
    </g>
   </g>
   <g id="text_9">
    <!-- 0.65 -->
    <g transform="translate(309.539162 90.419998)scale(0.18 -0.18)">
     <defs>
      <path id="ArialMT-36" d="M 3184 3459 
L 2625 3416 
Q 2550 3747 2413 3897 
Q 2184 4138 1850 4138 
Q 1581 4138 1378 3988 
Q 1113 3794 959 3422 
Q 806 3050 800 2363 
Q 1003 2672 1297 2822 
Q 1591 2972 1913 2972 
Q 2475 2972 2870 2558 
Q 3266 2144 3266 1488 
Q 3266 1056 3080 686 
Q 2894 316 2569 119 
Q 2244 -78 1831 -78 
Q 1128 -78 684 439 
Q 241 956 241 2144 
Q 241 3472 731 4075 
Q 1159 4600 1884 4600 
Q 2425 4600 2770 4297 
Q 3116 3994 3184 3459 
z
M 888 1484 
Q 888 1194 1011 928 
Q 1134 663 1356 523 
Q 1578 384 1822 384 
Q 2178 384 2434 671 
Q 2691 959 2691 1453 
Q 2691 1928 2437 2201 
Q 2184 2475 1800 2475 
Q 1419 2475 1153 2201 
Q 888 1928 888 1484 
z
" transform="scale(0.015625)"/>
     </defs>
     <use xlink:href="#ArialMT-30"/>
     <use xlink:href="#ArialMT-2e" x="55.615234"/>
     <use xlink:href="#ArialMT-36" x="83.398438"/>
     <use xlink:href="#ArialMT-35" x="139.013672"/>
    </g>
   </g>
   <g id="text_10">
    <!-- 0.74 -->
    <g transform="translate(365.902798 62.371841)scale(0.18 -0.18)">
     <use xlink:href="#ArialMT-30"/>
     <use xlink:href="#ArialMT-2e" x="55.615234"/>
     <use xlink:href="#ArialMT-37" x="83.398438"/>
     <use xlink:href="#ArialMT-34" x="139.013672"/>
    </g>
   </g>
   <g id="text_11">
    <!-- 0.82 -->
    <g transform="translate(422.266435 39.897356)scale(0.18 -0.18)">
     <defs>
      <path id="ArialMT-38" d="M 1131 2484 
Q 781 2613 612 2850 
Q 444 3088 444 3419 
Q 444 3919 803 4259 
Q 1163 4600 1759 4600 
Q 2359 4600 2725 4251 
Q 3091 3903 3091 3403 
Q 3091 3084 2923 2848 
Q 2756 2613 2416 2484 
Q 2838 2347 3058 2040 
Q 3278 1734 3278 1309 
Q 3278 722 2862 322 
Q 2447 -78 1769 -78 
Q 1091 -78 675 323 
Q 259 725 259 1325 
Q 259 1772 486 2073 
Q 713 2375 1131 2484 
z
M 1019 3438 
Q 1019 3113 1228 2906 
Q 1438 2700 1772 2700 
Q 2097 2700 2305 2904 
Q 2513 3109 2513 3406 
Q 2513 3716 2298 3927 
Q 2084 4138 1766 4138 
Q 1444 4138 1231 3931 
Q 1019 3725 1019 3438 
z
M 838 1322 
Q 838 1081 952 856 
Q 1066 631 1291 507 
Q 1516 384 1775 384 
Q 2178 384 2440 643 
Q 2703 903 2703 1303 
Q 2703 1709 2433 1975 
Q 2163 2241 1756 2241 
Q 1359 2241 1098 1978 
Q 838 1716 838 1322 
z
" transform="scale(0.015625)"/>
     </defs>
     <use xlink:href="#ArialMT-30"/>
     <use xlink:href="#ArialMT-2e" x="55.615234"/>
     <use xlink:href="#ArialMT-38" x="83.398438"/>
     <use xlink:href="#ArialMT-32" x="139.013672"/>
    </g>
   </g>
   <g id="legend_1">
    <g id="patch_5">
     <path d="M 113.107344 88.191094 
L 203.49125 88.191094 
Q 206.79125 88.191094 206.79125 84.891094 
L 206.79125 15.15 
Q 206.79125 11.85 203.49125 11.85 
L 113.107344 11.85 
Q 109.807344 11.85 109.807344 15.15 
L 109.807344 84.891094 
Q 109.807344 88.191094 113.107344 88.191094 
z
" style="fill: #ffffff; opacity: 0.8; stroke: #cccccc; stroke-width: 1.5; stroke-linejoin: miter"/>
    </g>
    <g id="text_12">
     <!-- Method -->
     <g transform="translate(128.282891 31.334062)scale(0.18 -0.18)">
      <defs>
       <path id="ArialMT-65" d="M 2694 1069 
L 3275 997 
Q 3138 488 2766 206 
Q 2394 -75 1816 -75 
Q 1088 -75 661 373 
Q 234 822 234 1631 
Q 234 2469 665 2931 
Q 1097 3394 1784 3394 
Q 2450 3394 2872 2941 
Q 3294 2488 3294 1666 
Q 3294 1616 3291 1516 
L 816 1516 
Q 847 969 1125 678 
Q 1403 388 1819 388 
Q 2128 388 2347 550 
Q 2566 713 2694 1069 
z
M 847 1978 
L 2700 1978 
Q 2663 2397 2488 2606 
Q 2219 2931 1791 2931 
Q 1403 2931 1139 2672 
Q 875 2413 847 1978 
z
" transform="scale(0.015625)"/>
       <path id="ArialMT-6f" d="M 213 1659 
Q 213 2581 725 3025 
Q 1153 3394 1769 3394 
Q 2453 3394 2887 2945 
Q 3322 2497 3322 1706 
Q 3322 1066 3130 698 
Q 2938 331 2570 128 
Q 2203 -75 1769 -75 
Q 1072 -75 642 372 
Q 213 819 213 1659 
z
M 791 1659 
Q 791 1022 1069 705 
Q 1347 388 1769 388 
Q 2188 388 2466 706 
Q 2744 1025 2744 1678 
Q 2744 2294 2464 2611 
Q 2184 2928 1769 2928 
Q 1347 2928 1069 2612 
Q 791 2297 791 1659 
z
" transform="scale(0.015625)"/>
       <path id="ArialMT-64" d="M 2575 0 
L 2575 419 
Q 2259 -75 1647 -75 
Q 1250 -75 917 144 
Q 584 363 401 755 
Q 219 1147 219 1656 
Q 219 2153 384 2558 
Q 550 2963 881 3178 
Q 1213 3394 1622 3394 
Q 1922 3394 2156 3267 
Q 2391 3141 2538 2938 
L 2538 4581 
L 3097 4581 
L 3097 0 
L 2575 0 
z
M 797 1656 
Q 797 1019 1065 703 
Q 1334 388 1700 388 
Q 2069 388 2326 689 
Q 2584 991 2584 1609 
Q 2584 2291 2321 2609 
Q 2059 2928 1675 2928 
Q 1300 2928 1048 2622 
Q 797 2316 797 1656 
z
" transform="scale(0.015625)"/>
      </defs>
      <use xlink:href="#ArialMT-4d"/>
      <use xlink:href="#ArialMT-65" x="83.300781"/>
      <use xlink:href="#ArialMT-74" x="138.916016"/>
      <use xlink:href="#ArialMT-68" x="166.699219"/>
      <use xlink:href="#ArialMT-6f" x="222.314453"/>
      <use xlink:href="#ArialMT-64" x="277.929688"/>
     </g>
    </g>
    <g id="PathCollection_9">
     <defs>
      <path id="m3bbf12d84b" d="M 0 3.872983 
C 1.027127 3.872983 2.012324 3.464901 2.738613 2.738613 
C 3.464901 2.012324 3.872983 1.027127 3.872983 0 
C 3.872983 -1.027127 3.464901 -2.012324 2.738613 -2.738613 
C 2.012324 -3.464901 1.027127 -3.872983 0 -3.872983 
C -1.027127 -3.872983 -2.012324 -3.464901 -2.738613 -2.738613 
C -3.464901 -2.012324 -3.872983 -1.027127 -3.872983 0 
C -3.872983 1.027127 -3.464901 2.012324 -2.738613 2.738613 
C -2.012324 3.464901 -1.027127 3.872983 0 3.872983 
z
" style="stroke: #0173b2; stroke-width: 1.5"/>
     </defs>
     <g>
      <use xlink:href="#m3bbf12d84b" x="132.907344" y="50.640703" style="fill: #0173b2; stroke: #0173b2; stroke-width: 1.5"/>
     </g>
    </g>
    <g id="text_13">
     <!-- GM -->
     <g transform="translate(162.607344 54.971953)scale(0.165 -0.165)">
      <defs>
       <path id="ArialMT-47" d="M 2638 1797 
L 2638 2334 
L 4578 2338 
L 4578 638 
Q 4131 281 3656 101 
Q 3181 -78 2681 -78 
Q 2006 -78 1454 211 
Q 903 500 622 1047 
Q 341 1594 341 2269 
Q 341 2938 620 3517 
Q 900 4097 1425 4378 
Q 1950 4659 2634 4659 
Q 3131 4659 3532 4498 
Q 3934 4338 4162 4050 
Q 4391 3763 4509 3300 
L 3963 3150 
Q 3859 3500 3706 3700 
Q 3553 3900 3268 4020 
Q 2984 4141 2638 4141 
Q 2222 4141 1919 4014 
Q 1616 3888 1430 3681 
Q 1244 3475 1141 3228 
Q 966 2803 966 2306 
Q 966 1694 1177 1281 
Q 1388 869 1791 669 
Q 2194 469 2647 469 
Q 3041 469 3416 620 
Q 3791 772 3984 944 
L 3984 1797 
L 2638 1797 
z
" transform="scale(0.015625)"/>
      </defs>
      <use xlink:href="#ArialMT-47"/>
      <use xlink:href="#ArialMT-4d" x="77.783203"/>
     </g>
    </g>
    <g id="PathCollection_10">
     <defs>
      <path id="me6be1aa954" d="M 0 3.872983 
C 1.027127 3.872983 2.012324 3.464901 2.738613 2.738613 
C 3.464901 2.012324 3.872983 1.027127 3.872983 0 
C 3.872983 -1.027127 3.464901 -2.012324 2.738613 -2.738613 
C 2.012324 -3.464901 1.027127 -3.872983 0 -3.872983 
C -1.027127 -3.872983 -2.012324 -3.464901 -2.738613 -2.738613 
C -3.464901 -2.012324 -3.872983 -1.027127 -3.872983 0 
C -3.872983 1.027127 -3.464901 2.012324 -2.738613 2.738613 
C -2.012324 3.464901 -1.027127 3.872983 0 3.872983 
z
" style="stroke: #de8f05; stroke-width: 1.5"/>
     </defs>
     <g>
      <use xlink:href="#me6be1aa954" x="132.907344" y="73.980469" style="fill: #de8f05; stroke: #de8f05; stroke-width: 1.5"/>
     </g>
    </g>
    <g id="text_14">
     <!-- BGM -->
     <g transform="translate(162.607344 78.311719)scale(0.165 -0.165)">
      <defs>
       <path id="ArialMT-42" d="M 469 0 
L 469 4581 
L 2188 4581 
Q 2713 4581 3030 4442 
Q 3347 4303 3526 4014 
Q 3706 3725 3706 3409 
Q 3706 3116 3547 2856 
Q 3388 2597 3066 2438 
Q 3481 2316 3704 2022 
Q 3928 1728 3928 1328 
Q 3928 1006 3792 729 
Q 3656 453 3456 303 
Q 3256 153 2954 76 
Q 2653 0 2216 0 
L 469 0 
z
M 1075 2656 
L 2066 2656 
Q 2469 2656 2644 2709 
Q 2875 2778 2992 2937 
Q 3109 3097 3109 3338 
Q 3109 3566 3000 3739 
Q 2891 3913 2687 3977 
Q 2484 4041 1991 4041 
L 1075 4041 
L 1075 2656 
z
M 1075 541 
L 2216 541 
Q 2509 541 2628 563 
Q 2838 600 2978 687 
Q 3119 775 3209 942 
Q 3300 1109 3300 1328 
Q 3300 1584 3169 1773 
Q 3038 1963 2805 2039 
Q 2572 2116 2134 2116 
L 1075 2116 
L 1075 541 
z
" transform="scale(0.015625)"/>
      </defs>
      <use xlink:href="#ArialMT-42"/>
      <use xlink:href="#ArialMT-47" x="66.699219"/>
      <use xlink:href="#ArialMT-4d" x="144.482422"/>
     </g>
    </g>
   </g>
  </g>
  <g id="axes_2">
   <g id="matplotlib.axis_3"/>
   <g id="matplotlib.axis_4">
    <g id="ytick_5">
     <g id="line2d_11"/>
     <g id="text_15">
      <!-- Contralateral -->
      <g transform="translate(3.6 376.055055)scale(0.165 -0.165)">
       <defs>
        <path id="ArialMT-43" d="M 3763 1606 
L 4369 1453 
Q 4178 706 3683 314 
Q 3188 -78 2472 -78 
Q 1731 -78 1267 223 
Q 803 525 561 1097 
Q 319 1669 319 2325 
Q 319 3041 592 3573 
Q 866 4106 1370 4382 
Q 1875 4659 2481 4659 
Q 3169 4659 3637 4309 
Q 4106 3959 4291 3325 
L 3694 3184 
Q 3534 3684 3231 3912 
Q 2928 4141 2469 4141 
Q 1941 4141 1586 3887 
Q 1231 3634 1087 3207 
Q 944 2781 944 2328 
Q 944 1744 1114 1308 
Q 1284 872 1643 656 
Q 2003 441 2422 441 
Q 2931 441 3284 734 
Q 3638 1028 3763 1606 
z
" transform="scale(0.015625)"/>
        <path id="ArialMT-6c" d="M 409 0 
L 409 4581 
L 972 4581 
L 972 0 
L 409 0 
z
" transform="scale(0.015625)"/>
       </defs>
       <use xlink:href="#ArialMT-43"/>
       <use xlink:href="#ArialMT-6f" x="72.216797"/>
       <use xlink:href="#ArialMT-6e" x="127.832031"/>
       <use xlink:href="#ArialMT-74" x="183.447266"/>
       <use xlink:href="#ArialMT-72" x="211.230469"/>
       <use xlink:href="#ArialMT-61" x="244.53125"/>
       <use xlink:href="#ArialMT-6c" x="300.146484"/>
       <use xlink:href="#ArialMT-61" x="322.363281"/>
       <use xlink:href="#ArialMT-74" x="377.978516"/>
       <use xlink:href="#ArialMT-65" x="405.761719"/>
       <use xlink:href="#ArialMT-72" x="461.376953"/>
       <use xlink:href="#ArialMT-61" x="494.677734"/>
       <use xlink:href="#ArialMT-6c" x="550.292969"/>
      </g>
     </g>
    </g>
    <g id="ytick_6">
     <g id="line2d_12"/>
     <g id="text_16">
      <!-- Ipsilateral -->
      <g transform="translate(27.445078 356.097713)scale(0.165 -0.165)">
       <defs>
        <path id="ArialMT-49" d="M 597 0 
L 597 4581 
L 1203 4581 
L 1203 0 
L 597 0 
z
" transform="scale(0.015625)"/>
        <path id="ArialMT-70" d="M 422 -1272 
L 422 3319 
L 934 3319 
L 934 2888 
Q 1116 3141 1344 3267 
Q 1572 3394 1897 3394 
Q 2322 3394 2647 3175 
Q 2972 2956 3137 2557 
Q 3303 2159 3303 1684 
Q 3303 1175 3120 767 
Q 2938 359 2589 142 
Q 2241 -75 1856 -75 
Q 1575 -75 1351 44 
Q 1128 163 984 344 
L 984 -1272 
L 422 -1272 
z
M 931 1641 
Q 931 1000 1190 694 
Q 1450 388 1819 388 
Q 2194 388 2461 705 
Q 2728 1022 2728 1688 
Q 2728 2322 2467 2637 
Q 2206 2953 1844 2953 
Q 1484 2953 1207 2617 
Q 931 2281 931 1641 
z
" transform="scale(0.015625)"/>
        <path id="ArialMT-73" d="M 197 991 
L 753 1078 
Q 800 744 1014 566 
Q 1228 388 1613 388 
Q 2000 388 2187 545 
Q 2375 703 2375 916 
Q 2375 1106 2209 1216 
Q 2094 1291 1634 1406 
Q 1016 1563 777 1677 
Q 538 1791 414 1992 
Q 291 2194 291 2438 
Q 291 2659 392 2848 
Q 494 3038 669 3163 
Q 800 3259 1026 3326 
Q 1253 3394 1513 3394 
Q 1903 3394 2198 3281 
Q 2494 3169 2634 2976 
Q 2775 2784 2828 2463 
L 2278 2388 
Q 2241 2644 2061 2787 
Q 1881 2931 1553 2931 
Q 1166 2931 1000 2803 
Q 834 2675 834 2503 
Q 834 2394 903 2306 
Q 972 2216 1119 2156 
Q 1203 2125 1616 2013 
Q 2213 1853 2448 1751 
Q 2684 1650 2818 1456 
Q 2953 1263 2953 975 
Q 2953 694 2789 445 
Q 2625 197 2315 61 
Q 2006 -75 1616 -75 
Q 969 -75 630 194 
Q 291 463 197 991 
z
" transform="scale(0.015625)"/>
       </defs>
       <use xlink:href="#ArialMT-49"/>
       <use xlink:href="#ArialMT-70" x="27.783203"/>
       <use xlink:href="#ArialMT-73" x="83.398438"/>
       <use xlink:href="#ArialMT-69" x="133.398438"/>
       <use xlink:href="#ArialMT-6c" x="155.615234"/>
       <use xlink:href="#ArialMT-61" x="177.832031"/>
       <use xlink:href="#ArialMT-74" x="233.447266"/>
       <use xlink:href="#ArialMT-65" x="261.230469"/>
       <use xlink:href="#ArialMT-72" x="316.845703"/>
       <use xlink:href="#ArialMT-61" x="350.146484"/>
       <use xlink:href="#ArialMT-6c" x="405.761719"/>
      </g>
     </g>
    </g>
    <g id="ytick_7">
     <g id="line2d_13"/>
     <g id="text_17">
      <!-- Electrical -->
      <g transform="translate(31.124062 336.14037)scale(0.165 -0.165)">
       <defs>
        <path id="ArialMT-45" d="M 506 0 
L 506 4581 
L 3819 4581 
L 3819 4041 
L 1113 4041 
L 1113 2638 
L 3647 2638 
L 3647 2100 
L 1113 2100 
L 1113 541 
L 3925 541 
L 3925 0 
L 506 0 
z
" transform="scale(0.015625)"/>
       </defs>
       <use xlink:href="#ArialMT-45"/>
       <use xlink:href="#ArialMT-6c" x="66.699219"/>
       <use xlink:href="#ArialMT-65" x="88.916016"/>
       <use xlink:href="#ArialMT-63" x="144.53125"/>
       <use xlink:href="#ArialMT-74" x="194.53125"/>
       <use xlink:href="#ArialMT-72" x="222.314453"/>
       <use xlink:href="#ArialMT-69" x="255.615234"/>
       <use xlink:href="#ArialMT-63" x="277.832031"/>
       <use xlink:href="#ArialMT-61" x="327.832031"/>
       <use xlink:href="#ArialMT-6c" x="383.447266"/>
      </g>
     </g>
    </g>
    <g id="ytick_8">
     <g id="line2d_14"/>
     <g id="text_18">
      <!-- Chemical -->
      <g transform="translate(29.288438 316.183027)scale(0.165 -0.165)">
       <defs>
        <path id="ArialMT-6d" d="M 422 0 
L 422 3319 
L 925 3319 
L 925 2853 
Q 1081 3097 1340 3245 
Q 1600 3394 1931 3394 
Q 2300 3394 2536 3241 
Q 2772 3088 2869 2813 
Q 3263 3394 3894 3394 
Q 4388 3394 4653 3120 
Q 4919 2847 4919 2278 
L 4919 0 
L 4359 0 
L 4359 2091 
Q 4359 2428 4304 2576 
Q 4250 2725 4106 2815 
Q 3963 2906 3769 2906 
Q 3419 2906 3187 2673 
Q 2956 2441 2956 1928 
L 2956 0 
L 2394 0 
L 2394 2156 
Q 2394 2531 2256 2718 
Q 2119 2906 1806 2906 
Q 1569 2906 1367 2781 
Q 1166 2656 1075 2415 
Q 984 2175 984 1722 
L 984 0 
L 422 0 
z
" transform="scale(0.015625)"/>
       </defs>
       <use xlink:href="#ArialMT-43"/>
       <use xlink:href="#ArialMT-68" x="72.216797"/>
       <use xlink:href="#ArialMT-65" x="127.832031"/>
       <use xlink:href="#ArialMT-6d" x="183.447266"/>
       <use xlink:href="#ArialMT-69" x="266.748047"/>
       <use xlink:href="#ArialMT-63" x="288.964844"/>
       <use xlink:href="#ArialMT-61" x="338.964844"/>
       <use xlink:href="#ArialMT-6c" x="394.580078"/>
      </g>
     </g>
    </g>
   </g>
   <g id="PathCollection_11">
    <defs>
     <path id="C6_0_980082c872" d="M 0 7.071068 
C 1.875269 7.071068 3.673985 6.326016 5 5 
C 6.326016 3.673985 7.071068 1.875269 7.071068 -0 
C 7.071068 -1.875269 6.326016 -3.673985 5 -5 
C 3.673985 -6.326016 1.875269 -7.071068 0 -7.071068 
C -1.875269 -7.071068 -3.673985 -6.326016 -5 -5 
C -6.326016 -3.673985 -7.071068 -1.875269 -7.071068 0 
C -7.071068 1.875269 -6.326016 3.673985 -5 5 
C -3.673985 6.326016 -1.875269 7.071068 0 7.071068 
z
"/>
    </defs>
    <g clip-path="url(#p57fc698cdb)">
     <use xlink:href="#C6_0_980082c872" x="128.048253" y="370.14986" style="fill: #d3d3d3"/>
    </g>
    <g clip-path="url(#p57fc698cdb)">
     <use xlink:href="#C6_0_980082c872" x="128.048253" y="350.192517"/>
    </g>
    <g clip-path="url(#p57fc698cdb)">
     <use xlink:href="#C6_0_980082c872" x="128.048253" y="330.235175"/>
    </g>
    <g clip-path="url(#p57fc698cdb)">
     <use xlink:href="#C6_0_980082c872" x="128.048253" y="310.277832" style="fill: #d3d3d3"/>
    </g>
    <g clip-path="url(#p57fc698cdb)">
     <use xlink:href="#C6_0_980082c872" x="184.411889" y="370.14986"/>
    </g>
    <g clip-path="url(#p57fc698cdb)">
     <use xlink:href="#C6_0_980082c872" x="184.411889" y="350.192517"/>
    </g>
    <g clip-path="url(#p57fc698cdb)">
     <use xlink:href="#C6_0_980082c872" x="184.411889" y="330.235175"/>
    </g>
    <g clip-path="url(#p57fc698cdb)">
     <use xlink:href="#C6_0_980082c872" x="184.411889" y="310.277832" style="fill: #d3d3d3"/>
    </g>
    <g clip-path="url(#p57fc698cdb)">
     <use xlink:href="#C6_0_980082c872" x="240.775526" y="370.14986" style="fill: #d3d3d3"/>
    </g>
    <g clip-path="url(#p57fc698cdb)">
     <use xlink:href="#C6_0_980082c872" x="240.775526" y="350.192517"/>
    </g>
    <g clip-path="url(#p57fc698cdb)">
     <use xlink:href="#C6_0_980082c872" x="240.775526" y="330.235175" style="fill: #d3d3d3"/>
    </g>
    <g clip-path="url(#p57fc698cdb)">
     <use xlink:href="#C6_0_980082c872" x="240.775526" y="310.277832"/>
    </g>
    <g clip-path="url(#p57fc698cdb)">
     <use xlink:href="#C6_0_980082c872" x="297.139162" y="370.14986"/>
    </g>
    <g clip-path="url(#p57fc698cdb)">
     <use xlink:href="#C6_0_980082c872" x="297.139162" y="350.192517"/>
    </g>
    <g clip-path="url(#p57fc698cdb)">
     <use xlink:href="#C6_0_980082c872" x="297.139162" y="330.235175" style="fill: #d3d3d3"/>
    </g>
    <g clip-path="url(#p57fc698cdb)">
     <use xlink:href="#C6_0_980082c872" x="297.139162" y="310.277832"/>
    </g>
    <g clip-path="url(#p57fc698cdb)">
     <use xlink:href="#C6_0_980082c872" x="353.502798" y="370.14986" style="fill: #d3d3d3"/>
    </g>
    <g clip-path="url(#p57fc698cdb)">
     <use xlink:href="#C6_0_980082c872" x="353.502798" y="350.192517"/>
    </g>
    <g clip-path="url(#p57fc698cdb)">
     <use xlink:href="#C6_0_980082c872" x="353.502798" y="330.235175"/>
    </g>
    <g clip-path="url(#p57fc698cdb)">
     <use xlink:href="#C6_0_980082c872" x="353.502798" y="310.277832"/>
    </g>
    <g clip-path="url(#p57fc698cdb)">
     <use xlink:href="#C6_0_980082c872" x="409.866435" y="370.14986"/>
    </g>
    <g clip-path="url(#p57fc698cdb)">
     <use xlink:href="#C6_0_980082c872" x="409.866435" y="350.192517"/>
    </g>
    <g clip-path="url(#p57fc698cdb)">
     <use xlink:href="#C6_0_980082c872" x="409.866435" y="330.235175"/>
    </g>
    <g clip-path="url(#p57fc698cdb)">
     <use xlink:href="#C6_0_980082c872" x="409.866435" y="310.277832"/>
    </g>
   </g>
   <g id="LineCollection_1">
    <path d="M 128.048253 350.192517 
L 128.048253 330.235175 
" clip-path="url(#p57fc698cdb)" style="fill: none; stroke: #000000; stroke-width: 3"/>
    <path d="M 184.411889 370.14986 
L 184.411889 330.235175 
" clip-path="url(#p57fc698cdb)" style="fill: none; stroke: #000000; stroke-width: 3"/>
    <path d="M 240.775526 350.192517 
L 240.775526 310.277832 
" clip-path="url(#p57fc698cdb)" style="fill: none; stroke: #000000; stroke-width: 3"/>
    <path d="M 297.139162 370.14986 
L 297.139162 310.277832 
" clip-path="url(#p57fc698cdb)" style="fill: none; stroke: #000000; stroke-width: 3"/>
    <path d="M 353.502798 350.192517 
L 353.502798 310.277832 
" clip-path="url(#p57fc698cdb)" style="fill: none; stroke: #000000; stroke-width: 3"/>
    <path d="M 409.866435 370.14986 
L 409.866435 310.277832 
" clip-path="url(#p57fc698cdb)" style="fill: none; stroke: #000000; stroke-width: 3"/>
   </g>
  </g>
 </g>
 <defs>
  <clipPath id="p57bdadf59d">
   <rect x="101.557344" y="3.6" width="334.8" height="292.707692"/>
  </clipPath>
  <clipPath id="p57fc698cdb">
   <rect x="101.557344" y="296.307692" width="334.8" height="87.812308"/>
  </clipPath>
 </defs>
</svg>
