<?xml version="1.0" encoding="utf-8" standalone="no"?>
<!DOCTYPE svg PUBLIC "-//W3C//DTD SVG 1.1//EN"
  "http://www.w3.org/Graphics/SVG/1.1/DTD/svg11.dtd">
<svg xmlns:xlink="http://www.w3.org/1999/xlink" width="901.871673pt" height="433.19952pt" viewBox="0 0 901.871673 433.19952" xmlns="http://www.w3.org/2000/svg" version="1.1">
 <metadata>
  <rdf:RDF xmlns:dc="http://purl.org/dc/elements/1.1/" xmlns:cc="http://creativecommons.org/ns#" xmlns:rdf="http://www.w3.org/1999/02/22-rdf-syntax-ns#">
   <cc:Work>
    <dc:type rdf:resource="http://purl.org/dc/dcmitype/StillImage"/>
    <dc:date>2022-09-20T09:43:11.890792</dc:date>
    <dc:format>image/svg+xml</dc:format>
    <dc:creator>
     <cc:Agent>
      <dc:title>Matplotlib v3.5.2, https://matplotlib.org/</dc:title>
     </cc:Agent>
    </dc:creator>
   </cc:Work>
  </rdf:RDF>
 </metadata>
 <defs>
  <style type="text/css">*{stroke-linejoin: round; stroke-linecap: butt}</style>
 </defs>
 <g id="figure_1">
  <g id="patch_1">
   <path d="M 0 433.19952 
L 901.871673 433.19952 
L 901.871673 0 
L 0 0 
z
" style="fill: #ffffff"/>
  </g>
  <g id="axes_1">
   <g id="patch_2">
    <path d="M 101.557344 335.700424 
L 426.589817 335.700424 
L 426.589817 22.703437 
L 101.557344 22.703437 
z
" style="fill: #ffffff"/>
   </g>
   <g id="matplotlib.axis_1"/>
   <g id="matplotlib.axis_2">
    <g id="ytick_1">
     <g id="line2d_1">
      <defs>
       <path id="m06ae612e92" d="M 0 0 
L -5 0 
" style="stroke: #000000; stroke-width: 1.875"/>
      </defs>
      <g>
       <use xlink:href="#m06ae612e92" x="101.557344" y="325.31846" style="stroke: #000000; stroke-width: 1.875"/>
      </g>
     </g>
     <g id="text_1">
      <!-- 0.00 -->
      <g transform="translate(60.946797 331.223655)scale(0.165 -0.165)">
       <defs>
        <path id="ArialMT-30" d="M 266 2259 
Q 266 3072 433 3567 
Q 600 4063 929 4331 
Q 1259 4600 1759 4600 
Q 2128 4600 2406 4451 
Q 2684 4303 2865 4023 
Q 3047 3744 3150 3342 
Q 3253 2941 3253 2259 
Q 3253 1453 3087 958 
Q 2922 463 2592 192 
Q 2263 -78 1759 -78 
Q 1097 -78 719 397 
Q 266 969 266 2259 
z
M 844 2259 
Q 844 1131 1108 757 
Q 1372 384 1759 384 
Q 2147 384 2411 759 
Q 2675 1134 2675 2259 
Q 2675 3391 2411 3762 
Q 2147 4134 1753 4134 
Q 1366 4134 1134 3806 
Q 844 3388 844 2259 
z
" transform="scale(0.015625)"/>
        <path id="ArialMT-2e" d="M 581 0 
L 581 641 
L 1222 641 
L 1222 0 
L 581 0 
z
" transform="scale(0.015625)"/>
       </defs>
       <use xlink:href="#ArialMT-30"/>
       <use xlink:href="#ArialMT-2e" x="55.615234"/>
       <use xlink:href="#ArialMT-30" x="83.398438"/>
       <use xlink:href="#ArialMT-30" x="139.013672"/>
      </g>
     </g>
    </g>
    <g id="ytick_2">
     <g id="line2d_2">
      <g>
       <use xlink:href="#m06ae612e92" x="101.557344" y="243.127912" style="stroke: #000000; stroke-width: 1.875"/>
      </g>
     </g>
     <g id="text_2">
      <!-- 0.25 -->
      <g transform="translate(60.946797 249.033108)scale(0.165 -0.165)">
       <defs>
        <path id="ArialMT-32" d="M 3222 541 
L 3222 0 
L 194 0 
Q 188 203 259 391 
Q 375 700 629 1000 
Q 884 1300 1366 1694 
Q 2113 2306 2375 2664 
Q 2638 3022 2638 3341 
Q 2638 3675 2398 3904 
Q 2159 4134 1775 4134 
Q 1369 4134 1125 3890 
Q 881 3647 878 3216 
L 300 3275 
Q 359 3922 746 4261 
Q 1134 4600 1788 4600 
Q 2447 4600 2831 4234 
Q 3216 3869 3216 3328 
Q 3216 3053 3103 2787 
Q 2991 2522 2730 2228 
Q 2469 1934 1863 1422 
Q 1356 997 1212 845 
Q 1069 694 975 541 
L 3222 541 
z
" transform="scale(0.015625)"/>
        <path id="ArialMT-35" d="M 266 1200 
L 856 1250 
Q 922 819 1161 601 
Q 1400 384 1738 384 
Q 2144 384 2425 690 
Q 2706 997 2706 1503 
Q 2706 1984 2436 2262 
Q 2166 2541 1728 2541 
Q 1456 2541 1237 2417 
Q 1019 2294 894 2097 
L 366 2166 
L 809 4519 
L 3088 4519 
L 3088 3981 
L 1259 3981 
L 1013 2750 
Q 1425 3038 1878 3038 
Q 2478 3038 2890 2622 
Q 3303 2206 3303 1553 
Q 3303 931 2941 478 
Q 2500 -78 1738 -78 
Q 1113 -78 717 272 
Q 322 622 266 1200 
z
" transform="scale(0.015625)"/>
       </defs>
       <use xlink:href="#ArialMT-30"/>
       <use xlink:href="#ArialMT-2e" x="55.615234"/>
       <use xlink:href="#ArialMT-32" x="83.398438"/>
       <use xlink:href="#ArialMT-35" x="139.013672"/>
      </g>
     </g>
    </g>
    <g id="ytick_3">
     <g id="line2d_3">
      <g>
       <use xlink:href="#m06ae612e92" x="101.557344" y="160.937365" style="stroke: #000000; stroke-width: 1.875"/>
      </g>
     </g>
     <g id="text_3">
      <!-- 0.50 -->
      <g transform="translate(60.946797 166.84256)scale(0.165 -0.165)">
       <use xlink:href="#ArialMT-30"/>
       <use xlink:href="#ArialMT-2e" x="55.615234"/>
       <use xlink:href="#ArialMT-35" x="83.398438"/>
       <use xlink:href="#ArialMT-30" x="139.013672"/>
      </g>
     </g>
    </g>
    <g id="ytick_4">
     <g id="line2d_4">
      <g>
       <use xlink:href="#m06ae612e92" x="101.557344" y="78.746817" style="stroke: #000000; stroke-width: 1.875"/>
      </g>
     </g>
     <g id="text_4">
      <!-- 0.75 -->
      <g transform="translate(60.946797 84.652012)scale(0.165 -0.165)">
       <defs>
        <path id="ArialMT-37" d="M 303 3981 
L 303 4522 
L 3269 4522 
L 3269 4084 
Q 2831 3619 2401 2847 
Q 1972 2075 1738 1259 
Q 1569 684 1522 0 
L 944 0 
Q 953 541 1156 1306 
Q 1359 2072 1739 2783 
Q 2119 3494 2547 3981 
L 303 3981 
z
" transform="scale(0.015625)"/>
       </defs>
       <use xlink:href="#ArialMT-30"/>
       <use xlink:href="#ArialMT-2e" x="55.615234"/>
       <use xlink:href="#ArialMT-37" x="83.398438"/>
       <use xlink:href="#ArialMT-35" x="139.013672"/>
      </g>
     </g>
    </g>
    <g id="text_5">
     <!-- Matching accuracy -->
     <g transform="translate(53.158359 254.229587)rotate(-90)scale(0.18 -0.18)">
      <defs>
       <path id="ArialMT-4d" d="M 475 0 
L 475 4581 
L 1388 4581 
L 2472 1338 
Q 2622 884 2691 659 
Q 2769 909 2934 1394 
L 4031 4581 
L 4847 4581 
L 4847 0 
L 4263 0 
L 4263 3834 
L 2931 0 
L 2384 0 
L 1059 3900 
L 1059 0 
L 475 0 
z
" transform="scale(0.015625)"/>
       <path id="ArialMT-61" d="M 2588 409 
Q 2275 144 1986 34 
Q 1697 -75 1366 -75 
Q 819 -75 525 192 
Q 231 459 231 875 
Q 231 1119 342 1320 
Q 453 1522 633 1644 
Q 813 1766 1038 1828 
Q 1203 1872 1538 1913 
Q 2219 1994 2541 2106 
Q 2544 2222 2544 2253 
Q 2544 2597 2384 2738 
Q 2169 2928 1744 2928 
Q 1347 2928 1158 2789 
Q 969 2650 878 2297 
L 328 2372 
Q 403 2725 575 2942 
Q 747 3159 1072 3276 
Q 1397 3394 1825 3394 
Q 2250 3394 2515 3294 
Q 2781 3194 2906 3042 
Q 3031 2891 3081 2659 
Q 3109 2516 3109 2141 
L 3109 1391 
Q 3109 606 3145 398 
Q 3181 191 3288 0 
L 2700 0 
Q 2613 175 2588 409 
z
M 2541 1666 
Q 2234 1541 1622 1453 
Q 1275 1403 1131 1340 
Q 988 1278 909 1158 
Q 831 1038 831 891 
Q 831 666 1001 516 
Q 1172 366 1500 366 
Q 1825 366 2078 508 
Q 2331 650 2450 897 
Q 2541 1088 2541 1459 
L 2541 1666 
z
" transform="scale(0.015625)"/>
       <path id="ArialMT-74" d="M 1650 503 
L 1731 6 
Q 1494 -44 1306 -44 
Q 1000 -44 831 53 
Q 663 150 594 308 
Q 525 466 525 972 
L 525 2881 
L 113 2881 
L 113 3319 
L 525 3319 
L 525 4141 
L 1084 4478 
L 1084 3319 
L 1650 3319 
L 1650 2881 
L 1084 2881 
L 1084 941 
Q 1084 700 1114 631 
Q 1144 563 1211 522 
Q 1278 481 1403 481 
Q 1497 481 1650 503 
z
" transform="scale(0.015625)"/>
       <path id="ArialMT-63" d="M 2588 1216 
L 3141 1144 
Q 3050 572 2676 248 
Q 2303 -75 1759 -75 
Q 1078 -75 664 370 
Q 250 816 250 1647 
Q 250 2184 428 2587 
Q 606 2991 970 3192 
Q 1334 3394 1763 3394 
Q 2303 3394 2647 3120 
Q 2991 2847 3088 2344 
L 2541 2259 
Q 2463 2594 2264 2762 
Q 2066 2931 1784 2931 
Q 1359 2931 1093 2626 
Q 828 2322 828 1663 
Q 828 994 1084 691 
Q 1341 388 1753 388 
Q 2084 388 2306 591 
Q 2528 794 2588 1216 
z
" transform="scale(0.015625)"/>
       <path id="ArialMT-68" d="M 422 0 
L 422 4581 
L 984 4581 
L 984 2938 
Q 1378 3394 1978 3394 
Q 2347 3394 2619 3248 
Q 2891 3103 3008 2847 
Q 3125 2591 3125 2103 
L 3125 0 
L 2563 0 
L 2563 2103 
Q 2563 2525 2380 2717 
Q 2197 2909 1863 2909 
Q 1613 2909 1392 2779 
Q 1172 2650 1078 2428 
Q 984 2206 984 1816 
L 984 0 
L 422 0 
z
" transform="scale(0.015625)"/>
       <path id="ArialMT-69" d="M 425 3934 
L 425 4581 
L 988 4581 
L 988 3934 
L 425 3934 
z
M 425 0 
L 425 3319 
L 988 3319 
L 988 0 
L 425 0 
z
" transform="scale(0.015625)"/>
       <path id="ArialMT-6e" d="M 422 0 
L 422 3319 
L 928 3319 
L 928 2847 
Q 1294 3394 1984 3394 
Q 2284 3394 2536 3286 
Q 2788 3178 2913 3003 
Q 3038 2828 3088 2588 
Q 3119 2431 3119 2041 
L 3119 0 
L 2556 0 
L 2556 2019 
Q 2556 2363 2490 2533 
Q 2425 2703 2258 2804 
Q 2091 2906 1866 2906 
Q 1506 2906 1245 2678 
Q 984 2450 984 1813 
L 984 0 
L 422 0 
z
" transform="scale(0.015625)"/>
       <path id="ArialMT-67" d="M 319 -275 
L 866 -356 
Q 900 -609 1056 -725 
Q 1266 -881 1628 -881 
Q 2019 -881 2231 -725 
Q 2444 -569 2519 -288 
Q 2563 -116 2559 434 
Q 2191 0 1641 0 
Q 956 0 581 494 
Q 206 988 206 1678 
Q 206 2153 378 2554 
Q 550 2956 876 3175 
Q 1203 3394 1644 3394 
Q 2231 3394 2613 2919 
L 2613 3319 
L 3131 3319 
L 3131 450 
Q 3131 -325 2973 -648 
Q 2816 -972 2473 -1159 
Q 2131 -1347 1631 -1347 
Q 1038 -1347 672 -1080 
Q 306 -813 319 -275 
z
M 784 1719 
Q 784 1066 1043 766 
Q 1303 466 1694 466 
Q 2081 466 2343 764 
Q 2606 1063 2606 1700 
Q 2606 2309 2336 2618 
Q 2066 2928 1684 2928 
Q 1309 2928 1046 2623 
Q 784 2319 784 1719 
z
" transform="scale(0.015625)"/>
       <path id="ArialMT-20" transform="scale(0.015625)"/>
       <path id="ArialMT-75" d="M 2597 0 
L 2597 488 
Q 2209 -75 1544 -75 
Q 1250 -75 995 37 
Q 741 150 617 320 
Q 494 491 444 738 
Q 409 903 409 1263 
L 409 3319 
L 972 3319 
L 972 1478 
Q 972 1038 1006 884 
Q 1059 663 1231 536 
Q 1403 409 1656 409 
Q 1909 409 2131 539 
Q 2353 669 2445 892 
Q 2538 1116 2538 1541 
L 2538 3319 
L 3100 3319 
L 3100 0 
L 2597 0 
z
" transform="scale(0.015625)"/>
       <path id="ArialMT-72" d="M 416 0 
L 416 3319 
L 922 3319 
L 922 2816 
Q 1116 3169 1280 3281 
Q 1444 3394 1641 3394 
Q 1925 3394 2219 3213 
L 2025 2691 
Q 1819 2813 1613 2813 
Q 1428 2813 1281 2702 
Q 1134 2591 1072 2394 
Q 978 2094 978 1738 
L 978 0 
L 416 0 
z
" transform="scale(0.015625)"/>
       <path id="ArialMT-79" d="M 397 -1278 
L 334 -750 
Q 519 -800 656 -800 
Q 844 -800 956 -737 
Q 1069 -675 1141 -563 
Q 1194 -478 1313 -144 
Q 1328 -97 1363 -6 
L 103 3319 
L 709 3319 
L 1400 1397 
Q 1534 1031 1641 628 
Q 1738 1016 1872 1384 
L 2581 3319 
L 3144 3319 
L 1881 -56 
Q 1678 -603 1566 -809 
Q 1416 -1088 1222 -1217 
Q 1028 -1347 759 -1347 
Q 597 -1347 397 -1278 
z
" transform="scale(0.015625)"/>
      </defs>
      <use xlink:href="#ArialMT-4d"/>
      <use xlink:href="#ArialMT-61" x="83.300781"/>
      <use xlink:href="#ArialMT-74" x="138.916016"/>
      <use xlink:href="#ArialMT-63" x="166.699219"/>
      <use xlink:href="#ArialMT-68" x="216.699219"/>
      <use xlink:href="#ArialMT-69" x="272.314453"/>
      <use xlink:href="#ArialMT-6e" x="294.53125"/>
      <use xlink:href="#ArialMT-67" x="350.146484"/>
      <use xlink:href="#ArialMT-20" x="405.761719"/>
      <use xlink:href="#ArialMT-61" x="433.544922"/>
      <use xlink:href="#ArialMT-63" x="489.160156"/>
      <use xlink:href="#ArialMT-63" x="539.160156"/>
      <use xlink:href="#ArialMT-75" x="589.160156"/>
      <use xlink:href="#ArialMT-72" x="644.775391"/>
      <use xlink:href="#ArialMT-61" x="678.076172"/>
      <use xlink:href="#ArialMT-63" x="733.691406"/>
      <use xlink:href="#ArialMT-79" x="783.691406"/>
     </g>
    </g>
   </g>
   <g id="PathCollection_1"/>
   <g id="PathCollection_2"/>
   <g id="line2d_5">
    <path d="M 116.331547 309.168738 
L 138.219256 309.168738 
" clip-path="url(#pd35d8a1d2f)" style="fill: none; stroke: #000000; stroke-width: 2.25; stroke-linecap: round"/>
   </g>
   <g id="line2d_6">
    <path d="M 171.050819 268.217659 
L 192.938527 268.217659 
" clip-path="url(#pd35d8a1d2f)" style="fill: none; stroke: #000000; stroke-width: 2.25; stroke-linecap: round"/>
   </g>
   <g id="line2d_7">
    <path d="M 225.77009 181.509034 
L 247.657799 181.509034 
" clip-path="url(#pd35d8a1d2f)" style="fill: none; stroke: #000000; stroke-width: 2.25; stroke-linecap: round"/>
   </g>
   <g id="line2d_8">
    <path d="M 280.489362 110.565614 
L 302.37707 110.565614 
" clip-path="url(#pd35d8a1d2f)" style="fill: none; stroke: #000000; stroke-width: 2.25; stroke-linecap: round"/>
   </g>
   <g id="line2d_9">
    <path d="M 335.208633 80.573273 
L 357.096342 80.573273 
" clip-path="url(#pd35d8a1d2f)" style="fill: none; stroke: #000000; stroke-width: 2.25; stroke-linecap: round"/>
   </g>
   <g id="line2d_10">
    <path d="M 389.927905 56.54095 
L 411.815613 56.54095 
" clip-path="url(#pd35d8a1d2f)" style="fill: none; stroke: #000000; stroke-width: 2.25; stroke-linecap: round"/>
   </g>
   <g id="patch_3">
    <path d="M 101.557344 335.700424 
L 101.557344 22.703437 
" style="fill: none; stroke: #000000; stroke-width: 1.875; stroke-linejoin: miter; stroke-linecap: square"/>
   </g>
   <g id="patch_4">
    <path d="M 101.557344 335.700424 
L 426.589817 335.700424 
" style="fill: none; stroke: #000000; stroke-width: 1.875; stroke-linejoin: miter; stroke-linecap: square"/>
   </g>
   <g id="PathCollection_3">
    <defs>
     <path id="C0_0_f319662f81" d="M 0 2.5 
C 0.663008 2.5 1.29895 2.236584 1.767767 1.767767 
C 2.236584 1.29895 2.5 0.663008 2.5 -0 
C 2.5 -0.663008 2.236584 -1.29895 1.767767 -1.767767 
C 1.29895 -2.236584 0.663008 -2.5 0 -2.5 
C -0.663008 -2.5 -1.29895 -2.236584 -1.767767 -1.767767 
C -2.236584 -1.29895 -2.5 -0.663008 -2.5 0 
C -2.5 0.663008 -2.236584 1.29895 -1.767767 1.767767 
C -1.29895 2.236584 -0.663008 2.5 0 2.5 
z
"/>
    </defs>
    <g clip-path="url(#pd35d8a1d2f)">
     <use xlink:href="#C0_0_f319662f81" x="129.942954" y="308.015187" style="fill: #0173b2"/>
    </g>
    <g clip-path="url(#pd35d8a1d2f)">
     <use xlink:href="#C0_0_f319662f81" x="123.913479" y="308.015187" style="fill: #0173b2"/>
    </g>
    <g clip-path="url(#pd35d8a1d2f)">
     <use xlink:href="#C0_0_f319662f81" x="121.144994" y="309.937773" style="fill: #0173b2"/>
    </g>
    <g clip-path="url(#pd35d8a1d2f)">
     <use xlink:href="#C0_0_f319662f81" x="122.680638" y="308.015187" style="fill: #0173b2"/>
    </g>
    <g clip-path="url(#pd35d8a1d2f)">
     <use xlink:href="#C0_0_f319662f81" x="133.85246" y="321.473288" style="fill: #0173b2"/>
    </g>
    <g clip-path="url(#pd35d8a1d2f)">
     <use xlink:href="#C0_0_f319662f81" x="118.407835" y="302.247429" style="fill: #0173b2"/>
    </g>
    <g clip-path="url(#pd35d8a1d2f)">
     <use xlink:href="#C0_0_f319662f81" x="121.20199" y="309.937773" style="fill: #0173b2"/>
    </g>
    <g clip-path="url(#pd35d8a1d2f)">
     <use xlink:href="#C0_0_f319662f81" x="132.245586" y="306.092601" style="fill: #0173b2"/>
    </g>
    <g clip-path="url(#pd35d8a1d2f)">
     <use xlink:href="#C0_0_f319662f81" x="121.469147" y="304.170015" style="fill: #0173b2"/>
    </g>
    <g clip-path="url(#pd35d8a1d2f)">
     <use xlink:href="#C0_0_f319662f81" x="117.142335" y="313.782945" style="fill: #0173b2"/>
    </g>
   </g>
   <g id="PathCollection_4">
    <defs>
     <path id="C1_0_a4131b23e7" d="M 0 2.5 
C 0.663008 2.5 1.29895 2.236584 1.767767 1.767767 
C 2.236584 1.29895 2.5 0.663008 2.5 -0 
C 2.5 -0.663008 2.236584 -1.29895 1.767767 -1.767767 
C 1.29895 -2.236584 0.663008 -2.5 0 -2.5 
C -0.663008 -2.5 -1.29895 -2.236584 -1.767767 -1.767767 
C -2.236584 -1.29895 -2.5 -0.663008 -2.5 0 
C -2.5 0.663008 -2.236584 1.29895 -1.767767 1.767767 
C -1.29895 2.236584 -0.663008 2.5 0 2.5 
z
"/>
    </defs>
    <g clip-path="url(#pd35d8a1d2f)">
     <use xlink:href="#C1_0_a4131b23e7" x="191.327037" y="265.718297" style="fill: #de8f05"/>
    </g>
    <g clip-path="url(#pd35d8a1d2f)">
     <use xlink:href="#C1_0_a4131b23e7" x="192.236079" y="267.640883" style="fill: #de8f05"/>
    </g>
    <g clip-path="url(#pd35d8a1d2f)">
     <use xlink:href="#C1_0_a4131b23e7" x="188.120465" y="261.873125" style="fill: #de8f05"/>
    </g>
    <g clip-path="url(#pd35d8a1d2f)">
     <use xlink:href="#C1_0_a4131b23e7" x="184.252442" y="263.795711" style="fill: #de8f05"/>
    </g>
    <g clip-path="url(#pd35d8a1d2f)">
     <use xlink:href="#C1_0_a4131b23e7" x="172.772962" y="267.640883" style="fill: #de8f05"/>
    </g>
    <g clip-path="url(#pd35d8a1d2f)">
     <use xlink:href="#C1_0_a4131b23e7" x="182.726713" y="279.176398" style="fill: #de8f05"/>
    </g>
    <g clip-path="url(#pd35d8a1d2f)">
     <use xlink:href="#C1_0_a4131b23e7" x="175.395156" y="275.331226" style="fill: #de8f05"/>
    </g>
    <g clip-path="url(#pd35d8a1d2f)">
     <use xlink:href="#C1_0_a4131b23e7" x="173.44693" y="265.718297" style="fill: #de8f05"/>
    </g>
    <g clip-path="url(#pd35d8a1d2f)">
     <use xlink:href="#C1_0_a4131b23e7" x="185.536078" y="281.098984" style="fill: #de8f05"/>
    </g>
    <g clip-path="url(#pd35d8a1d2f)">
     <use xlink:href="#C1_0_a4131b23e7" x="188.86109" y="254.182781" style="fill: #de8f05"/>
    </g>
   </g>
   <g id="PathCollection_5">
    <defs>
     <path id="C2_0_ece9446030" d="M 0 2.5 
C 0.663008 2.5 1.29895 2.236584 1.767767 1.767767 
C 2.236584 1.29895 2.5 0.663008 2.5 -0 
C 2.5 -0.663008 2.236584 -1.29895 1.767767 -1.767767 
C 1.29895 -2.236584 0.663008 -2.5 0 -2.5 
C -0.663008 -2.5 -1.29895 -2.236584 -1.767767 -1.767767 
C -2.236584 -1.29895 -2.5 -0.663008 -2.5 0 
C -2.5 0.663008 -2.236584 1.29895 -1.767767 1.767767 
C -1.29895 2.236584 -0.663008 2.5 0 2.5 
z
"/>
    </defs>
    <g clip-path="url(#pd35d8a1d2f)">
     <use xlink:href="#C2_0_ece9446030" x="243.304333" y="188.81486" style="fill: #0173b2"/>
    </g>
    <g clip-path="url(#pd35d8a1d2f)">
     <use xlink:href="#C2_0_ece9446030" x="234.985167" y="175.356759" style="fill: #0173b2"/>
    </g>
    <g clip-path="url(#pd35d8a1d2f)">
     <use xlink:href="#C2_0_ece9446030" x="240.722513" y="173.434173" style="fill: #0173b2"/>
    </g>
    <g clip-path="url(#pd35d8a1d2f)">
     <use xlink:href="#C2_0_ece9446030" x="238.97013" y="175.356759" style="fill: #0173b2"/>
    </g>
    <g clip-path="url(#pd35d8a1d2f)">
     <use xlink:href="#C2_0_ece9446030" x="240.041865" y="192.660032" style="fill: #0173b2"/>
    </g>
    <g clip-path="url(#pd35d8a1d2f)">
     <use xlink:href="#C2_0_ece9446030" x="232.314836" y="173.434173" style="fill: #0173b2"/>
    </g>
    <g clip-path="url(#pd35d8a1d2f)">
     <use xlink:href="#C2_0_ece9446030" x="226.119267" y="184.969689" style="fill: #0173b2"/>
    </g>
    <g clip-path="url(#pd35d8a1d2f)">
     <use xlink:href="#C2_0_ece9446030" x="232.093049" y="192.660032" style="fill: #0173b2"/>
    </g>
    <g clip-path="url(#pd35d8a1d2f)">
     <use xlink:href="#C2_0_ece9446030" x="233.584642" y="179.201931" style="fill: #0173b2"/>
    </g>
    <g clip-path="url(#pd35d8a1d2f)">
     <use xlink:href="#C2_0_ece9446030" x="245.806202" y="179.201931" style="fill: #0173b2"/>
    </g>
   </g>
   <g id="PathCollection_6">
    <defs>
     <path id="C3_0_7fd89ccfa3" d="M 0 2.5 
C 0.663008 2.5 1.29895 2.236584 1.767767 1.767767 
C 2.236584 1.29895 2.5 0.663008 2.5 -0 
C 2.5 -0.663008 2.236584 -1.29895 1.767767 -1.767767 
C 1.29895 -2.236584 0.663008 -2.5 0 -2.5 
C -0.663008 -2.5 -1.29895 -2.236584 -1.767767 -1.767767 
C -2.236584 -1.29895 -2.5 -0.663008 -2.5 0 
C -2.5 0.663008 -2.236584 1.29895 -1.767767 1.767767 
C -1.29895 2.236584 -0.663008 2.5 0 2.5 
z
"/>
    </defs>
    <g clip-path="url(#pd35d8a1d2f)">
     <use xlink:href="#C3_0_7fd89ccfa3" x="299.066553" y="111.911424" style="fill: #de8f05"/>
    </g>
    <g clip-path="url(#pd35d8a1d2f)">
     <use xlink:href="#C3_0_7fd89ccfa3" x="282.544274" y="113.83401" style="fill: #de8f05"/>
    </g>
    <g clip-path="url(#pd35d8a1d2f)">
     <use xlink:href="#C3_0_7fd89ccfa3" x="293.094261" y="113.83401" style="fill: #de8f05"/>
    </g>
    <g clip-path="url(#pd35d8a1d2f)">
     <use xlink:href="#C3_0_7fd89ccfa3" x="297.785506" y="108.066252" style="fill: #de8f05"/>
    </g>
    <g clip-path="url(#pd35d8a1d2f)">
     <use xlink:href="#C3_0_7fd89ccfa3" x="280.564291" y="111.911424" style="fill: #de8f05"/>
    </g>
    <g clip-path="url(#pd35d8a1d2f)">
     <use xlink:href="#C3_0_7fd89ccfa3" x="296.092545" y="106.143666" style="fill: #de8f05"/>
    </g>
    <g clip-path="url(#pd35d8a1d2f)">
     <use xlink:href="#C3_0_7fd89ccfa3" x="298.56072" y="108.066252" style="fill: #de8f05"/>
    </g>
    <g clip-path="url(#pd35d8a1d2f)">
     <use xlink:href="#C3_0_7fd89ccfa3" x="281.291513" y="109.988838" style="fill: #de8f05"/>
    </g>
    <g clip-path="url(#pd35d8a1d2f)">
     <use xlink:href="#C3_0_7fd89ccfa3" x="282.679875" y="108.066252" style="fill: #de8f05"/>
    </g>
    <g clip-path="url(#pd35d8a1d2f)">
     <use xlink:href="#C3_0_7fd89ccfa3" x="298.359391" y="113.83401" style="fill: #de8f05"/>
    </g>
   </g>
   <g id="PathCollection_7">
    <defs>
     <path id="C4_0_ad22965943" d="M 0 2.5 
C 0.663008 2.5 1.29895 2.236584 1.767767 1.767767 
C 2.236584 1.29895 2.5 0.663008 2.5 -0 
C 2.5 -0.663008 2.236584 -1.29895 1.767767 -1.767767 
C 1.29895 -2.236584 0.663008 -2.5 0 -2.5 
C -0.663008 -2.5 -1.29895 -2.236584 -1.767767 -1.767767 
C -2.236584 -1.29895 -2.5 -0.663008 -2.5 0 
C -2.5 0.663008 -2.236584 1.29895 -1.767767 1.767767 
C -1.29895 2.236584 -0.663008 2.5 0 2.5 
z
"/>
    </defs>
    <g clip-path="url(#pd35d8a1d2f)">
     <use xlink:href="#C4_0_ad22965943" x="342.767355" y="83.072635" style="fill: #0173b2"/>
    </g>
    <g clip-path="url(#pd35d8a1d2f)">
     <use xlink:href="#C4_0_ad22965943" x="347.188117" y="79.227463" style="fill: #0173b2"/>
    </g>
    <g clip-path="url(#pd35d8a1d2f)">
     <use xlink:href="#C4_0_ad22965943" x="355.500519" y="90.762979" style="fill: #0173b2"/>
    </g>
    <g clip-path="url(#pd35d8a1d2f)">
     <use xlink:href="#C4_0_ad22965943" x="352.268701" y="86.917807" style="fill: #0173b2"/>
    </g>
    <g clip-path="url(#pd35d8a1d2f)">
     <use xlink:href="#C4_0_ad22965943" x="355.497801" y="81.150049" style="fill: #0173b2"/>
    </g>
    <g clip-path="url(#pd35d8a1d2f)">
     <use xlink:href="#C4_0_ad22965943" x="354.934214" y="73.459706" style="fill: #0173b2"/>
    </g>
    <g clip-path="url(#pd35d8a1d2f)">
     <use xlink:href="#C4_0_ad22965943" x="343.323135" y="81.150049" style="fill: #0173b2"/>
    </g>
    <g clip-path="url(#pd35d8a1d2f)">
     <use xlink:href="#C4_0_ad22965943" x="344.095771" y="52.311261" style="fill: #0173b2"/>
    </g>
    <g clip-path="url(#pd35d8a1d2f)">
     <use xlink:href="#C4_0_ad22965943" x="343.655738" y="96.530737" style="fill: #0173b2"/>
    </g>
    <g clip-path="url(#pd35d8a1d2f)">
     <use xlink:href="#C4_0_ad22965943" x="352.737216" y="81.150049" style="fill: #0173b2"/>
    </g>
   </g>
   <g id="PathCollection_8">
    <defs>
     <path id="C5_0_9b2003ef55" d="M 0 2.5 
C 0.663008 2.5 1.29895 2.236584 1.767767 1.767767 
C 2.236584 1.29895 2.5 0.663008 2.5 -0 
C 2.5 -0.663008 2.236584 -1.29895 1.767767 -1.767767 
C 1.29895 -2.236584 0.663008 -2.5 0 -2.5 
C -0.663008 -2.5 -1.29895 -2.236584 -1.767767 -1.767767 
C -2.236584 -1.29895 -2.5 -0.663008 -2.5 0 
C -2.5 0.663008 -2.236584 1.29895 -1.767767 1.767767 
C -1.29895 2.236584 -0.663008 2.5 0 2.5 
z
"/>
    </defs>
    <g clip-path="url(#pd35d8a1d2f)">
     <use xlink:href="#C5_0_9b2003ef55" x="399.099436" y="44.620917" style="fill: #de8f05"/>
    </g>
    <g clip-path="url(#pd35d8a1d2f)">
     <use xlink:href="#C5_0_9b2003ef55" x="398.696003" y="54.233846" style="fill: #de8f05"/>
    </g>
    <g clip-path="url(#pd35d8a1d2f)">
     <use xlink:href="#C5_0_9b2003ef55" x="403.976282" y="56.156432" style="fill: #de8f05"/>
    </g>
    <g clip-path="url(#pd35d8a1d2f)">
     <use xlink:href="#C5_0_9b2003ef55" x="397.345941" y="48.466089" style="fill: #de8f05"/>
    </g>
    <g clip-path="url(#pd35d8a1d2f)">
     <use xlink:href="#C5_0_9b2003ef55" x="411.353619" y="81.150049" style="fill: #de8f05"/>
    </g>
    <g clip-path="url(#pd35d8a1d2f)">
     <use xlink:href="#C5_0_9b2003ef55" x="393.691491" y="67.691948" style="fill: #de8f05"/>
    </g>
    <g clip-path="url(#pd35d8a1d2f)">
     <use xlink:href="#C5_0_9b2003ef55" x="391.367166" y="52.311261" style="fill: #de8f05"/>
    </g>
    <g clip-path="url(#pd35d8a1d2f)">
     <use xlink:href="#C5_0_9b2003ef55" x="403.445775" y="52.311261" style="fill: #de8f05"/>
    </g>
    <g clip-path="url(#pd35d8a1d2f)">
     <use xlink:href="#C5_0_9b2003ef55" x="396.328726" y="36.930573" style="fill: #de8f05"/>
    </g>
    <g clip-path="url(#pd35d8a1d2f)">
     <use xlink:href="#C5_0_9b2003ef55" x="396.618066" y="71.53712" style="fill: #de8f05"/>
    </g>
   </g>
   <g id="text_6">
    <!-- 0.05 -->
    <g transform="translate(139.313641 313.82202)scale(0.18 -0.18)">
     <use xlink:href="#ArialMT-30"/>
     <use xlink:href="#ArialMT-2e" x="55.615234"/>
     <use xlink:href="#ArialMT-30" x="83.398438"/>
     <use xlink:href="#ArialMT-35" x="139.013672"/>
    </g>
   </g>
   <g id="text_7">
    <!-- 0.17 -->
    <g transform="translate(194.032913 272.87094)scale(0.18 -0.18)">
     <defs>
      <path id="ArialMT-31" d="M 2384 0 
L 1822 0 
L 1822 3584 
Q 1619 3391 1289 3197 
Q 959 3003 697 2906 
L 697 3450 
Q 1169 3672 1522 3987 
Q 1875 4303 2022 4600 
L 2384 4600 
L 2384 0 
z
" transform="scale(0.015625)"/>
     </defs>
     <use xlink:href="#ArialMT-30"/>
     <use xlink:href="#ArialMT-2e" x="55.615234"/>
     <use xlink:href="#ArialMT-31" x="83.398438"/>
     <use xlink:href="#ArialMT-37" x="139.013672"/>
    </g>
   </g>
   <g id="text_8">
    <!-- 0.44 -->
    <g transform="translate(248.752184 186.162315)scale(0.18 -0.18)">
     <defs>
      <path id="ArialMT-34" d="M 2069 0 
L 2069 1097 
L 81 1097 
L 81 1613 
L 2172 4581 
L 2631 4581 
L 2631 1613 
L 3250 1613 
L 3250 1097 
L 2631 1097 
L 2631 0 
L 2069 0 
z
M 2069 1613 
L 2069 3678 
L 634 1613 
L 2069 1613 
z
" transform="scale(0.015625)"/>
     </defs>
     <use xlink:href="#ArialMT-30"/>
     <use xlink:href="#ArialMT-2e" x="55.615234"/>
     <use xlink:href="#ArialMT-34" x="83.398438"/>
     <use xlink:href="#ArialMT-34" x="139.013672"/>
    </g>
   </g>
   <g id="text_9">
    <!-- 0.65 -->
    <g transform="translate(303.471456 115.218895)scale(0.18 -0.18)">
     <defs>
      <path id="ArialMT-36" d="M 3184 3459 
L 2625 3416 
Q 2550 3747 2413 3897 
Q 2184 4138 1850 4138 
Q 1581 4138 1378 3988 
Q 1113 3794 959 3422 
Q 806 3050 800 2363 
Q 1003 2672 1297 2822 
Q 1591 2972 1913 2972 
Q 2475 2972 2870 2558 
Q 3266 2144 3266 1488 
Q 3266 1056 3080 686 
Q 2894 316 2569 119 
Q 2244 -78 1831 -78 
Q 1128 -78 684 439 
Q 241 956 241 2144 
Q 241 3472 731 4075 
Q 1159 4600 1884 4600 
Q 2425 4600 2770 4297 
Q 3116 3994 3184 3459 
z
M 888 1484 
Q 888 1194 1011 928 
Q 1134 663 1356 523 
Q 1578 384 1822 384 
Q 2178 384 2434 671 
Q 2691 959 2691 1453 
Q 2691 1928 2437 2201 
Q 2184 2475 1800 2475 
Q 1419 2475 1153 2201 
Q 888 1928 888 1484 
z
" transform="scale(0.015625)"/>
     </defs>
     <use xlink:href="#ArialMT-30"/>
     <use xlink:href="#ArialMT-2e" x="55.615234"/>
     <use xlink:href="#ArialMT-36" x="83.398438"/>
     <use xlink:href="#ArialMT-35" x="139.013672"/>
    </g>
   </g>
   <g id="text_10">
    <!-- 0.74 -->
    <g transform="translate(358.190727 85.226555)scale(0.18 -0.18)">
     <use xlink:href="#ArialMT-30"/>
     <use xlink:href="#ArialMT-2e" x="55.615234"/>
     <use xlink:href="#ArialMT-37" x="83.398438"/>
     <use xlink:href="#ArialMT-34" x="139.013672"/>
    </g>
   </g>
   <g id="text_11">
    <!-- 0.82 -->
    <g transform="translate(412.909999 61.194231)scale(0.18 -0.18)">
     <defs>
      <path id="ArialMT-38" d="M 1131 2484 
Q 781 2613 612 2850 
Q 444 3088 444 3419 
Q 444 3919 803 4259 
Q 1163 4600 1759 4600 
Q 2359 4600 2725 4251 
Q 3091 3903 3091 3403 
Q 3091 3084 2923 2848 
Q 2756 2613 2416 2484 
Q 2838 2347 3058 2040 
Q 3278 1734 3278 1309 
Q 3278 722 2862 322 
Q 2447 -78 1769 -78 
Q 1091 -78 675 323 
Q 259 725 259 1325 
Q 259 1772 486 2073 
Q 713 2375 1131 2484 
z
M 1019 3438 
Q 1019 3113 1228 2906 
Q 1438 2700 1772 2700 
Q 2097 2700 2305 2904 
Q 2513 3109 2513 3406 
Q 2513 3716 2298 3927 
Q 2084 4138 1766 4138 
Q 1444 4138 1231 3931 
Q 1019 3725 1019 3438 
z
M 838 1322 
Q 838 1081 952 856 
Q 1066 631 1291 507 
Q 1516 384 1775 384 
Q 2178 384 2440 643 
Q 2703 903 2703 1303 
Q 2703 1709 2433 1975 
Q 2163 2241 1756 2241 
Q 1359 2241 1098 1978 
Q 838 1716 838 1322 
z
" transform="scale(0.015625)"/>
     </defs>
     <use xlink:href="#ArialMT-30"/>
     <use xlink:href="#ArialMT-2e" x="55.615234"/>
     <use xlink:href="#ArialMT-38" x="83.398438"/>
     <use xlink:href="#ArialMT-32" x="139.013672"/>
    </g>
   </g>
   <g id="text_12">
    <!-- C. elegans hermaphrodite -->
    <g transform="translate(160.520143 16.703437)scale(0.18 -0.18)">
     <defs>
      <path id="ArialMT-43" d="M 3763 1606 
L 4369 1453 
Q 4178 706 3683 314 
Q 3188 -78 2472 -78 
Q 1731 -78 1267 223 
Q 803 525 561 1097 
Q 319 1669 319 2325 
Q 319 3041 592 3573 
Q 866 4106 1370 4382 
Q 1875 4659 2481 4659 
Q 3169 4659 3637 4309 
Q 4106 3959 4291 3325 
L 3694 3184 
Q 3534 3684 3231 3912 
Q 2928 4141 2469 4141 
Q 1941 4141 1586 3887 
Q 1231 3634 1087 3207 
Q 944 2781 944 2328 
Q 944 1744 1114 1308 
Q 1284 872 1643 656 
Q 2003 441 2422 441 
Q 2931 441 3284 734 
Q 3638 1028 3763 1606 
z
" transform="scale(0.015625)"/>
      <path id="ArialMT-65" d="M 2694 1069 
L 3275 997 
Q 3138 488 2766 206 
Q 2394 -75 1816 -75 
Q 1088 -75 661 373 
Q 234 822 234 1631 
Q 234 2469 665 2931 
Q 1097 3394 1784 3394 
Q 2450 3394 2872 2941 
Q 3294 2488 3294 1666 
Q 3294 1616 3291 1516 
L 816 1516 
Q 847 969 1125 678 
Q 1403 388 1819 388 
Q 2128 388 2347 550 
Q 2566 713 2694 1069 
z
M 847 1978 
L 2700 1978 
Q 2663 2397 2488 2606 
Q 2219 2931 1791 2931 
Q 1403 2931 1139 2672 
Q 875 2413 847 1978 
z
" transform="scale(0.015625)"/>
      <path id="ArialMT-6c" d="M 409 0 
L 409 4581 
L 972 4581 
L 972 0 
L 409 0 
z
" transform="scale(0.015625)"/>
      <path id="ArialMT-73" d="M 197 991 
L 753 1078 
Q 800 744 1014 566 
Q 1228 388 1613 388 
Q 2000 388 2187 545 
Q 2375 703 2375 916 
Q 2375 1106 2209 1216 
Q 2094 1291 1634 1406 
Q 1016 1563 777 1677 
Q 538 1791 414 1992 
Q 291 2194 291 2438 
Q 291 2659 392 2848 
Q 494 3038 669 3163 
Q 800 3259 1026 3326 
Q 1253 3394 1513 3394 
Q 1903 3394 2198 3281 
Q 2494 3169 2634 2976 
Q 2775 2784 2828 2463 
L 2278 2388 
Q 2241 2644 2061 2787 
Q 1881 2931 1553 2931 
Q 1166 2931 1000 2803 
Q 834 2675 834 2503 
Q 834 2394 903 2306 
Q 972 2216 1119 2156 
Q 1203 2125 1616 2013 
Q 2213 1853 2448 1751 
Q 2684 1650 2818 1456 
Q 2953 1263 2953 975 
Q 2953 694 2789 445 
Q 2625 197 2315 61 
Q 2006 -75 1616 -75 
Q 969 -75 630 194 
Q 291 463 197 991 
z
" transform="scale(0.015625)"/>
      <path id="ArialMT-6d" d="M 422 0 
L 422 3319 
L 925 3319 
L 925 2853 
Q 1081 3097 1340 3245 
Q 1600 3394 1931 3394 
Q 2300 3394 2536 3241 
Q 2772 3088 2869 2813 
Q 3263 3394 3894 3394 
Q 4388 3394 4653 3120 
Q 4919 2847 4919 2278 
L 4919 0 
L 4359 0 
L 4359 2091 
Q 4359 2428 4304 2576 
Q 4250 2725 4106 2815 
Q 3963 2906 3769 2906 
Q 3419 2906 3187 2673 
Q 2956 2441 2956 1928 
L 2956 0 
L 2394 0 
L 2394 2156 
Q 2394 2531 2256 2718 
Q 2119 2906 1806 2906 
Q 1569 2906 1367 2781 
Q 1166 2656 1075 2415 
Q 984 2175 984 1722 
L 984 0 
L 422 0 
z
" transform="scale(0.015625)"/>
      <path id="ArialMT-70" d="M 422 -1272 
L 422 3319 
L 934 3319 
L 934 2888 
Q 1116 3141 1344 3267 
Q 1572 3394 1897 3394 
Q 2322 3394 2647 3175 
Q 2972 2956 3137 2557 
Q 3303 2159 3303 1684 
Q 3303 1175 3120 767 
Q 2938 359 2589 142 
Q 2241 -75 1856 -75 
Q 1575 -75 1351 44 
Q 1128 163 984 344 
L 984 -1272 
L 422 -1272 
z
M 931 1641 
Q 931 1000 1190 694 
Q 1450 388 1819 388 
Q 2194 388 2461 705 
Q 2728 1022 2728 1688 
Q 2728 2322 2467 2637 
Q 2206 2953 1844 2953 
Q 1484 2953 1207 2617 
Q 931 2281 931 1641 
z
" transform="scale(0.015625)"/>
      <path id="ArialMT-6f" d="M 213 1659 
Q 213 2581 725 3025 
Q 1153 3394 1769 3394 
Q 2453 3394 2887 2945 
Q 3322 2497 3322 1706 
Q 3322 1066 3130 698 
Q 2938 331 2570 128 
Q 2203 -75 1769 -75 
Q 1072 -75 642 372 
Q 213 819 213 1659 
z
M 791 1659 
Q 791 1022 1069 705 
Q 1347 388 1769 388 
Q 2188 388 2466 706 
Q 2744 1025 2744 1678 
Q 2744 2294 2464 2611 
Q 2184 2928 1769 2928 
Q 1347 2928 1069 2612 
Q 791 2297 791 1659 
z
" transform="scale(0.015625)"/>
      <path id="ArialMT-64" d="M 2575 0 
L 2575 419 
Q 2259 -75 1647 -75 
Q 1250 -75 917 144 
Q 584 363 401 755 
Q 219 1147 219 1656 
Q 219 2153 384 2558 
Q 550 2963 881 3178 
Q 1213 3394 1622 3394 
Q 1922 3394 2156 3267 
Q 2391 3141 2538 2938 
L 2538 4581 
L 3097 4581 
L 3097 0 
L 2575 0 
z
M 797 1656 
Q 797 1019 1065 703 
Q 1334 388 1700 388 
Q 2069 388 2326 689 
Q 2584 991 2584 1609 
Q 2584 2291 2321 2609 
Q 2059 2928 1675 2928 
Q 1300 2928 1048 2622 
Q 797 2316 797 1656 
z
" transform="scale(0.015625)"/>
     </defs>
     <use xlink:href="#ArialMT-43"/>
     <use xlink:href="#ArialMT-2e" x="72.216797"/>
     <use xlink:href="#ArialMT-20" x="100"/>
     <use xlink:href="#ArialMT-65" x="127.783203"/>
     <use xlink:href="#ArialMT-6c" x="183.398438"/>
     <use xlink:href="#ArialMT-65" x="205.615234"/>
     <use xlink:href="#ArialMT-67" x="261.230469"/>
     <use xlink:href="#ArialMT-61" x="316.845703"/>
     <use xlink:href="#ArialMT-6e" x="372.460938"/>
     <use xlink:href="#ArialMT-73" x="428.076172"/>
     <use xlink:href="#ArialMT-20" x="478.076172"/>
     <use xlink:href="#ArialMT-68" x="505.859375"/>
     <use xlink:href="#ArialMT-65" x="561.474609"/>
     <use xlink:href="#ArialMT-72" x="617.089844"/>
     <use xlink:href="#ArialMT-6d" x="650.390625"/>
     <use xlink:href="#ArialMT-61" x="733.691406"/>
     <use xlink:href="#ArialMT-70" x="789.306641"/>
     <use xlink:href="#ArialMT-68" x="844.921875"/>
     <use xlink:href="#ArialMT-72" x="900.537109"/>
     <use xlink:href="#ArialMT-6f" x="933.837891"/>
     <use xlink:href="#ArialMT-64" x="989.453125"/>
     <use xlink:href="#ArialMT-69" x="1045.068359"/>
     <use xlink:href="#ArialMT-74" x="1067.285156"/>
     <use xlink:href="#ArialMT-65" x="1095.068359"/>
    </g>
   </g>
   <g id="legend_1">
    <g id="patch_5">
     <path d="M 113.107344 107.294531 
L 203.49125 107.294531 
Q 206.79125 107.294531 206.79125 103.994531 
L 206.79125 34.253437 
Q 206.79125 30.953437 203.49125 30.953437 
L 113.107344 30.953437 
Q 109.807344 30.953437 109.807344 34.253437 
L 109.807344 103.994531 
Q 109.807344 107.294531 113.107344 107.294531 
z
" style="fill: #ffffff; opacity: 0.8; stroke: #cccccc; stroke-width: 1.5; stroke-linejoin: miter"/>
    </g>
    <g id="text_13">
     <!-- Method -->
     <g transform="translate(128.282891 50.4375)scale(0.18 -0.18)">
      <use xlink:href="#ArialMT-4d"/>
      <use xlink:href="#ArialMT-65" x="83.300781"/>
      <use xlink:href="#ArialMT-74" x="138.916016"/>
      <use xlink:href="#ArialMT-68" x="166.699219"/>
      <use xlink:href="#ArialMT-6f" x="222.314453"/>
      <use xlink:href="#ArialMT-64" x="277.929688"/>
     </g>
    </g>
    <g id="PathCollection_9">
     <defs>
      <path id="m36231def1b" d="M 0 3.872983 
C 1.027127 3.872983 2.012324 3.464901 2.738613 2.738613 
C 3.464901 2.012324 3.872983 1.027127 3.872983 0 
C 3.872983 -1.027127 3.464901 -2.012324 2.738613 -2.738613 
C 2.012324 -3.464901 1.027127 -3.872983 0 -3.872983 
C -1.027127 -3.872983 -2.012324 -3.464901 -2.738613 -2.738613 
C -3.464901 -2.012324 -3.872983 -1.027127 -3.872983 0 
C -3.872983 1.027127 -3.464901 2.012324 -2.738613 2.738613 
C -2.012324 3.464901 -1.027127 3.872983 0 3.872983 
z
" style="stroke: #0173b2; stroke-width: 1.5"/>
     </defs>
     <g>
      <use xlink:href="#m36231def1b" x="132.907344" y="69.744141" style="fill: #0173b2; stroke: #0173b2; stroke-width: 1.5"/>
     </g>
    </g>
    <g id="text_14">
     <!-- GM -->
     <g transform="translate(162.607344 74.075391)scale(0.165 -0.165)">
      <defs>
       <path id="ArialMT-47" d="M 2638 1797 
L 2638 2334 
L 4578 2338 
L 4578 638 
Q 4131 281 3656 101 
Q 3181 -78 2681 -78 
Q 2006 -78 1454 211 
Q 903 500 622 1047 
Q 341 1594 341 2269 
Q 341 2938 620 3517 
Q 900 4097 1425 4378 
Q 1950 4659 2634 4659 
Q 3131 4659 3532 4498 
Q 3934 4338 4162 4050 
Q 4391 3763 4509 3300 
L 3963 3150 
Q 3859 3500 3706 3700 
Q 3553 3900 3268 4020 
Q 2984 4141 2638 4141 
Q 2222 4141 1919 4014 
Q 1616 3888 1430 3681 
Q 1244 3475 1141 3228 
Q 966 2803 966 2306 
Q 966 1694 1177 1281 
Q 1388 869 1791 669 
Q 2194 469 2647 469 
Q 3041 469 3416 620 
Q 3791 772 3984 944 
L 3984 1797 
L 2638 1797 
z
" transform="scale(0.015625)"/>
      </defs>
      <use xlink:href="#ArialMT-47"/>
      <use xlink:href="#ArialMT-4d" x="77.783203"/>
     </g>
    </g>
    <g id="PathCollection_10">
     <defs>
      <path id="ma695f94f10" d="M 0 3.872983 
C 1.027127 3.872983 2.012324 3.464901 2.738613 2.738613 
C 3.464901 2.012324 3.872983 1.027127 3.872983 0 
C 3.872983 -1.027127 3.464901 -2.012324 2.738613 -2.738613 
C 2.012324 -3.464901 1.027127 -3.872983 0 -3.872983 
C -1.027127 -3.872983 -2.012324 -3.464901 -2.738613 -2.738613 
C -3.464901 -2.012324 -3.872983 -1.027127 -3.872983 0 
C -3.872983 1.027127 -3.464901 2.012324 -2.738613 2.738613 
C -2.012324 3.464901 -1.027127 3.872983 0 3.872983 
z
" style="stroke: #de8f05; stroke-width: 1.5"/>
     </defs>
     <g>
      <use xlink:href="#ma695f94f10" x="132.907344" y="93.083906" style="fill: #de8f05; stroke: #de8f05; stroke-width: 1.5"/>
     </g>
    </g>
    <g id="text_15">
     <!-- BGM -->
     <g transform="translate(162.607344 97.415156)scale(0.165 -0.165)">
      <defs>
       <path id="ArialMT-42" d="M 469 0 
L 469 4581 
L 2188 4581 
Q 2713 4581 3030 4442 
Q 3347 4303 3526 4014 
Q 3706 3725 3706 3409 
Q 3706 3116 3547 2856 
Q 3388 2597 3066 2438 
Q 3481 2316 3704 2022 
Q 3928 1728 3928 1328 
Q 3928 1006 3792 729 
Q 3656 453 3456 303 
Q 3256 153 2954 76 
Q 2653 0 2216 0 
L 469 0 
z
M 1075 2656 
L 2066 2656 
Q 2469 2656 2644 2709 
Q 2875 2778 2992 2937 
Q 3109 3097 3109 3338 
Q 3109 3566 3000 3739 
Q 2891 3913 2687 3977 
Q 2484 4041 1991 4041 
L 1075 4041 
L 1075 2656 
z
M 1075 541 
L 2216 541 
Q 2509 541 2628 563 
Q 2838 600 2978 687 
Q 3119 775 3209 942 
Q 3300 1109 3300 1328 
Q 3300 1584 3169 1773 
Q 3038 1963 2805 2039 
Q 2572 2116 2134 2116 
L 1075 2116 
L 1075 541 
z
" transform="scale(0.015625)"/>
      </defs>
      <use xlink:href="#ArialMT-42"/>
      <use xlink:href="#ArialMT-47" x="66.699219"/>
      <use xlink:href="#ArialMT-4d" x="144.482422"/>
     </g>
    </g>
   </g>
  </g>
  <g id="axes_2">
   <g id="patch_6">
    <path d="M 551.88933 335.700424 
L 876.921803 335.700424 
L 876.921803 22.703438 
L 551.88933 22.703438 
z
" style="fill: #ffffff"/>
   </g>
   <g id="matplotlib.axis_3"/>
   <g id="matplotlib.axis_4">
    <g id="ytick_5">
     <g id="line2d_11">
      <g>
       <use xlink:href="#m06ae612e92" x="551.88933" y="323.581012" style="stroke: #000000; stroke-width: 1.875"/>
      </g>
     </g>
     <g id="text_16">
      <!-- 0.0 -->
      <g transform="translate(520.45433 329.486207)scale(0.165 -0.165)">
       <use xlink:href="#ArialMT-30"/>
       <use xlink:href="#ArialMT-2e" x="55.615234"/>
       <use xlink:href="#ArialMT-30" x="83.398438"/>
      </g>
     </g>
    </g>
    <g id="ytick_6">
     <g id="line2d_12">
      <g>
       <use xlink:href="#m06ae612e92" x="551.88933" y="235.899701" style="stroke: #000000; stroke-width: 1.875"/>
      </g>
     </g>
     <g id="text_17">
      <!-- 0.2 -->
      <g transform="translate(520.45433 241.804897)scale(0.165 -0.165)">
       <use xlink:href="#ArialMT-30"/>
       <use xlink:href="#ArialMT-2e" x="55.615234"/>
       <use xlink:href="#ArialMT-32" x="83.398438"/>
      </g>
     </g>
    </g>
    <g id="ytick_7">
     <g id="line2d_13">
      <g>
       <use xlink:href="#m06ae612e92" x="551.88933" y="148.218391" style="stroke: #000000; stroke-width: 1.875"/>
      </g>
     </g>
     <g id="text_18">
      <!-- 0.4 -->
      <g transform="translate(520.45433 154.123586)scale(0.165 -0.165)">
       <use xlink:href="#ArialMT-30"/>
       <use xlink:href="#ArialMT-2e" x="55.615234"/>
       <use xlink:href="#ArialMT-34" x="83.398438"/>
      </g>
     </g>
    </g>
    <g id="ytick_8">
     <g id="line2d_14">
      <g>
       <use xlink:href="#m06ae612e92" x="551.88933" y="60.53708" style="stroke: #000000; stroke-width: 1.875"/>
      </g>
     </g>
     <g id="text_19">
      <!-- 0.6 -->
      <g transform="translate(520.45433 66.442275)scale(0.165 -0.165)">
       <use xlink:href="#ArialMT-30"/>
       <use xlink:href="#ArialMT-2e" x="55.615234"/>
       <use xlink:href="#ArialMT-36" x="83.398438"/>
      </g>
     </g>
    </g>
    <g id="text_20">
     <!-- Matching accuracy -->
     <g transform="translate(512.665893 254.229587)rotate(-90)scale(0.18 -0.18)">
      <use xlink:href="#ArialMT-4d"/>
      <use xlink:href="#ArialMT-61" x="83.300781"/>
      <use xlink:href="#ArialMT-74" x="138.916016"/>
      <use xlink:href="#ArialMT-63" x="166.699219"/>
      <use xlink:href="#ArialMT-68" x="216.699219"/>
      <use xlink:href="#ArialMT-69" x="272.314453"/>
      <use xlink:href="#ArialMT-6e" x="294.53125"/>
      <use xlink:href="#ArialMT-67" x="350.146484"/>
      <use xlink:href="#ArialMT-20" x="405.761719"/>
      <use xlink:href="#ArialMT-61" x="433.544922"/>
      <use xlink:href="#ArialMT-63" x="489.160156"/>
      <use xlink:href="#ArialMT-63" x="539.160156"/>
      <use xlink:href="#ArialMT-75" x="589.160156"/>
      <use xlink:href="#ArialMT-72" x="644.775391"/>
      <use xlink:href="#ArialMT-61" x="678.076172"/>
      <use xlink:href="#ArialMT-63" x="733.691406"/>
      <use xlink:href="#ArialMT-79" x="783.691406"/>
     </g>
    </g>
   </g>
   <g id="PathCollection_11"/>
   <g id="PathCollection_12"/>
   <g id="line2d_15">
    <path d="M 566.663534 308.826945 
L 588.551242 308.826945 
" clip-path="url(#pe5df258efa)" style="fill: none; stroke: #000000; stroke-width: 2.25; stroke-linecap: round"/>
   </g>
   <g id="line2d_16">
    <path d="M 621.382805 276.578771 
L 643.270514 276.578771 
" clip-path="url(#pe5df258efa)" style="fill: none; stroke: #000000; stroke-width: 2.25; stroke-linecap: round"/>
   </g>
   <g id="line2d_17">
    <path d="M 676.102077 153.066155 
L 697.989785 153.066155 
" clip-path="url(#pe5df258efa)" style="fill: none; stroke: #000000; stroke-width: 2.25; stroke-linecap: round"/>
   </g>
   <g id="line2d_18">
    <path d="M 730.821348 104.166963 
L 752.709057 104.166963 
" clip-path="url(#pe5df258efa)" style="fill: none; stroke: #000000; stroke-width: 2.25; stroke-linecap: round"/>
   </g>
   <g id="line2d_19">
    <path d="M 785.54062 131.778145 
L 807.428328 131.778145 
" clip-path="url(#pe5df258efa)" style="fill: none; stroke: #000000; stroke-width: 2.25; stroke-linecap: round"/>
   </g>
   <g id="line2d_20">
    <path d="M 840.259891 53.370819 
L 862.1476 53.370819 
" clip-path="url(#pe5df258efa)" style="fill: none; stroke: #000000; stroke-width: 2.25; stroke-linecap: round"/>
   </g>
   <g id="patch_7">
    <path d="M 551.88933 335.700424 
L 551.88933 22.703438 
" style="fill: none; stroke: #000000; stroke-width: 1.875; stroke-linejoin: miter; stroke-linecap: square"/>
   </g>
   <g id="patch_8">
    <path d="M 551.88933 335.700424 
L 876.921803 335.700424 
" style="fill: none; stroke: #000000; stroke-width: 1.875; stroke-linejoin: miter; stroke-linecap: square"/>
   </g>
   <g id="PathCollection_13">
    <defs>
     <path id="C6_0_72e4c26e7a" d="M 0 2.5 
C 0.663008 2.5 1.29895 2.236584 1.767767 1.767767 
C 2.236584 1.29895 2.5 0.663008 2.5 -0 
C 2.5 -0.663008 2.236584 -1.29895 1.767767 -1.767767 
C 1.29895 -2.236584 0.663008 -2.5 0 -2.5 
C -0.663008 -2.5 -1.29895 -2.236584 -1.767767 -1.767767 
C -2.236584 -1.29895 -2.5 -0.663008 -2.5 0 
C -2.5 0.663008 -2.236584 1.29895 -1.767767 1.767767 
C -1.29895 2.236584 -0.663008 2.5 0 2.5 
z
"/>
    </defs>
    <g clip-path="url(#pe5df258efa)">
     <use xlink:href="#C6_0_72e4c26e7a" x="567.400975" y="315.150117" style="fill: #0173b2"/>
    </g>
    <g clip-path="url(#pe5df258efa)">
     <use xlink:href="#C6_0_72e4c26e7a" x="581.411357" y="306.719222" style="fill: #0173b2"/>
    </g>
    <g clip-path="url(#pe5df258efa)">
     <use xlink:href="#C6_0_72e4c26e7a" x="586.213665" y="308.826945" style="fill: #0173b2"/>
    </g>
    <g clip-path="url(#pe5df258efa)">
     <use xlink:href="#C6_0_72e4c26e7a" x="569.521105" y="317.257841" style="fill: #0173b2"/>
    </g>
    <g clip-path="url(#pe5df258efa)">
     <use xlink:href="#C6_0_72e4c26e7a" x="580.613707" y="306.719222" style="fill: #0173b2"/>
    </g>
    <g clip-path="url(#pe5df258efa)">
     <use xlink:href="#C6_0_72e4c26e7a" x="582.261979" y="313.042393" style="fill: #0173b2"/>
    </g>
    <g clip-path="url(#pe5df258efa)">
     <use xlink:href="#C6_0_72e4c26e7a" x="579.466779" y="298.288326" style="fill: #0173b2"/>
    </g>
    <g clip-path="url(#pe5df258efa)">
     <use xlink:href="#C6_0_72e4c26e7a" x="586.274509" y="321.473288" style="fill: #0173b2"/>
    </g>
    <g clip-path="url(#pe5df258efa)">
     <use xlink:href="#C6_0_72e4c26e7a" x="576.152695" y="298.288326" style="fill: #0173b2"/>
    </g>
    <g clip-path="url(#pe5df258efa)">
     <use xlink:href="#C6_0_72e4c26e7a" x="586.633433" y="302.503774" style="fill: #0173b2"/>
    </g>
   </g>
   <g id="PathCollection_14">
    <defs>
     <path id="C7_0_82a1c538c1" d="M 0 2.5 
C 0.663008 2.5 1.29895 2.236584 1.767767 1.767767 
C 2.236584 1.29895 2.5 0.663008 2.5 -0 
C 2.5 -0.663008 2.236584 -1.29895 1.767767 -1.767767 
C 1.29895 -2.236584 0.663008 -2.5 0 -2.5 
C -0.663008 -2.5 -1.29895 -2.236584 -1.767767 -1.767767 
C -2.236584 -1.29895 -2.5 -0.663008 -2.5 0 
C -2.5 0.663008 -2.236584 1.29895 -1.767767 1.767767 
C -1.29895 2.236584 -0.663008 2.5 0 2.5 
z
"/>
    </defs>
    <g clip-path="url(#pe5df258efa)">
     <use xlink:href="#C7_0_82a1c538c1" x="641.850706" y="291.965155" style="fill: #de8f05"/>
    </g>
    <g clip-path="url(#pe5df258efa)">
     <use xlink:href="#C7_0_82a1c538c1" x="630.559437" y="268.780193" style="fill: #de8f05"/>
    </g>
    <g clip-path="url(#pe5df258efa)">
     <use xlink:href="#C7_0_82a1c538c1" x="627.183488" y="268.780193" style="fill: #de8f05"/>
    </g>
    <g clip-path="url(#pe5df258efa)">
     <use xlink:href="#C7_0_82a1c538c1" x="631.694894" y="268.780193" style="fill: #de8f05"/>
    </g>
    <g clip-path="url(#pe5df258efa)">
     <use xlink:href="#C7_0_82a1c538c1" x="638.339913" y="277.211088" style="fill: #de8f05"/>
    </g>
    <g clip-path="url(#pe5df258efa)">
     <use xlink:href="#C7_0_82a1c538c1" x="630.112496" y="275.103364" style="fill: #de8f05"/>
    </g>
    <g clip-path="url(#pe5df258efa)">
     <use xlink:href="#C7_0_82a1c538c1" x="641.519899" y="281.426536" style="fill: #de8f05"/>
    </g>
    <g clip-path="url(#pe5df258efa)">
     <use xlink:href="#C7_0_82a1c538c1" x="622.184915" y="272.995641" style="fill: #de8f05"/>
    </g>
    <g clip-path="url(#pe5df258efa)">
     <use xlink:href="#C7_0_82a1c538c1" x="631.292917" y="285.641983" style="fill: #de8f05"/>
    </g>
    <g clip-path="url(#pe5df258efa)">
     <use xlink:href="#C7_0_82a1c538c1" x="640.464368" y="275.103364" style="fill: #de8f05"/>
    </g>
   </g>
   <g id="PathCollection_15">
    <defs>
     <path id="C8_0_b579e61e53" d="M 0 2.5 
C 0.663008 2.5 1.29895 2.236584 1.767767 1.767767 
C 2.236584 1.29895 2.5 0.663008 2.5 -0 
C 2.5 -0.663008 2.236584 -1.29895 1.767767 -1.767767 
C 1.29895 -2.236584 0.663008 -2.5 0 -2.5 
C -0.663008 -2.5 -1.29895 -2.236584 -1.767767 -1.767767 
C -2.236584 -1.29895 -2.5 -0.663008 -2.5 0 
C -2.5 0.663008 -2.236584 1.29895 -1.767767 1.767767 
C -1.29895 2.236584 -0.663008 2.5 0 2.5 
z
"/>
    </defs>
    <g clip-path="url(#pe5df258efa)">
     <use xlink:href="#C8_0_b579e61e53" x="678.56857" y="150.747659" style="fill: #0173b2"/>
    </g>
    <g clip-path="url(#pe5df258efa)">
     <use xlink:href="#C8_0_b579e61e53" x="689.550499" y="148.639935" style="fill: #0173b2"/>
    </g>
    <g clip-path="url(#pe5df258efa)">
     <use xlink:href="#C8_0_b579e61e53" x="688.574499" y="127.562697" style="fill: #0173b2"/>
    </g>
    <g clip-path="url(#pe5df258efa)">
     <use xlink:href="#C8_0_b579e61e53" x="679.498554" y="161.286278" style="fill: #0173b2"/>
    </g>
    <g clip-path="url(#pe5df258efa)">
     <use xlink:href="#C8_0_b579e61e53" x="694.831407" y="171.824897" style="fill: #0173b2"/>
    </g>
    <g clip-path="url(#pe5df258efa)">
     <use xlink:href="#C8_0_b579e61e53" x="696.200253" y="152.855383" style="fill: #0173b2"/>
    </g>
    <g clip-path="url(#pe5df258efa)">
     <use xlink:href="#C8_0_b579e61e53" x="697.391318" y="154.963107" style="fill: #0173b2"/>
    </g>
    <g clip-path="url(#pe5df258efa)">
     <use xlink:href="#C8_0_b579e61e53" x="685.320556" y="138.101316" style="fill: #0173b2"/>
    </g>
    <g clip-path="url(#pe5df258efa)">
     <use xlink:href="#C8_0_b579e61e53" x="689.868621" y="167.60945" style="fill: #0173b2"/>
    </g>
    <g clip-path="url(#pe5df258efa)">
     <use xlink:href="#C8_0_b579e61e53" x="691.881929" y="157.070831" style="fill: #0173b2"/>
    </g>
   </g>
   <g id="PathCollection_16">
    <defs>
     <path id="C9_0_98b39ce2aa" d="M 0 2.5 
C 0.663008 2.5 1.29895 2.236584 1.767767 1.767767 
C 2.236584 1.29895 2.5 0.663008 2.5 -0 
C 2.5 -0.663008 2.236584 -1.29895 1.767767 -1.767767 
C 1.29895 -2.236584 0.663008 -2.5 0 -2.5 
C -0.663008 -2.5 -1.29895 -2.236584 -1.767767 -1.767767 
C -2.236584 -1.29895 -2.5 -0.663008 -2.5 0 
C -2.5 0.663008 -2.236584 1.29895 -1.767767 1.767767 
C -1.29895 2.236584 -0.663008 2.5 0 2.5 
z
"/>
    </defs>
    <g clip-path="url(#pe5df258efa)">
     <use xlink:href="#C9_0_98b39ce2aa" x="735.896676" y="91.731392" style="fill: #de8f05"/>
    </g>
    <g clip-path="url(#pe5df258efa)">
     <use xlink:href="#C9_0_98b39ce2aa" x="746.258937" y="104.377735" style="fill: #de8f05"/>
    </g>
    <g clip-path="url(#pe5df258efa)">
     <use xlink:href="#C9_0_98b39ce2aa" x="737.361911" y="106.485459" style="fill: #de8f05"/>
    </g>
    <g clip-path="url(#pe5df258efa)">
     <use xlink:href="#C9_0_98b39ce2aa" x="734.168449" y="102.270012" style="fill: #de8f05"/>
    </g>
    <g clip-path="url(#pe5df258efa)">
     <use xlink:href="#C9_0_98b39ce2aa" x="741.84384" y="106.485459" style="fill: #de8f05"/>
    </g>
    <g clip-path="url(#pe5df258efa)">
     <use xlink:href="#C9_0_98b39ce2aa" x="734.126471" y="108.593183" style="fill: #de8f05"/>
    </g>
    <g clip-path="url(#pe5df258efa)">
     <use xlink:href="#C9_0_98b39ce2aa" x="749.6695" y="106.485459" style="fill: #de8f05"/>
    </g>
    <g clip-path="url(#pe5df258efa)">
     <use xlink:href="#C9_0_98b39ce2aa" x="731.227744" y="108.593183" style="fill: #de8f05"/>
    </g>
    <g clip-path="url(#pe5df258efa)">
     <use xlink:href="#C9_0_98b39ce2aa" x="743.02262" y="102.270012" style="fill: #de8f05"/>
    </g>
    <g clip-path="url(#pe5df258efa)">
     <use xlink:href="#C9_0_98b39ce2aa" x="746.356024" y="104.377735" style="fill: #de8f05"/>
    </g>
   </g>
   <g id="PathCollection_17">
    <defs>
     <path id="Ca_0_5c2ad96c60" d="M 0 2.5 
C 0.663008 2.5 1.29895 2.236584 1.767767 1.767767 
C 2.236584 1.29895 2.5 0.663008 2.5 -0 
C 2.5 -0.663008 2.236584 -1.29895 1.767767 -1.767767 
C 1.29895 -2.236584 0.663008 -2.5 0 -2.5 
C -0.663008 -2.5 -1.29895 -2.236584 -1.767767 -1.767767 
C -2.236584 -1.29895 -2.5 -0.663008 -2.5 0 
C -2.5 0.663008 -2.236584 1.29895 -1.767767 1.767767 
C -1.29895 2.236584 -0.663008 2.5 0 2.5 
z
"/>
    </defs>
    <g clip-path="url(#pe5df258efa)">
     <use xlink:href="#Ca_0_5c2ad96c60" x="789.271822" y="119.131802" style="fill: #0173b2"/>
    </g>
    <g clip-path="url(#pe5df258efa)">
     <use xlink:href="#Ca_0_5c2ad96c60" x="805.922168" y="148.639935" style="fill: #0173b2"/>
    </g>
    <g clip-path="url(#pe5df258efa)">
     <use xlink:href="#Ca_0_5c2ad96c60" x="787.936907" y="133.885869" style="fill: #0173b2"/>
    </g>
    <g clip-path="url(#pe5df258efa)">
     <use xlink:href="#Ca_0_5c2ad96c60" x="793.54997" y="119.131802" style="fill: #0173b2"/>
    </g>
    <g clip-path="url(#pe5df258efa)">
     <use xlink:href="#Ca_0_5c2ad96c60" x="794.648948" y="135.993593" style="fill: #0173b2"/>
    </g>
    <g clip-path="url(#pe5df258efa)">
     <use xlink:href="#Ca_0_5c2ad96c60" x="805.824498" y="148.639935" style="fill: #0173b2"/>
    </g>
    <g clip-path="url(#pe5df258efa)">
     <use xlink:href="#Ca_0_5c2ad96c60" x="801.879861" y="135.993593" style="fill: #0173b2"/>
    </g>
    <g clip-path="url(#pe5df258efa)">
     <use xlink:href="#Ca_0_5c2ad96c60" x="792.386627" y="121.239526" style="fill: #0173b2"/>
    </g>
    <g clip-path="url(#pe5df258efa)">
     <use xlink:href="#Ca_0_5c2ad96c60" x="792.349317" y="133.885869" style="fill: #0173b2"/>
    </g>
    <g clip-path="url(#pe5df258efa)">
     <use xlink:href="#Ca_0_5c2ad96c60" x="794.215462" y="121.239526" style="fill: #0173b2"/>
    </g>
   </g>
   <g id="PathCollection_18">
    <defs>
     <path id="Cb_0_6233f5d14c" d="M 0 2.5 
C 0.663008 2.5 1.29895 2.236584 1.767767 1.767767 
C 2.236584 1.29895 2.5 0.663008 2.5 -0 
C 2.5 -0.663008 2.236584 -1.29895 1.767767 -1.767767 
C 1.29895 -2.236584 0.663008 -2.5 0 -2.5 
C -0.663008 -2.5 -1.29895 -2.236584 -1.767767 -1.767767 
C -2.236584 -1.29895 -2.5 -0.663008 -2.5 0 
C -2.5 0.663008 -2.236584 1.29895 -1.767767 1.767767 
C -1.29895 2.236584 -0.663008 2.5 0 2.5 
z
"/>
    </defs>
    <g clip-path="url(#pe5df258efa)">
     <use xlink:href="#Cb_0_6233f5d14c" x="845.199891" y="43.253745" style="fill: #de8f05"/>
    </g>
    <g clip-path="url(#pe5df258efa)">
     <use xlink:href="#Cb_0_6233f5d14c" x="857.24459" y="49.576916" style="fill: #de8f05"/>
    </g>
    <g clip-path="url(#pe5df258efa)">
     <use xlink:href="#Cb_0_6233f5d14c" x="848.6144" y="36.930573" style="fill: #de8f05"/>
    </g>
    <g clip-path="url(#pe5df258efa)">
     <use xlink:href="#Cb_0_6233f5d14c" x="845.907578" y="60.115535" style="fill: #de8f05"/>
    </g>
    <g clip-path="url(#pe5df258efa)">
     <use xlink:href="#Cb_0_6233f5d14c" x="852.042519" y="60.115535" style="fill: #de8f05"/>
    </g>
    <g clip-path="url(#pe5df258efa)">
     <use xlink:href="#Cb_0_6233f5d14c" x="848.307184" y="64.330983" style="fill: #de8f05"/>
    </g>
    <g clip-path="url(#pe5df258efa)">
     <use xlink:href="#Cb_0_6233f5d14c" x="852.511308" y="60.115535" style="fill: #de8f05"/>
    </g>
    <g clip-path="url(#pe5df258efa)">
     <use xlink:href="#Cb_0_6233f5d14c" x="852.474615" y="51.68464" style="fill: #de8f05"/>
    </g>
    <g clip-path="url(#pe5df258efa)">
     <use xlink:href="#Cb_0_6233f5d14c" x="855.633823" y="68.54643" style="fill: #de8f05"/>
    </g>
    <g clip-path="url(#pe5df258efa)">
     <use xlink:href="#Cb_0_6233f5d14c" x="843.607904" y="39.038297" style="fill: #de8f05"/>
    </g>
   </g>
   <g id="text_21">
    <!-- 0.03 -->
    <g transform="translate(589.645628 313.480227)scale(0.18 -0.18)">
     <defs>
      <path id="ArialMT-33" d="M 269 1209 
L 831 1284 
Q 928 806 1161 595 
Q 1394 384 1728 384 
Q 2125 384 2398 659 
Q 2672 934 2672 1341 
Q 2672 1728 2419 1979 
Q 2166 2231 1775 2231 
Q 1616 2231 1378 2169 
L 1441 2663 
Q 1497 2656 1531 2656 
Q 1891 2656 2178 2843 
Q 2466 3031 2466 3422 
Q 2466 3731 2256 3934 
Q 2047 4138 1716 4138 
Q 1388 4138 1169 3931 
Q 950 3725 888 3313 
L 325 3413 
Q 428 3978 793 4289 
Q 1159 4600 1703 4600 
Q 2078 4600 2393 4439 
Q 2709 4278 2876 4000 
Q 3044 3722 3044 3409 
Q 3044 3113 2884 2869 
Q 2725 2625 2413 2481 
Q 2819 2388 3044 2092 
Q 3269 1797 3269 1353 
Q 3269 753 2831 336 
Q 2394 -81 1725 -81 
Q 1122 -81 723 278 
Q 325 638 269 1209 
z
" transform="scale(0.015625)"/>
     </defs>
     <use xlink:href="#ArialMT-30"/>
     <use xlink:href="#ArialMT-2e" x="55.615234"/>
     <use xlink:href="#ArialMT-30" x="83.398438"/>
     <use xlink:href="#ArialMT-33" x="139.013672"/>
    </g>
   </g>
   <g id="text_22">
    <!-- 0.11 -->
    <g transform="translate(644.364899 281.232052)scale(0.18 -0.18)">
     <use xlink:href="#ArialMT-30"/>
     <use xlink:href="#ArialMT-2e" x="55.615234"/>
     <use xlink:href="#ArialMT-31" x="83.398438"/>
     <use xlink:href="#ArialMT-31" x="131.638672"/>
    </g>
   </g>
   <g id="text_23">
    <!-- 0.39 -->
    <g transform="translate(699.084171 157.719437)scale(0.18 -0.18)">
     <defs>
      <path id="ArialMT-39" d="M 350 1059 
L 891 1109 
Q 959 728 1153 556 
Q 1347 384 1650 384 
Q 1909 384 2104 503 
Q 2300 622 2425 820 
Q 2550 1019 2634 1356 
Q 2719 1694 2719 2044 
Q 2719 2081 2716 2156 
Q 2547 1888 2255 1720 
Q 1963 1553 1622 1553 
Q 1053 1553 659 1965 
Q 266 2378 266 3053 
Q 266 3750 677 4175 
Q 1088 4600 1706 4600 
Q 2153 4600 2523 4359 
Q 2894 4119 3086 3673 
Q 3278 3228 3278 2384 
Q 3278 1506 3087 986 
Q 2897 466 2520 194 
Q 2144 -78 1638 -78 
Q 1100 -78 759 220 
Q 419 519 350 1059 
z
M 2653 3081 
Q 2653 3566 2395 3850 
Q 2138 4134 1775 4134 
Q 1400 4134 1122 3828 
Q 844 3522 844 3034 
Q 844 2597 1108 2323 
Q 1372 2050 1759 2050 
Q 2150 2050 2401 2323 
Q 2653 2597 2653 3081 
z
" transform="scale(0.015625)"/>
     </defs>
     <use xlink:href="#ArialMT-30"/>
     <use xlink:href="#ArialMT-2e" x="55.615234"/>
     <use xlink:href="#ArialMT-33" x="83.398438"/>
     <use xlink:href="#ArialMT-39" x="139.013672"/>
    </g>
   </g>
   <g id="text_24">
    <!-- 0.50 -->
    <g transform="translate(753.803442 108.820244)scale(0.18 -0.18)">
     <use xlink:href="#ArialMT-30"/>
     <use xlink:href="#ArialMT-2e" x="55.615234"/>
     <use xlink:href="#ArialMT-35" x="83.398438"/>
     <use xlink:href="#ArialMT-30" x="139.013672"/>
    </g>
   </g>
   <g id="text_25">
    <!-- 0.44 -->
    <g transform="translate(808.522714 136.431426)scale(0.18 -0.18)">
     <use xlink:href="#ArialMT-30"/>
     <use xlink:href="#ArialMT-2e" x="55.615234"/>
     <use xlink:href="#ArialMT-34" x="83.398438"/>
     <use xlink:href="#ArialMT-34" x="139.013672"/>
    </g>
   </g>
   <g id="text_26">
    <!-- 0.62 -->
    <g transform="translate(863.241985 58.0241)scale(0.18 -0.18)">
     <use xlink:href="#ArialMT-30"/>
     <use xlink:href="#ArialMT-2e" x="55.615234"/>
     <use xlink:href="#ArialMT-36" x="83.398438"/>
     <use xlink:href="#ArialMT-32" x="139.013672"/>
    </g>
   </g>
   <g id="text_27">
    <!-- C. elegans male -->
    <g transform="translate(649.374942 16.703438)scale(0.18 -0.18)">
     <use xlink:href="#ArialMT-43"/>
     <use xlink:href="#ArialMT-2e" x="72.216797"/>
     <use xlink:href="#ArialMT-20" x="100"/>
     <use xlink:href="#ArialMT-65" x="127.783203"/>
     <use xlink:href="#ArialMT-6c" x="183.398438"/>
     <use xlink:href="#ArialMT-65" x="205.615234"/>
     <use xlink:href="#ArialMT-67" x="261.230469"/>
     <use xlink:href="#ArialMT-61" x="316.845703"/>
     <use xlink:href="#ArialMT-6e" x="372.460938"/>
     <use xlink:href="#ArialMT-73" x="428.076172"/>
     <use xlink:href="#ArialMT-20" x="478.076172"/>
     <use xlink:href="#ArialMT-6d" x="505.859375"/>
     <use xlink:href="#ArialMT-61" x="589.160156"/>
     <use xlink:href="#ArialMT-6c" x="644.775391"/>
     <use xlink:href="#ArialMT-65" x="666.992188"/>
    </g>
   </g>
  </g>
  <g id="axes_3">
   <g id="matplotlib.axis_5"/>
   <g id="matplotlib.axis_6">
    <g id="ytick_9">
     <g id="line2d_21"/>
     <g id="text_28">
      <!-- Contralateral -->
      <g transform="translate(3.6 420.566223)scale(0.165 -0.165)">
       <use xlink:href="#ArialMT-43"/>
       <use xlink:href="#ArialMT-6f" x="72.216797"/>
       <use xlink:href="#ArialMT-6e" x="127.832031"/>
       <use xlink:href="#ArialMT-74" x="183.447266"/>
       <use xlink:href="#ArialMT-72" x="211.230469"/>
       <use xlink:href="#ArialMT-61" x="244.53125"/>
       <use xlink:href="#ArialMT-6c" x="300.146484"/>
       <use xlink:href="#ArialMT-61" x="322.363281"/>
       <use xlink:href="#ArialMT-74" x="377.978516"/>
       <use xlink:href="#ArialMT-65" x="405.761719"/>
       <use xlink:href="#ArialMT-72" x="461.376953"/>
       <use xlink:href="#ArialMT-61" x="494.677734"/>
       <use xlink:href="#ArialMT-6c" x="550.292969"/>
      </g>
     </g>
    </g>
    <g id="ytick_10">
     <g id="line2d_22"/>
     <g id="text_29">
      <!-- Ipsilateral -->
      <g transform="translate(27.445078 399.225519)scale(0.165 -0.165)">
       <defs>
        <path id="ArialMT-49" d="M 597 0 
L 597 4581 
L 1203 4581 
L 1203 0 
L 597 0 
z
" transform="scale(0.015625)"/>
       </defs>
       <use xlink:href="#ArialMT-49"/>
       <use xlink:href="#ArialMT-70" x="27.783203"/>
       <use xlink:href="#ArialMT-73" x="83.398438"/>
       <use xlink:href="#ArialMT-69" x="133.398438"/>
       <use xlink:href="#ArialMT-6c" x="155.615234"/>
       <use xlink:href="#ArialMT-61" x="177.832031"/>
       <use xlink:href="#ArialMT-74" x="233.447266"/>
       <use xlink:href="#ArialMT-65" x="261.230469"/>
       <use xlink:href="#ArialMT-72" x="316.845703"/>
       <use xlink:href="#ArialMT-61" x="350.146484"/>
       <use xlink:href="#ArialMT-6c" x="405.761719"/>
      </g>
     </g>
    </g>
    <g id="ytick_11">
     <g id="line2d_23"/>
     <g id="text_30">
      <!-- Electrical -->
      <g transform="translate(31.124062 377.884816)scale(0.165 -0.165)">
       <defs>
        <path id="ArialMT-45" d="M 506 0 
L 506 4581 
L 3819 4581 
L 3819 4041 
L 1113 4041 
L 1113 2638 
L 3647 2638 
L 3647 2100 
L 1113 2100 
L 1113 541 
L 3925 541 
L 3925 0 
L 506 0 
z
" transform="scale(0.015625)"/>
       </defs>
       <use xlink:href="#ArialMT-45"/>
       <use xlink:href="#ArialMT-6c" x="66.699219"/>
       <use xlink:href="#ArialMT-65" x="88.916016"/>
       <use xlink:href="#ArialMT-63" x="144.53125"/>
       <use xlink:href="#ArialMT-74" x="194.53125"/>
       <use xlink:href="#ArialMT-72" x="222.314453"/>
       <use xlink:href="#ArialMT-69" x="255.615234"/>
       <use xlink:href="#ArialMT-63" x="277.832031"/>
       <use xlink:href="#ArialMT-61" x="327.832031"/>
       <use xlink:href="#ArialMT-6c" x="383.447266"/>
      </g>
     </g>
    </g>
    <g id="ytick_12">
     <g id="line2d_24"/>
     <g id="text_31">
      <!-- Chemical -->
      <g transform="translate(29.288438 356.544112)scale(0.165 -0.165)">
       <use xlink:href="#ArialMT-43"/>
       <use xlink:href="#ArialMT-68" x="72.216797"/>
       <use xlink:href="#ArialMT-65" x="127.832031"/>
       <use xlink:href="#ArialMT-6d" x="183.447266"/>
       <use xlink:href="#ArialMT-69" x="266.748047"/>
       <use xlink:href="#ArialMT-63" x="288.964844"/>
       <use xlink:href="#ArialMT-61" x="338.964844"/>
       <use xlink:href="#ArialMT-6c" x="394.580078"/>
      </g>
     </g>
    </g>
   </g>
   <g id="PathCollection_19">
    <defs>
     <path id="Cc_0_d76ae99426" d="M 0 7.071068 
C 1.875269 7.071068 3.673985 6.326016 5 5 
C 6.326016 3.673985 7.071068 1.875269 7.071068 -0 
C 7.071068 -1.875269 6.326016 -3.673985 5 -5 
C 3.673985 -6.326016 1.875269 -7.071068 0 -7.071068 
C -1.875269 -7.071068 -3.673985 -6.326016 -5 -5 
C -6.326016 -3.673985 -7.071068 -1.875269 -7.071068 0 
C -7.071068 1.875269 -6.326016 3.673985 -5 5 
C -3.673985 6.326016 -1.875269 7.071068 0 7.071068 
z
"/>
    </defs>
    <g clip-path="url(#pf048490399)">
     <use xlink:href="#Cc_0_d76ae99426" x="127.275401" y="414.661027" style="fill: #d3d3d3"/>
    </g>
    <g clip-path="url(#pf048490399)">
     <use xlink:href="#Cc_0_d76ae99426" x="127.275401" y="393.320324"/>
    </g>
    <g clip-path="url(#pf048490399)">
     <use xlink:href="#Cc_0_d76ae99426" x="127.275401" y="371.97962"/>
    </g>
    <g clip-path="url(#pf048490399)">
     <use xlink:href="#Cc_0_d76ae99426" x="127.275401" y="350.638917" style="fill: #d3d3d3"/>
    </g>
    <g clip-path="url(#pf048490399)">
     <use xlink:href="#Cc_0_d76ae99426" x="181.994673" y="414.661027"/>
    </g>
    <g clip-path="url(#pf048490399)">
     <use xlink:href="#Cc_0_d76ae99426" x="181.994673" y="393.320324"/>
    </g>
    <g clip-path="url(#pf048490399)">
     <use xlink:href="#Cc_0_d76ae99426" x="181.994673" y="371.97962"/>
    </g>
    <g clip-path="url(#pf048490399)">
     <use xlink:href="#Cc_0_d76ae99426" x="181.994673" y="350.638917" style="fill: #d3d3d3"/>
    </g>
    <g clip-path="url(#pf048490399)">
     <use xlink:href="#Cc_0_d76ae99426" x="236.713944" y="414.661027" style="fill: #d3d3d3"/>
    </g>
    <g clip-path="url(#pf048490399)">
     <use xlink:href="#Cc_0_d76ae99426" x="236.713944" y="393.320324"/>
    </g>
    <g clip-path="url(#pf048490399)">
     <use xlink:href="#Cc_0_d76ae99426" x="236.713944" y="371.97962" style="fill: #d3d3d3"/>
    </g>
    <g clip-path="url(#pf048490399)">
     <use xlink:href="#Cc_0_d76ae99426" x="236.713944" y="350.638917"/>
    </g>
    <g clip-path="url(#pf048490399)">
     <use xlink:href="#Cc_0_d76ae99426" x="291.433216" y="414.661027"/>
    </g>
    <g clip-path="url(#pf048490399)">
     <use xlink:href="#Cc_0_d76ae99426" x="291.433216" y="393.320324"/>
    </g>
    <g clip-path="url(#pf048490399)">
     <use xlink:href="#Cc_0_d76ae99426" x="291.433216" y="371.97962" style="fill: #d3d3d3"/>
    </g>
    <g clip-path="url(#pf048490399)">
     <use xlink:href="#Cc_0_d76ae99426" x="291.433216" y="350.638917"/>
    </g>
    <g clip-path="url(#pf048490399)">
     <use xlink:href="#Cc_0_d76ae99426" x="346.152487" y="414.661027" style="fill: #d3d3d3"/>
    </g>
    <g clip-path="url(#pf048490399)">
     <use xlink:href="#Cc_0_d76ae99426" x="346.152487" y="393.320324"/>
    </g>
    <g clip-path="url(#pf048490399)">
     <use xlink:href="#Cc_0_d76ae99426" x="346.152487" y="371.97962"/>
    </g>
    <g clip-path="url(#pf048490399)">
     <use xlink:href="#Cc_0_d76ae99426" x="346.152487" y="350.638917"/>
    </g>
    <g clip-path="url(#pf048490399)">
     <use xlink:href="#Cc_0_d76ae99426" x="400.871759" y="414.661027"/>
    </g>
    <g clip-path="url(#pf048490399)">
     <use xlink:href="#Cc_0_d76ae99426" x="400.871759" y="393.320324"/>
    </g>
    <g clip-path="url(#pf048490399)">
     <use xlink:href="#Cc_0_d76ae99426" x="400.871759" y="371.97962"/>
    </g>
    <g clip-path="url(#pf048490399)">
     <use xlink:href="#Cc_0_d76ae99426" x="400.871759" y="350.638917"/>
    </g>
   </g>
   <g id="LineCollection_1">
    <path d="M 127.275401 393.320324 
L 127.275401 371.97962 
" clip-path="url(#pf048490399)" style="fill: none; stroke: #000000; stroke-width: 3"/>
    <path d="M 181.994673 414.661027 
L 181.994673 371.97962 
" clip-path="url(#pf048490399)" style="fill: none; stroke: #000000; stroke-width: 3"/>
    <path d="M 236.713944 393.320324 
L 236.713944 350.638917 
" clip-path="url(#pf048490399)" style="fill: none; stroke: #000000; stroke-width: 3"/>
    <path d="M 291.433216 414.661027 
L 291.433216 350.638917 
" clip-path="url(#pf048490399)" style="fill: none; stroke: #000000; stroke-width: 3"/>
    <path d="M 346.152487 393.320324 
L 346.152487 350.638917 
" clip-path="url(#pf048490399)" style="fill: none; stroke: #000000; stroke-width: 3"/>
    <path d="M 400.871759 414.661027 
L 400.871759 350.638917 
" clip-path="url(#pf048490399)" style="fill: none; stroke: #000000; stroke-width: 3"/>
   </g>
  </g>
  <g id="axes_4">
   <g id="matplotlib.axis_7"/>
   <g id="matplotlib.axis_8">
    <g id="ytick_13">
     <g id="line2d_25"/>
     <g id="text_32">
      <!-- Contralateral -->
      <g transform="translate(453.931987 420.566223)scale(0.165 -0.165)">
       <use xlink:href="#ArialMT-43"/>
       <use xlink:href="#ArialMT-6f" x="72.216797"/>
       <use xlink:href="#ArialMT-6e" x="127.832031"/>
       <use xlink:href="#ArialMT-74" x="183.447266"/>
       <use xlink:href="#ArialMT-72" x="211.230469"/>
       <use xlink:href="#ArialMT-61" x="244.53125"/>
       <use xlink:href="#ArialMT-6c" x="300.146484"/>
       <use xlink:href="#ArialMT-61" x="322.363281"/>
       <use xlink:href="#ArialMT-74" x="377.978516"/>
       <use xlink:href="#ArialMT-65" x="405.761719"/>
       <use xlink:href="#ArialMT-72" x="461.376953"/>
       <use xlink:href="#ArialMT-61" x="494.677734"/>
       <use xlink:href="#ArialMT-6c" x="550.292969"/>
      </g>
     </g>
    </g>
    <g id="ytick_14">
     <g id="line2d_26"/>
     <g id="text_33">
      <!-- Ipsilateral -->
      <g transform="translate(477.777065 399.225519)scale(0.165 -0.165)">
       <use xlink:href="#ArialMT-49"/>
       <use xlink:href="#ArialMT-70" x="27.783203"/>
       <use xlink:href="#ArialMT-73" x="83.398438"/>
       <use xlink:href="#ArialMT-69" x="133.398438"/>
       <use xlink:href="#ArialMT-6c" x="155.615234"/>
       <use xlink:href="#ArialMT-61" x="177.832031"/>
       <use xlink:href="#ArialMT-74" x="233.447266"/>
       <use xlink:href="#ArialMT-65" x="261.230469"/>
       <use xlink:href="#ArialMT-72" x="316.845703"/>
       <use xlink:href="#ArialMT-61" x="350.146484"/>
       <use xlink:href="#ArialMT-6c" x="405.761719"/>
      </g>
     </g>
    </g>
    <g id="ytick_15">
     <g id="line2d_27"/>
     <g id="text_34">
      <!-- Electrical -->
      <g transform="translate(481.456049 377.884816)scale(0.165 -0.165)">
       <use xlink:href="#ArialMT-45"/>
       <use xlink:href="#ArialMT-6c" x="66.699219"/>
       <use xlink:href="#ArialMT-65" x="88.916016"/>
       <use xlink:href="#ArialMT-63" x="144.53125"/>
       <use xlink:href="#ArialMT-74" x="194.53125"/>
       <use xlink:href="#ArialMT-72" x="222.314453"/>
       <use xlink:href="#ArialMT-69" x="255.615234"/>
       <use xlink:href="#ArialMT-63" x="277.832031"/>
       <use xlink:href="#ArialMT-61" x="327.832031"/>
       <use xlink:href="#ArialMT-6c" x="383.447266"/>
      </g>
     </g>
    </g>
    <g id="ytick_16">
     <g id="line2d_28"/>
     <g id="text_35">
      <!-- Chemical -->
      <g transform="translate(479.620424 356.544112)scale(0.165 -0.165)">
       <use xlink:href="#ArialMT-43"/>
       <use xlink:href="#ArialMT-68" x="72.216797"/>
       <use xlink:href="#ArialMT-65" x="127.832031"/>
       <use xlink:href="#ArialMT-6d" x="183.447266"/>
       <use xlink:href="#ArialMT-69" x="266.748047"/>
       <use xlink:href="#ArialMT-63" x="288.964844"/>
       <use xlink:href="#ArialMT-61" x="338.964844"/>
       <use xlink:href="#ArialMT-6c" x="394.580078"/>
      </g>
     </g>
    </g>
   </g>
   <g id="PathCollection_20">
    <defs>
     <path id="Cd_0_2d16f39a40" d="M 0 7.071068 
C 1.875269 7.071068 3.673985 6.326016 5 5 
C 6.326016 3.673985 7.071068 1.875269 7.071068 -0 
C 7.071068 -1.875269 6.326016 -3.673985 5 -5 
C 3.673985 -6.326016 1.875269 -7.071068 0 -7.071068 
C -1.875269 -7.071068 -3.673985 -6.326016 -5 -5 
C -6.326016 -3.673985 -7.071068 -1.875269 -7.071068 0 
C -7.071068 1.875269 -6.326016 3.673985 -5 5 
C -3.673985 6.326016 -1.875269 7.071068 0 7.071068 
z
"/>
    </defs>
    <g clip-path="url(#pe3bab8b3f0)">
     <use xlink:href="#Cd_0_2d16f39a40" x="577.607388" y="414.661027" style="fill: #d3d3d3"/>
    </g>
    <g clip-path="url(#pe3bab8b3f0)">
     <use xlink:href="#Cd_0_2d16f39a40" x="577.607388" y="393.320324"/>
    </g>
    <g clip-path="url(#pe3bab8b3f0)">
     <use xlink:href="#Cd_0_2d16f39a40" x="577.607388" y="371.97962"/>
    </g>
    <g clip-path="url(#pe3bab8b3f0)">
     <use xlink:href="#Cd_0_2d16f39a40" x="577.607388" y="350.638917" style="fill: #d3d3d3"/>
    </g>
    <g clip-path="url(#pe3bab8b3f0)">
     <use xlink:href="#Cd_0_2d16f39a40" x="632.326659" y="414.661027"/>
    </g>
    <g clip-path="url(#pe3bab8b3f0)">
     <use xlink:href="#Cd_0_2d16f39a40" x="632.326659" y="393.320324"/>
    </g>
    <g clip-path="url(#pe3bab8b3f0)">
     <use xlink:href="#Cd_0_2d16f39a40" x="632.326659" y="371.97962"/>
    </g>
    <g clip-path="url(#pe3bab8b3f0)">
     <use xlink:href="#Cd_0_2d16f39a40" x="632.326659" y="350.638917" style="fill: #d3d3d3"/>
    </g>
    <g clip-path="url(#pe3bab8b3f0)">
     <use xlink:href="#Cd_0_2d16f39a40" x="687.045931" y="414.661027" style="fill: #d3d3d3"/>
    </g>
    <g clip-path="url(#pe3bab8b3f0)">
     <use xlink:href="#Cd_0_2d16f39a40" x="687.045931" y="393.320324"/>
    </g>
    <g clip-path="url(#pe3bab8b3f0)">
     <use xlink:href="#Cd_0_2d16f39a40" x="687.045931" y="371.97962" style="fill: #d3d3d3"/>
    </g>
    <g clip-path="url(#pe3bab8b3f0)">
     <use xlink:href="#Cd_0_2d16f39a40" x="687.045931" y="350.638917"/>
    </g>
    <g clip-path="url(#pe3bab8b3f0)">
     <use xlink:href="#Cd_0_2d16f39a40" x="741.765203" y="414.661027"/>
    </g>
    <g clip-path="url(#pe3bab8b3f0)">
     <use xlink:href="#Cd_0_2d16f39a40" x="741.765203" y="393.320324"/>
    </g>
    <g clip-path="url(#pe3bab8b3f0)">
     <use xlink:href="#Cd_0_2d16f39a40" x="741.765203" y="371.97962" style="fill: #d3d3d3"/>
    </g>
    <g clip-path="url(#pe3bab8b3f0)">
     <use xlink:href="#Cd_0_2d16f39a40" x="741.765203" y="350.638917"/>
    </g>
    <g clip-path="url(#pe3bab8b3f0)">
     <use xlink:href="#Cd_0_2d16f39a40" x="796.484474" y="414.661027" style="fill: #d3d3d3"/>
    </g>
    <g clip-path="url(#pe3bab8b3f0)">
     <use xlink:href="#Cd_0_2d16f39a40" x="796.484474" y="393.320324"/>
    </g>
    <g clip-path="url(#pe3bab8b3f0)">
     <use xlink:href="#Cd_0_2d16f39a40" x="796.484474" y="371.97962"/>
    </g>
    <g clip-path="url(#pe3bab8b3f0)">
     <use xlink:href="#Cd_0_2d16f39a40" x="796.484474" y="350.638917"/>
    </g>
    <g clip-path="url(#pe3bab8b3f0)">
     <use xlink:href="#Cd_0_2d16f39a40" x="851.203746" y="414.661027"/>
    </g>
    <g clip-path="url(#pe3bab8b3f0)">
     <use xlink:href="#Cd_0_2d16f39a40" x="851.203746" y="393.320324"/>
    </g>
    <g clip-path="url(#pe3bab8b3f0)">
     <use xlink:href="#Cd_0_2d16f39a40" x="851.203746" y="371.97962"/>
    </g>
    <g clip-path="url(#pe3bab8b3f0)">
     <use xlink:href="#Cd_0_2d16f39a40" x="851.203746" y="350.638917"/>
    </g>
   </g>
   <g id="LineCollection_2">
    <path d="M 577.607388 393.320324 
L 577.607388 371.97962 
" clip-path="url(#pe3bab8b3f0)" style="fill: none; stroke: #000000; stroke-width: 3"/>
    <path d="M 632.326659 414.661027 
L 632.326659 371.97962 
" clip-path="url(#pe3bab8b3f0)" style="fill: none; stroke: #000000; stroke-width: 3"/>
    <path d="M 687.045931 393.320324 
L 687.045931 350.638917 
" clip-path="url(#pe3bab8b3f0)" style="fill: none; stroke: #000000; stroke-width: 3"/>
    <path d="M 741.765203 414.661027 
L 741.765203 350.638917 
" clip-path="url(#pe3bab8b3f0)" style="fill: none; stroke: #000000; stroke-width: 3"/>
    <path d="M 796.484474 393.320324 
L 796.484474 350.638917 
" clip-path="url(#pe3bab8b3f0)" style="fill: none; stroke: #000000; stroke-width: 3"/>
    <path d="M 851.203746 414.661027 
L 851.203746 350.638917 
" clip-path="url(#pe3bab8b3f0)" style="fill: none; stroke: #000000; stroke-width: 3"/>
   </g>
  </g>
 </g>
 <defs>
  <clipPath id="pd35d8a1d2f">
   <rect x="101.557344" y="22.703437" width="325.032473" height="312.996987"/>
  </clipPath>
  <clipPath id="pe5df258efa">
   <rect x="551.88933" y="22.703438" width="325.032473" height="312.996987"/>
  </clipPath>
  <clipPath id="pf048490399">
   <rect x="101.557344" y="335.700424" width="325.032473" height="93.899096"/>
  </clipPath>
  <clipPath id="pe3bab8b3f0">
   <rect x="551.88933" y="335.700424" width="325.032473" height="93.899096"/>
  </clipPath>
 </defs>
</svg>
