<?xml version="1.0" encoding="utf-8" standalone="no"?>
<!DOCTYPE svg PUBLIC "-//W3C//DTD SVG 1.1//EN"
  "http://www.w3.org/Graphics/SVG/1.1/DTD/svg11.dtd">
<svg xmlns:xlink="http://www.w3.org/1999/xlink" width="1081.19952pt" height="361.19952pt" viewBox="0 0 1081.19952 361.19952" xmlns="http://www.w3.org/2000/svg" version="1.1">
 <metadata>
  <rdf:RDF xmlns:dc="http://purl.org/dc/elements/1.1/" xmlns:cc="http://creativecommons.org/ns#" xmlns:rdf="http://www.w3.org/1999/02/22-rdf-syntax-ns#">
   <cc:Work>
    <dc:type rdf:resource="http://purl.org/dc/dcmitype/StillImage"/>
    <dc:date>2022-08-11T12:21:03.203801</dc:date>
    <dc:format>image/svg+xml</dc:format>
    <dc:creator>
     <cc:Agent>
      <dc:title>Matplotlib v3.5.2, https://matplotlib.org/</dc:title>
     </cc:Agent>
    </dc:creator>
   </cc:Work>
  </rdf:RDF>
 </metadata>
 <defs>
  <style type="text/css">*{stroke-linejoin: round; stroke-linecap: butt}</style>
 </defs>
 <g id="figure_1">
  <g id="patch_1">
   <path d="M 0 361.19952 
L 1081.19952 361.19952 
L 1081.19952 -0 
L 0 -0 
z
" style="fill: #ffffff"/>
  </g>
  <g id="axes_1">
   <g id="patch_2">
    <path d="M 65.609375 305.66036 
L 394.80609 305.66036 
L 394.80609 25.705078 
L 65.609375 25.705078 
z
" style="fill: #ffffff"/>
   </g>
   <g id="matplotlib.axis_1">
    <g id="xtick_1">
     <g id="line2d_1">
      <defs>
       <path id="m4a7f3d3c7b" d="M 0 0 
L 0 5 
" style="stroke: #000000; stroke-width: 1.875"/>
      </defs>
      <g>
       <use xlink:href="#m4a7f3d3c7b" x="76.164633" y="305.66036" style="stroke: #000000; stroke-width: 1.875"/>
      </g>
     </g>
     <g id="text_1">
      <!-- 0 -->
      <g transform="translate(70.429917 328.923348)scale(0.20625 -0.20625)">
       <defs>
        <path id="ArialMT-30" d="M 266 2259 
Q 266 3072 433 3567 
Q 600 4063 929 4331 
Q 1259 4600 1759 4600 
Q 2128 4600 2406 4451 
Q 2684 4303 2865 4023 
Q 3047 3744 3150 3342 
Q 3253 2941 3253 2259 
Q 3253 1453 3087 958 
Q 2922 463 2592 192 
Q 2263 -78 1759 -78 
Q 1097 -78 719 397 
Q 266 969 266 2259 
z
M 844 2259 
Q 844 1131 1108 757 
Q 1372 384 1759 384 
Q 2147 384 2411 759 
Q 2675 1134 2675 2259 
Q 2675 3391 2411 3762 
Q 2147 4134 1753 4134 
Q 1366 4134 1134 3806 
Q 844 3388 844 2259 
z
" transform="scale(0.015625)"/>
       </defs>
       <use xlink:href="#ArialMT-30"/>
      </g>
     </g>
    </g>
    <g id="xtick_2">
     <g id="line2d_2">
      <g>
       <use xlink:href="#m4a7f3d3c7b" x="174.125269" y="305.66036" style="stroke: #000000; stroke-width: 1.875"/>
      </g>
     </g>
     <g id="text_2">
      <!-- 200 -->
      <g transform="translate(156.921118 328.923348)scale(0.20625 -0.20625)">
       <defs>
        <path id="ArialMT-32" d="M 3222 541 
L 3222 0 
L 194 0 
Q 188 203 259 391 
Q 375 700 629 1000 
Q 884 1300 1366 1694 
Q 2113 2306 2375 2664 
Q 2638 3022 2638 3341 
Q 2638 3675 2398 3904 
Q 2159 4134 1775 4134 
Q 1369 4134 1125 3890 
Q 881 3647 878 3216 
L 300 3275 
Q 359 3922 746 4261 
Q 1134 4600 1788 4600 
Q 2447 4600 2831 4234 
Q 3216 3869 3216 3328 
Q 3216 3053 3103 2787 
Q 2991 2522 2730 2228 
Q 2469 1934 1863 1422 
Q 1356 997 1212 845 
Q 1069 694 975 541 
L 3222 541 
z
" transform="scale(0.015625)"/>
       </defs>
       <use xlink:href="#ArialMT-32"/>
       <use xlink:href="#ArialMT-30" x="55.615234"/>
       <use xlink:href="#ArialMT-30" x="111.230469"/>
      </g>
     </g>
    </g>
    <g id="xtick_3">
     <g id="line2d_3">
      <g>
       <use xlink:href="#m4a7f3d3c7b" x="272.085904" y="305.66036" style="stroke: #000000; stroke-width: 1.875"/>
      </g>
     </g>
     <g id="text_3">
      <!-- 400 -->
      <g transform="translate(254.881754 328.923348)scale(0.20625 -0.20625)">
       <defs>
        <path id="ArialMT-34" d="M 2069 0 
L 2069 1097 
L 81 1097 
L 81 1613 
L 2172 4581 
L 2631 4581 
L 2631 1613 
L 3250 1613 
L 3250 1097 
L 2631 1097 
L 2631 0 
L 2069 0 
z
M 2069 1613 
L 2069 3678 
L 634 1613 
L 2069 1613 
z
" transform="scale(0.015625)"/>
       </defs>
       <use xlink:href="#ArialMT-34"/>
       <use xlink:href="#ArialMT-30" x="55.615234"/>
       <use xlink:href="#ArialMT-30" x="111.230469"/>
      </g>
     </g>
    </g>
    <g id="xtick_4">
     <g id="line2d_4">
      <g>
       <use xlink:href="#m4a7f3d3c7b" x="370.046539" y="305.66036" style="stroke: #000000; stroke-width: 1.875"/>
      </g>
     </g>
     <g id="text_4">
      <!-- 600 -->
      <g transform="translate(352.842389 328.923348)scale(0.20625 -0.20625)">
       <defs>
        <path id="ArialMT-36" d="M 3184 3459 
L 2625 3416 
Q 2550 3747 2413 3897 
Q 2184 4138 1850 4138 
Q 1581 4138 1378 3988 
Q 1113 3794 959 3422 
Q 806 3050 800 2363 
Q 1003 2672 1297 2822 
Q 1591 2972 1913 2972 
Q 2475 2972 2870 2558 
Q 3266 2144 3266 1488 
Q 3266 1056 3080 686 
Q 2894 316 2569 119 
Q 2244 -78 1831 -78 
Q 1128 -78 684 439 
Q 241 956 241 2144 
Q 241 3472 731 4075 
Q 1159 4600 1884 4600 
Q 2425 4600 2770 4297 
Q 3116 3994 3184 3459 
z
M 888 1484 
Q 888 1194 1011 928 
Q 1134 663 1356 523 
Q 1578 384 1822 384 
Q 2178 384 2434 671 
Q 2691 959 2691 1453 
Q 2691 1928 2437 2201 
Q 2184 2475 1800 2475 
Q 1419 2475 1153 2201 
Q 888 1928 888 1484 
z
" transform="scale(0.015625)"/>
       </defs>
       <use xlink:href="#ArialMT-36"/>
       <use xlink:href="#ArialMT-30" x="55.615234"/>
       <use xlink:href="#ArialMT-30" x="111.230469"/>
      </g>
     </g>
    </g>
    <g id="text_5">
     <!-- Nodes per side -->
     <g transform="translate(154.544451 353.127645)scale(0.225 -0.225)">
      <defs>
       <path id="ArialMT-4e" d="M 488 0 
L 488 4581 
L 1109 4581 
L 3516 984 
L 3516 4581 
L 4097 4581 
L 4097 0 
L 3475 0 
L 1069 3600 
L 1069 0 
L 488 0 
z
" transform="scale(0.015625)"/>
       <path id="ArialMT-6f" d="M 213 1659 
Q 213 2581 725 3025 
Q 1153 3394 1769 3394 
Q 2453 3394 2887 2945 
Q 3322 2497 3322 1706 
Q 3322 1066 3130 698 
Q 2938 331 2570 128 
Q 2203 -75 1769 -75 
Q 1072 -75 642 372 
Q 213 819 213 1659 
z
M 791 1659 
Q 791 1022 1069 705 
Q 1347 388 1769 388 
Q 2188 388 2466 706 
Q 2744 1025 2744 1678 
Q 2744 2294 2464 2611 
Q 2184 2928 1769 2928 
Q 1347 2928 1069 2612 
Q 791 2297 791 1659 
z
" transform="scale(0.015625)"/>
       <path id="ArialMT-64" d="M 2575 0 
L 2575 419 
Q 2259 -75 1647 -75 
Q 1250 -75 917 144 
Q 584 363 401 755 
Q 219 1147 219 1656 
Q 219 2153 384 2558 
Q 550 2963 881 3178 
Q 1213 3394 1622 3394 
Q 1922 3394 2156 3267 
Q 2391 3141 2538 2938 
L 2538 4581 
L 3097 4581 
L 3097 0 
L 2575 0 
z
M 797 1656 
Q 797 1019 1065 703 
Q 1334 388 1700 388 
Q 2069 388 2326 689 
Q 2584 991 2584 1609 
Q 2584 2291 2321 2609 
Q 2059 2928 1675 2928 
Q 1300 2928 1048 2622 
Q 797 2316 797 1656 
z
" transform="scale(0.015625)"/>
       <path id="ArialMT-65" d="M 2694 1069 
L 3275 997 
Q 3138 488 2766 206 
Q 2394 -75 1816 -75 
Q 1088 -75 661 373 
Q 234 822 234 1631 
Q 234 2469 665 2931 
Q 1097 3394 1784 3394 
Q 2450 3394 2872 2941 
Q 3294 2488 3294 1666 
Q 3294 1616 3291 1516 
L 816 1516 
Q 847 969 1125 678 
Q 1403 388 1819 388 
Q 2128 388 2347 550 
Q 2566 713 2694 1069 
z
M 847 1978 
L 2700 1978 
Q 2663 2397 2488 2606 
Q 2219 2931 1791 2931 
Q 1403 2931 1139 2672 
Q 875 2413 847 1978 
z
" transform="scale(0.015625)"/>
       <path id="ArialMT-73" d="M 197 991 
L 753 1078 
Q 800 744 1014 566 
Q 1228 388 1613 388 
Q 2000 388 2187 545 
Q 2375 703 2375 916 
Q 2375 1106 2209 1216 
Q 2094 1291 1634 1406 
Q 1016 1563 777 1677 
Q 538 1791 414 1992 
Q 291 2194 291 2438 
Q 291 2659 392 2848 
Q 494 3038 669 3163 
Q 800 3259 1026 3326 
Q 1253 3394 1513 3394 
Q 1903 3394 2198 3281 
Q 2494 3169 2634 2976 
Q 2775 2784 2828 2463 
L 2278 2388 
Q 2241 2644 2061 2787 
Q 1881 2931 1553 2931 
Q 1166 2931 1000 2803 
Q 834 2675 834 2503 
Q 834 2394 903 2306 
Q 972 2216 1119 2156 
Q 1203 2125 1616 2013 
Q 2213 1853 2448 1751 
Q 2684 1650 2818 1456 
Q 2953 1263 2953 975 
Q 2953 694 2789 445 
Q 2625 197 2315 61 
Q 2006 -75 1616 -75 
Q 969 -75 630 194 
Q 291 463 197 991 
z
" transform="scale(0.015625)"/>
       <path id="ArialMT-20" transform="scale(0.015625)"/>
       <path id="ArialMT-70" d="M 422 -1272 
L 422 3319 
L 934 3319 
L 934 2888 
Q 1116 3141 1344 3267 
Q 1572 3394 1897 3394 
Q 2322 3394 2647 3175 
Q 2972 2956 3137 2557 
Q 3303 2159 3303 1684 
Q 3303 1175 3120 767 
Q 2938 359 2589 142 
Q 2241 -75 1856 -75 
Q 1575 -75 1351 44 
Q 1128 163 984 344 
L 984 -1272 
L 422 -1272 
z
M 931 1641 
Q 931 1000 1190 694 
Q 1450 388 1819 388 
Q 2194 388 2461 705 
Q 2728 1022 2728 1688 
Q 2728 2322 2467 2637 
Q 2206 2953 1844 2953 
Q 1484 2953 1207 2617 
Q 931 2281 931 1641 
z
" transform="scale(0.015625)"/>
       <path id="ArialMT-72" d="M 416 0 
L 416 3319 
L 922 3319 
L 922 2816 
Q 1116 3169 1280 3281 
Q 1444 3394 1641 3394 
Q 1925 3394 2219 3213 
L 2025 2691 
Q 1819 2813 1613 2813 
Q 1428 2813 1281 2702 
Q 1134 2591 1072 2394 
Q 978 2094 978 1738 
L 978 0 
L 416 0 
z
" transform="scale(0.015625)"/>
       <path id="ArialMT-69" d="M 425 3934 
L 425 4581 
L 988 4581 
L 988 3934 
L 425 3934 
z
M 425 0 
L 425 3319 
L 988 3319 
L 988 0 
L 425 0 
z
" transform="scale(0.015625)"/>
      </defs>
      <use xlink:href="#ArialMT-4e"/>
      <use xlink:href="#ArialMT-6f" x="72.216797"/>
      <use xlink:href="#ArialMT-64" x="127.832031"/>
      <use xlink:href="#ArialMT-65" x="183.447266"/>
      <use xlink:href="#ArialMT-73" x="239.0625"/>
      <use xlink:href="#ArialMT-20" x="289.0625"/>
      <use xlink:href="#ArialMT-70" x="316.845703"/>
      <use xlink:href="#ArialMT-65" x="372.460938"/>
      <use xlink:href="#ArialMT-72" x="428.076172"/>
      <use xlink:href="#ArialMT-20" x="461.376953"/>
      <use xlink:href="#ArialMT-73" x="489.160156"/>
      <use xlink:href="#ArialMT-69" x="539.160156"/>
      <use xlink:href="#ArialMT-64" x="561.376953"/>
      <use xlink:href="#ArialMT-65" x="616.992188"/>
     </g>
    </g>
   </g>
   <g id="matplotlib.axis_2">
    <g id="ytick_1">
     <g id="line2d_5">
      <defs>
       <path id="m3ae676a4d1" d="M 0 0 
L -5 0 
" style="stroke: #000000; stroke-width: 1.875"/>
      </defs>
      <g>
       <use xlink:href="#m3ae676a4d1" x="65.609375" y="294.795186" style="stroke: #000000; stroke-width: 1.875"/>
      </g>
     </g>
     <g id="text_6">
      <!-- 0.0 -->
      <g transform="translate(28.440625 302.176681)scale(0.20625 -0.20625)">
       <defs>
        <path id="ArialMT-2e" d="M 581 0 
L 581 641 
L 1222 641 
L 1222 0 
L 581 0 
z
" transform="scale(0.015625)"/>
       </defs>
       <use xlink:href="#ArialMT-30"/>
       <use xlink:href="#ArialMT-2e" x="55.615234"/>
       <use xlink:href="#ArialMT-30" x="83.398438"/>
      </g>
     </g>
    </g>
    <g id="ytick_2">
     <g id="line2d_6">
      <g>
       <use xlink:href="#m3ae676a4d1" x="65.609375" y="243.522213" style="stroke: #000000; stroke-width: 1.875"/>
      </g>
     </g>
     <g id="text_7">
      <!-- 0.2 -->
      <g transform="translate(28.440625 250.903707)scale(0.20625 -0.20625)">
       <use xlink:href="#ArialMT-30"/>
       <use xlink:href="#ArialMT-2e" x="55.615234"/>
       <use xlink:href="#ArialMT-32" x="83.398438"/>
      </g>
     </g>
    </g>
    <g id="ytick_3">
     <g id="line2d_7">
      <g>
       <use xlink:href="#m3ae676a4d1" x="65.609375" y="192.249239" style="stroke: #000000; stroke-width: 1.875"/>
      </g>
     </g>
     <g id="text_8">
      <!-- 0.4 -->
      <g transform="translate(28.440625 199.630733)scale(0.20625 -0.20625)">
       <use xlink:href="#ArialMT-30"/>
       <use xlink:href="#ArialMT-2e" x="55.615234"/>
       <use xlink:href="#ArialMT-34" x="83.398438"/>
      </g>
     </g>
    </g>
    <g id="ytick_4">
     <g id="line2d_8">
      <g>
       <use xlink:href="#m3ae676a4d1" x="65.609375" y="140.976265" style="stroke: #000000; stroke-width: 1.875"/>
      </g>
     </g>
     <g id="text_9">
      <!-- 0.6 -->
      <g transform="translate(28.440625 148.35776)scale(0.20625 -0.20625)">
       <use xlink:href="#ArialMT-30"/>
       <use xlink:href="#ArialMT-2e" x="55.615234"/>
       <use xlink:href="#ArialMT-36" x="83.398438"/>
      </g>
     </g>
    </g>
    <g id="ytick_5">
     <g id="line2d_9">
      <g>
       <use xlink:href="#m3ae676a4d1" x="65.609375" y="89.703292" style="stroke: #000000; stroke-width: 1.875"/>
      </g>
     </g>
     <g id="text_10">
      <!-- 0.8 -->
      <g transform="translate(28.440625 97.084786)scale(0.20625 -0.20625)">
       <defs>
        <path id="ArialMT-38" d="M 1131 2484 
Q 781 2613 612 2850 
Q 444 3088 444 3419 
Q 444 3919 803 4259 
Q 1163 4600 1759 4600 
Q 2359 4600 2725 4251 
Q 3091 3903 3091 3403 
Q 3091 3084 2923 2848 
Q 2756 2613 2416 2484 
Q 2838 2347 3058 2040 
Q 3278 1734 3278 1309 
Q 3278 722 2862 322 
Q 2447 -78 1769 -78 
Q 1091 -78 675 323 
Q 259 725 259 1325 
Q 259 1772 486 2073 
Q 713 2375 1131 2484 
z
M 1019 3438 
Q 1019 3113 1228 2906 
Q 1438 2700 1772 2700 
Q 2097 2700 2305 2904 
Q 2513 3109 2513 3406 
Q 2513 3716 2298 3927 
Q 2084 4138 1766 4138 
Q 1444 4138 1231 3931 
Q 1019 3725 1019 3438 
z
M 838 1322 
Q 838 1081 952 856 
Q 1066 631 1291 507 
Q 1516 384 1775 384 
Q 2178 384 2440 643 
Q 2703 903 2703 1303 
Q 2703 1709 2433 1975 
Q 2163 2241 1756 2241 
Q 1359 2241 1098 1978 
Q 838 1716 838 1322 
z
" transform="scale(0.015625)"/>
       </defs>
       <use xlink:href="#ArialMT-30"/>
       <use xlink:href="#ArialMT-2e" x="55.615234"/>
       <use xlink:href="#ArialMT-38" x="83.398438"/>
      </g>
     </g>
    </g>
    <g id="ytick_6">
     <g id="line2d_10">
      <g>
       <use xlink:href="#m3ae676a4d1" x="65.609375" y="38.430318" style="stroke: #000000; stroke-width: 1.875"/>
      </g>
     </g>
     <g id="text_11">
      <!-- 1.0 -->
      <g transform="translate(28.440625 45.811812)scale(0.20625 -0.20625)">
       <defs>
        <path id="ArialMT-31" d="M 2384 0 
L 1822 0 
L 1822 3584 
Q 1619 3391 1289 3197 
Q 959 3003 697 2906 
L 697 3450 
Q 1169 3672 1522 3987 
Q 1875 4303 2022 4600 
L 2384 4600 
L 2384 0 
z
" transform="scale(0.015625)"/>
       </defs>
       <use xlink:href="#ArialMT-31"/>
       <use xlink:href="#ArialMT-2e" x="55.615234"/>
       <use xlink:href="#ArialMT-30" x="83.398438"/>
      </g>
     </g>
    </g>
    <g id="text_12">
     <!-- Matching accuracy -->
     <g transform="translate(19.705078 259.467289)rotate(-90)scale(0.225 -0.225)">
      <defs>
       <path id="ArialMT-4d" d="M 475 0 
L 475 4581 
L 1388 4581 
L 2472 1338 
Q 2622 884 2691 659 
Q 2769 909 2934 1394 
L 4031 4581 
L 4847 4581 
L 4847 0 
L 4263 0 
L 4263 3834 
L 2931 0 
L 2384 0 
L 1059 3900 
L 1059 0 
L 475 0 
z
" transform="scale(0.015625)"/>
       <path id="ArialMT-61" d="M 2588 409 
Q 2275 144 1986 34 
Q 1697 -75 1366 -75 
Q 819 -75 525 192 
Q 231 459 231 875 
Q 231 1119 342 1320 
Q 453 1522 633 1644 
Q 813 1766 1038 1828 
Q 1203 1872 1538 1913 
Q 2219 1994 2541 2106 
Q 2544 2222 2544 2253 
Q 2544 2597 2384 2738 
Q 2169 2928 1744 2928 
Q 1347 2928 1158 2789 
Q 969 2650 878 2297 
L 328 2372 
Q 403 2725 575 2942 
Q 747 3159 1072 3276 
Q 1397 3394 1825 3394 
Q 2250 3394 2515 3294 
Q 2781 3194 2906 3042 
Q 3031 2891 3081 2659 
Q 3109 2516 3109 2141 
L 3109 1391 
Q 3109 606 3145 398 
Q 3181 191 3288 0 
L 2700 0 
Q 2613 175 2588 409 
z
M 2541 1666 
Q 2234 1541 1622 1453 
Q 1275 1403 1131 1340 
Q 988 1278 909 1158 
Q 831 1038 831 891 
Q 831 666 1001 516 
Q 1172 366 1500 366 
Q 1825 366 2078 508 
Q 2331 650 2450 897 
Q 2541 1088 2541 1459 
L 2541 1666 
z
" transform="scale(0.015625)"/>
       <path id="ArialMT-74" d="M 1650 503 
L 1731 6 
Q 1494 -44 1306 -44 
Q 1000 -44 831 53 
Q 663 150 594 308 
Q 525 466 525 972 
L 525 2881 
L 113 2881 
L 113 3319 
L 525 3319 
L 525 4141 
L 1084 4478 
L 1084 3319 
L 1650 3319 
L 1650 2881 
L 1084 2881 
L 1084 941 
Q 1084 700 1114 631 
Q 1144 563 1211 522 
Q 1278 481 1403 481 
Q 1497 481 1650 503 
z
" transform="scale(0.015625)"/>
       <path id="ArialMT-63" d="M 2588 1216 
L 3141 1144 
Q 3050 572 2676 248 
Q 2303 -75 1759 -75 
Q 1078 -75 664 370 
Q 250 816 250 1647 
Q 250 2184 428 2587 
Q 606 2991 970 3192 
Q 1334 3394 1763 3394 
Q 2303 3394 2647 3120 
Q 2991 2847 3088 2344 
L 2541 2259 
Q 2463 2594 2264 2762 
Q 2066 2931 1784 2931 
Q 1359 2931 1093 2626 
Q 828 2322 828 1663 
Q 828 994 1084 691 
Q 1341 388 1753 388 
Q 2084 388 2306 591 
Q 2528 794 2588 1216 
z
" transform="scale(0.015625)"/>
       <path id="ArialMT-68" d="M 422 0 
L 422 4581 
L 984 4581 
L 984 2938 
Q 1378 3394 1978 3394 
Q 2347 3394 2619 3248 
Q 2891 3103 3008 2847 
Q 3125 2591 3125 2103 
L 3125 0 
L 2563 0 
L 2563 2103 
Q 2563 2525 2380 2717 
Q 2197 2909 1863 2909 
Q 1613 2909 1392 2779 
Q 1172 2650 1078 2428 
Q 984 2206 984 1816 
L 984 0 
L 422 0 
z
" transform="scale(0.015625)"/>
       <path id="ArialMT-6e" d="M 422 0 
L 422 3319 
L 928 3319 
L 928 2847 
Q 1294 3394 1984 3394 
Q 2284 3394 2536 3286 
Q 2788 3178 2913 3003 
Q 3038 2828 3088 2588 
Q 3119 2431 3119 2041 
L 3119 0 
L 2556 0 
L 2556 2019 
Q 2556 2363 2490 2533 
Q 2425 2703 2258 2804 
Q 2091 2906 1866 2906 
Q 1506 2906 1245 2678 
Q 984 2450 984 1813 
L 984 0 
L 422 0 
z
" transform="scale(0.015625)"/>
       <path id="ArialMT-67" d="M 319 -275 
L 866 -356 
Q 900 -609 1056 -725 
Q 1266 -881 1628 -881 
Q 2019 -881 2231 -725 
Q 2444 -569 2519 -288 
Q 2563 -116 2559 434 
Q 2191 0 1641 0 
Q 956 0 581 494 
Q 206 988 206 1678 
Q 206 2153 378 2554 
Q 550 2956 876 3175 
Q 1203 3394 1644 3394 
Q 2231 3394 2613 2919 
L 2613 3319 
L 3131 3319 
L 3131 450 
Q 3131 -325 2973 -648 
Q 2816 -972 2473 -1159 
Q 2131 -1347 1631 -1347 
Q 1038 -1347 672 -1080 
Q 306 -813 319 -275 
z
M 784 1719 
Q 784 1066 1043 766 
Q 1303 466 1694 466 
Q 2081 466 2343 764 
Q 2606 1063 2606 1700 
Q 2606 2309 2336 2618 
Q 2066 2928 1684 2928 
Q 1309 2928 1046 2623 
Q 784 2319 784 1719 
z
" transform="scale(0.015625)"/>
       <path id="ArialMT-75" d="M 2597 0 
L 2597 488 
Q 2209 -75 1544 -75 
Q 1250 -75 995 37 
Q 741 150 617 320 
Q 494 491 444 738 
Q 409 903 409 1263 
L 409 3319 
L 972 3319 
L 972 1478 
Q 972 1038 1006 884 
Q 1059 663 1231 536 
Q 1403 409 1656 409 
Q 1909 409 2131 539 
Q 2353 669 2445 892 
Q 2538 1116 2538 1541 
L 2538 3319 
L 3100 3319 
L 3100 0 
L 2597 0 
z
" transform="scale(0.015625)"/>
       <path id="ArialMT-79" d="M 397 -1278 
L 334 -750 
Q 519 -800 656 -800 
Q 844 -800 956 -737 
Q 1069 -675 1141 -563 
Q 1194 -478 1313 -144 
Q 1328 -97 1363 -6 
L 103 3319 
L 709 3319 
L 1400 1397 
Q 1534 1031 1641 628 
Q 1738 1016 1872 1384 
L 2581 3319 
L 3144 3319 
L 1881 -56 
Q 1678 -603 1566 -809 
Q 1416 -1088 1222 -1217 
Q 1028 -1347 759 -1347 
Q 597 -1347 397 -1278 
z
" transform="scale(0.015625)"/>
      </defs>
      <use xlink:href="#ArialMT-4d"/>
      <use xlink:href="#ArialMT-61" x="83.300781"/>
      <use xlink:href="#ArialMT-74" x="138.916016"/>
      <use xlink:href="#ArialMT-63" x="166.699219"/>
      <use xlink:href="#ArialMT-68" x="216.699219"/>
      <use xlink:href="#ArialMT-69" x="272.314453"/>
      <use xlink:href="#ArialMT-6e" x="294.53125"/>
      <use xlink:href="#ArialMT-67" x="350.146484"/>
      <use xlink:href="#ArialMT-20" x="405.761719"/>
      <use xlink:href="#ArialMT-61" x="433.544922"/>
      <use xlink:href="#ArialMT-63" x="489.160156"/>
      <use xlink:href="#ArialMT-63" x="539.160156"/>
      <use xlink:href="#ArialMT-75" x="589.160156"/>
      <use xlink:href="#ArialMT-72" x="644.775391"/>
      <use xlink:href="#ArialMT-61" x="678.076172"/>
      <use xlink:href="#ArialMT-63" x="733.691406"/>
      <use xlink:href="#ArialMT-79" x="783.691406"/>
     </g>
    </g>
   </g>
   <g id="PolyCollection_1">
    <defs>
     <path id="m974c097b0a" d="M 80.572862 -272.337189 
L 80.572862 -262.027727 
L 83.021878 -271.218602 
L 87.430107 -275.022465 
L 93.797548 -270.1671 
L 105.063021 -268.230925 
L 122.206132 -243.342148 
L 150.124913 -222.388568 
L 194.697002 -146.345886 
L 265.718463 -97.875605 
L 379.842603 -68.859441 
L 379.842603 -118.015207 
L 379.842603 -118.015207 
L 265.718463 -178.516599 
L 194.697002 -219.572782 
L 150.124913 -273.741286 
L 122.206132 -282.45297 
L 105.063021 -294.564181 
L 93.797548 -290.404808 
L 87.430107 -291.333558 
L 83.021878 -283.452741 
L 80.572862 -272.337189 
z
" style="stroke: #0173b2; stroke-opacity: 0.2; stroke-width: 1.5"/>
    </defs>
    <g clip-path="url(#p6681db3500)">
     <use xlink:href="#m974c097b0a" x="0" y="361.19952" style="fill: #0173b2; fill-opacity: 0.2; stroke: #0173b2; stroke-opacity: 0.2; stroke-width: 1.5"/>
    </g>
   </g>
   <g id="PolyCollection_2">
    <defs>
     <path id="mc0744eaf3a" d="M 80.572862 -248.493513 
L 80.572862 -237.877664 
L 83.021878 -252.265657 
L 87.430107 -255.274383 
L 93.797548 -259.550145 
L 105.063021 -254.347601 
L 122.206132 -212.930981 
L 150.124913 -184.598802 
L 194.697002 -102.551082 
L 265.718463 -79.705497 
L 379.842603 -68.394262 
L 379.842603 -117.292243 
L 379.842603 -117.292243 
L 265.718463 -151.250506 
L 194.697002 -168.801712 
L 150.124913 -243.387027 
L 122.206132 -258.865164 
L 105.063021 -282.713316 
L 93.797548 -282.663988 
L 87.430107 -273.947643 
L 83.021878 -265.605171 
L 80.572862 -248.493513 
z
" style="stroke: #de8f05; stroke-opacity: 0.2; stroke-width: 1.5"/>
    </defs>
    <g clip-path="url(#p6681db3500)">
     <use xlink:href="#mc0744eaf3a" x="0" y="361.19952" style="fill: #de8f05; fill-opacity: 0.2; stroke: #de8f05; stroke-opacity: 0.2; stroke-width: 1.5"/>
    </g>
   </g>
   <g id="line2d_11">
    <path d="M 80.572862 94.092697 
L 83.021878 83.850705 
L 87.430107 77.853287 
L 93.797548 80.849295 
L 105.063021 79.490863 
L 122.206132 97.607275 
L 150.124913 112.926872 
L 194.697002 178.110673 
L 265.718463 225.821775 
L 379.842603 275.490292 
" clip-path="url(#p6681db3500)" style="fill: none; stroke-dasharray: 6.75,2.25; stroke-dashoffset: 0; stroke: #0173b2; stroke-width: 2.25"/>
   </g>
   <g id="line2d_12">
    <path d="M 80.572862 117.937015 
L 83.021878 102.418948 
L 87.430107 96.524621 
L 93.797548 90.258595 
L 105.063021 93.066297 
L 122.206132 124.725759 
L 150.124913 147.088276 
L 194.697002 228.08141 
L 265.718463 250.703079 
L 379.842603 276.162216 
" clip-path="url(#p6681db3500)" style="fill: none; stroke: #de8f05; stroke-width: 2.25; stroke-linecap: round"/>
   </g>
   <g id="line2d_13"/>
   <g id="line2d_14"/>
   <g id="patch_3">
    <path d="M 65.609375 305.66036 
L 65.609375 25.705078 
" style="fill: none; stroke: #000000; stroke-width: 1.875; stroke-linejoin: miter; stroke-linecap: square"/>
   </g>
   <g id="patch_4">
    <path d="M 65.609375 305.66036 
L 394.80609 305.66036 
" style="fill: none; stroke: #000000; stroke-width: 1.875; stroke-linejoin: miter; stroke-linecap: square"/>
   </g>
   <g id="text_13">
    <!-- Contralateral correlation = 0.2 -->
    <g transform="translate(81.698943 19.705078)scale(0.225 -0.225)">
     <defs>
      <path id="ArialMT-43" d="M 3763 1606 
L 4369 1453 
Q 4178 706 3683 314 
Q 3188 -78 2472 -78 
Q 1731 -78 1267 223 
Q 803 525 561 1097 
Q 319 1669 319 2325 
Q 319 3041 592 3573 
Q 866 4106 1370 4382 
Q 1875 4659 2481 4659 
Q 3169 4659 3637 4309 
Q 4106 3959 4291 3325 
L 3694 3184 
Q 3534 3684 3231 3912 
Q 2928 4141 2469 4141 
Q 1941 4141 1586 3887 
Q 1231 3634 1087 3207 
Q 944 2781 944 2328 
Q 944 1744 1114 1308 
Q 1284 872 1643 656 
Q 2003 441 2422 441 
Q 2931 441 3284 734 
Q 3638 1028 3763 1606 
z
" transform="scale(0.015625)"/>
      <path id="ArialMT-6c" d="M 409 0 
L 409 4581 
L 972 4581 
L 972 0 
L 409 0 
z
" transform="scale(0.015625)"/>
      <path id="ArialMT-3d" d="M 3381 2694 
L 356 2694 
L 356 3219 
L 3381 3219 
L 3381 2694 
z
M 3381 1303 
L 356 1303 
L 356 1828 
L 3381 1828 
L 3381 1303 
z
" transform="scale(0.015625)"/>
     </defs>
     <use xlink:href="#ArialMT-43"/>
     <use xlink:href="#ArialMT-6f" x="72.216797"/>
     <use xlink:href="#ArialMT-6e" x="127.832031"/>
     <use xlink:href="#ArialMT-74" x="183.447266"/>
     <use xlink:href="#ArialMT-72" x="211.230469"/>
     <use xlink:href="#ArialMT-61" x="244.53125"/>
     <use xlink:href="#ArialMT-6c" x="300.146484"/>
     <use xlink:href="#ArialMT-61" x="322.363281"/>
     <use xlink:href="#ArialMT-74" x="377.978516"/>
     <use xlink:href="#ArialMT-65" x="405.761719"/>
     <use xlink:href="#ArialMT-72" x="461.376953"/>
     <use xlink:href="#ArialMT-61" x="494.677734"/>
     <use xlink:href="#ArialMT-6c" x="550.292969"/>
     <use xlink:href="#ArialMT-20" x="572.509766"/>
     <use xlink:href="#ArialMT-63" x="600.292969"/>
     <use xlink:href="#ArialMT-6f" x="650.292969"/>
     <use xlink:href="#ArialMT-72" x="705.908203"/>
     <use xlink:href="#ArialMT-72" x="739.208984"/>
     <use xlink:href="#ArialMT-65" x="772.509766"/>
     <use xlink:href="#ArialMT-6c" x="828.125"/>
     <use xlink:href="#ArialMT-61" x="850.341797"/>
     <use xlink:href="#ArialMT-74" x="905.957031"/>
     <use xlink:href="#ArialMT-69" x="933.740234"/>
     <use xlink:href="#ArialMT-6f" x="955.957031"/>
     <use xlink:href="#ArialMT-6e" x="1011.572266"/>
     <use xlink:href="#ArialMT-20" x="1067.1875"/>
     <use xlink:href="#ArialMT-3d" x="1094.970703"/>
     <use xlink:href="#ArialMT-20" x="1153.369141"/>
     <use xlink:href="#ArialMT-30" x="1181.152344"/>
     <use xlink:href="#ArialMT-2e" x="1236.767578"/>
     <use xlink:href="#ArialMT-32" x="1264.550781"/>
    </g>
   </g>
   <g id="legend_1">
    <g id="patch_5">
     <path d="M 267.388707 131.443945 
L 380.36859 131.443945 
Q 384.49359 131.443945 384.49359 127.318945 
L 384.49359 40.142578 
Q 384.49359 36.017578 380.36859 36.017578 
L 267.388707 36.017578 
Q 263.263707 36.017578 263.263707 40.142578 
L 263.263707 127.318945 
Q 263.263707 131.443945 267.388707 131.443945 
z
" style="fill: #ffffff; opacity: 0.8; stroke: #cccccc; stroke-width: 1.5; stroke-linejoin: miter"/>
    </g>
    <g id="text_14">
     <!-- Method -->
     <g transform="translate(286.358141 60.372656)scale(0.225 -0.225)">
      <use xlink:href="#ArialMT-4d"/>
      <use xlink:href="#ArialMT-65" x="83.300781"/>
      <use xlink:href="#ArialMT-74" x="138.916016"/>
      <use xlink:href="#ArialMT-68" x="166.699219"/>
      <use xlink:href="#ArialMT-6f" x="222.314453"/>
      <use xlink:href="#ArialMT-64" x="277.929688"/>
     </g>
    </g>
    <g id="line2d_15">
     <path d="M 271.513707 82.70127 
L 292.138707 82.70127 
L 312.763707 82.70127 
" style="fill: none; stroke-dasharray: 6.75,2.25; stroke-dashoffset: 0; stroke: #0173b2; stroke-width: 2.25"/>
    </g>
    <g id="text_15">
     <!-- GM -->
     <g transform="translate(329.263707 89.92002)scale(0.20625 -0.20625)">
      <defs>
       <path id="ArialMT-47" d="M 2638 1797 
L 2638 2334 
L 4578 2338 
L 4578 638 
Q 4131 281 3656 101 
Q 3181 -78 2681 -78 
Q 2006 -78 1454 211 
Q 903 500 622 1047 
Q 341 1594 341 2269 
Q 341 2938 620 3517 
Q 900 4097 1425 4378 
Q 1950 4659 2634 4659 
Q 3131 4659 3532 4498 
Q 3934 4338 4162 4050 
Q 4391 3763 4509 3300 
L 3963 3150 
Q 3859 3500 3706 3700 
Q 3553 3900 3268 4020 
Q 2984 4141 2638 4141 
Q 2222 4141 1919 4014 
Q 1616 3888 1430 3681 
Q 1244 3475 1141 3228 
Q 966 2803 966 2306 
Q 966 1694 1177 1281 
Q 1388 869 1791 669 
Q 2194 469 2647 469 
Q 3041 469 3416 620 
Q 3791 772 3984 944 
L 3984 1797 
L 2638 1797 
z
" transform="scale(0.015625)"/>
      </defs>
      <use xlink:href="#ArialMT-47"/>
      <use xlink:href="#ArialMT-4d" x="77.783203"/>
     </g>
    </g>
    <g id="line2d_16">
     <path d="M 271.513707 111.875977 
L 292.138707 111.875977 
L 312.763707 111.875977 
" style="fill: none; stroke: #de8f05; stroke-width: 2.25; stroke-linecap: round"/>
    </g>
    <g id="text_16">
     <!-- BGM -->
     <g transform="translate(329.263707 119.094727)scale(0.20625 -0.20625)">
      <defs>
       <path id="ArialMT-42" d="M 469 0 
L 469 4581 
L 2188 4581 
Q 2713 4581 3030 4442 
Q 3347 4303 3526 4014 
Q 3706 3725 3706 3409 
Q 3706 3116 3547 2856 
Q 3388 2597 3066 2438 
Q 3481 2316 3704 2022 
Q 3928 1728 3928 1328 
Q 3928 1006 3792 729 
Q 3656 453 3456 303 
Q 3256 153 2954 76 
Q 2653 0 2216 0 
L 469 0 
z
M 1075 2656 
L 2066 2656 
Q 2469 2656 2644 2709 
Q 2875 2778 2992 2937 
Q 3109 3097 3109 3338 
Q 3109 3566 3000 3739 
Q 2891 3913 2687 3977 
Q 2484 4041 1991 4041 
L 1075 4041 
L 1075 2656 
z
M 1075 541 
L 2216 541 
Q 2509 541 2628 563 
Q 2838 600 2978 687 
Q 3119 775 3209 942 
Q 3300 1109 3300 1328 
Q 3300 1584 3169 1773 
Q 3038 1963 2805 2039 
Q 2572 2116 2134 2116 
L 1075 2116 
L 1075 541 
z
" transform="scale(0.015625)"/>
      </defs>
      <use xlink:href="#ArialMT-42"/>
      <use xlink:href="#ArialMT-47" x="66.699219"/>
      <use xlink:href="#ArialMT-4d" x="144.482422"/>
     </g>
    </g>
   </g>
  </g>
  <g id="axes_2">
   <g id="patch_6">
    <path d="M 407.00609 305.66036 
L 736.202805 305.66036 
L 736.202805 25.705078 
L 407.00609 25.705078 
z
" style="fill: #ffffff"/>
   </g>
   <g id="matplotlib.axis_3">
    <g id="xtick_5">
     <g id="line2d_17">
      <g>
       <use xlink:href="#m4a7f3d3c7b" x="417.561348" y="305.66036" style="stroke: #000000; stroke-width: 1.875"/>
      </g>
     </g>
     <g id="text_17">
      <!-- 0 -->
      <g transform="translate(411.826632 328.923348)scale(0.20625 -0.20625)">
       <use xlink:href="#ArialMT-30"/>
      </g>
     </g>
    </g>
    <g id="xtick_6">
     <g id="line2d_18">
      <g>
       <use xlink:href="#m4a7f3d3c7b" x="515.521984" y="305.66036" style="stroke: #000000; stroke-width: 1.875"/>
      </g>
     </g>
     <g id="text_18">
      <!-- 200 -->
      <g transform="translate(498.317833 328.923348)scale(0.20625 -0.20625)">
       <use xlink:href="#ArialMT-32"/>
       <use xlink:href="#ArialMT-30" x="55.615234"/>
       <use xlink:href="#ArialMT-30" x="111.230469"/>
      </g>
     </g>
    </g>
    <g id="xtick_7">
     <g id="line2d_19">
      <g>
       <use xlink:href="#m4a7f3d3c7b" x="613.482619" y="305.66036" style="stroke: #000000; stroke-width: 1.875"/>
      </g>
     </g>
     <g id="text_19">
      <!-- 400 -->
      <g transform="translate(596.278469 328.923348)scale(0.20625 -0.20625)">
       <use xlink:href="#ArialMT-34"/>
       <use xlink:href="#ArialMT-30" x="55.615234"/>
       <use xlink:href="#ArialMT-30" x="111.230469"/>
      </g>
     </g>
    </g>
    <g id="xtick_8">
     <g id="line2d_20">
      <g>
       <use xlink:href="#m4a7f3d3c7b" x="711.443254" y="305.66036" style="stroke: #000000; stroke-width: 1.875"/>
      </g>
     </g>
     <g id="text_20">
      <!-- 600 -->
      <g transform="translate(694.239104 328.923348)scale(0.20625 -0.20625)">
       <use xlink:href="#ArialMT-36"/>
       <use xlink:href="#ArialMT-30" x="55.615234"/>
       <use xlink:href="#ArialMT-30" x="111.230469"/>
      </g>
     </g>
    </g>
    <g id="text_21">
     <!-- Nodes per side -->
     <g transform="translate(495.941166 353.127645)scale(0.225 -0.225)">
      <use xlink:href="#ArialMT-4e"/>
      <use xlink:href="#ArialMT-6f" x="72.216797"/>
      <use xlink:href="#ArialMT-64" x="127.832031"/>
      <use xlink:href="#ArialMT-65" x="183.447266"/>
      <use xlink:href="#ArialMT-73" x="239.0625"/>
      <use xlink:href="#ArialMT-20" x="289.0625"/>
      <use xlink:href="#ArialMT-70" x="316.845703"/>
      <use xlink:href="#ArialMT-65" x="372.460938"/>
      <use xlink:href="#ArialMT-72" x="428.076172"/>
      <use xlink:href="#ArialMT-20" x="461.376953"/>
      <use xlink:href="#ArialMT-73" x="489.160156"/>
      <use xlink:href="#ArialMT-69" x="539.160156"/>
      <use xlink:href="#ArialMT-64" x="561.376953"/>
      <use xlink:href="#ArialMT-65" x="616.992188"/>
     </g>
    </g>
   </g>
   <g id="matplotlib.axis_4">
    <g id="ytick_7">
     <g id="line2d_21">
      <g>
       <use xlink:href="#m3ae676a4d1" x="407.00609" y="294.795186" style="stroke: #000000; stroke-width: 1.875"/>
      </g>
     </g>
    </g>
    <g id="ytick_8">
     <g id="line2d_22">
      <g>
       <use xlink:href="#m3ae676a4d1" x="407.00609" y="243.522213" style="stroke: #000000; stroke-width: 1.875"/>
      </g>
     </g>
    </g>
    <g id="ytick_9">
     <g id="line2d_23">
      <g>
       <use xlink:href="#m3ae676a4d1" x="407.00609" y="192.249239" style="stroke: #000000; stroke-width: 1.875"/>
      </g>
     </g>
    </g>
    <g id="ytick_10">
     <g id="line2d_24">
      <g>
       <use xlink:href="#m3ae676a4d1" x="407.00609" y="140.976265" style="stroke: #000000; stroke-width: 1.875"/>
      </g>
     </g>
    </g>
    <g id="ytick_11">
     <g id="line2d_25">
      <g>
       <use xlink:href="#m3ae676a4d1" x="407.00609" y="89.703292" style="stroke: #000000; stroke-width: 1.875"/>
      </g>
     </g>
    </g>
    <g id="ytick_12">
     <g id="line2d_26">
      <g>
       <use xlink:href="#m3ae676a4d1" x="407.00609" y="38.430318" style="stroke: #000000; stroke-width: 1.875"/>
      </g>
     </g>
    </g>
   </g>
   <g id="PolyCollection_3">
    <defs>
     <path id="m3c98ef9cfd" d="M 421.969577 -269.645089 
L 421.969577 -259.901608 
L 424.418593 -273.117102 
L 428.826822 -282.289389 
L 435.194263 -277.879641 
L 446.459736 -267.642785 
L 463.602847 -229.238092 
L 491.521628 -222.238083 
L 536.093717 -176.237895 
L 607.115178 -89.294338 
L 721.239318 -68.2644 
L 721.239318 -70.539897 
L 721.239318 -70.539897 
L 607.115178 -161.346115 
L 536.093717 -250.871026 
L 491.521628 -278.140081 
L 463.602847 -272.599364 
L 446.459736 -293.975398 
L 435.194263 -296.95854 
L 428.826822 -296.291606 
L 424.418593 -284.711355 
L 421.969577 -269.645089 
z
" style="stroke: #0173b2; stroke-opacity: 0.2; stroke-width: 1.5"/>
    </defs>
    <g clip-path="url(#pee6b937b69)">
     <use xlink:href="#m3c98ef9cfd" x="0" y="361.19952" style="fill: #0173b2; fill-opacity: 0.2; stroke: #0173b2; stroke-opacity: 0.2; stroke-width: 1.5"/>
    </g>
   </g>
   <g id="PolyCollection_4">
    <defs>
     <path id="mdd7ae764ac" d="M 421.969577 -288.079566 
L 421.969577 -279.336009 
L 424.418593 -291.889879 
L 428.826822 -300.782229 
L 435.194263 -299.013932 
L 446.459736 -306.674085 
L 463.602847 -290.813002 
L 491.521628 -292.671539 
L 536.093717 -255.094897 
L 607.115178 -204.002049 
L 721.239318 -181.791783 
L 721.239318 -291.989912 
L 721.239318 -291.989912 
L 607.115178 -293.25147 
L 536.093717 -304.682585 
L 491.521628 -319.193573 
L 463.602847 -315.97736 
L 446.459736 -319.940986 
L 435.194263 -312.97556 
L 428.826822 -312.394027 
L 424.418593 -301.688218 
L 421.969577 -288.079566 
z
" style="stroke: #de8f05; stroke-opacity: 0.2; stroke-width: 1.5"/>
    </defs>
    <g clip-path="url(#pee6b937b69)">
     <use xlink:href="#mdd7ae764ac" x="0" y="361.19952" style="fill: #de8f05; fill-opacity: 0.2; stroke: #de8f05; stroke-opacity: 0.2; stroke-width: 1.5"/>
    </g>
   </g>
   <g id="line2d_27">
    <path d="M 421.969577 96.425851 
L 424.418593 82.363193 
L 428.826822 71.689435 
L 435.194263 73.239587 
L 446.459736 80.519305 
L 463.602847 110.729122 
L 491.521628 109.299796 
L 536.093717 147.776833 
L 607.115178 240.395489 
L 721.239318 291.952431 
" clip-path="url(#pee6b937b69)" style="fill: none; stroke-dasharray: 6.75,2.25; stroke-dashoffset: 0; stroke: #0173b2; stroke-width: 2.25"/>
   </g>
   <g id="line2d_28">
    <path d="M 421.969577 77.350397 
L 424.418593 64.128357 
L 428.826822 54.276554 
L 435.194263 54.935156 
L 446.459736 47.197786 
L 463.602847 56.517884 
L 491.521628 53.478828 
L 536.093717 80.830515 
L 607.115178 107.933682 
L 721.239318 116.890373 
" clip-path="url(#pee6b937b69)" style="fill: none; stroke: #de8f05; stroke-width: 2.25; stroke-linecap: round"/>
   </g>
   <g id="line2d_29"/>
   <g id="line2d_30"/>
   <g id="patch_7">
    <path d="M 407.00609 305.66036 
L 407.00609 25.705078 
" style="fill: none; stroke: #000000; stroke-width: 1.875; stroke-linejoin: miter; stroke-linecap: square"/>
   </g>
   <g id="patch_8">
    <path d="M 407.00609 305.66036 
L 736.202805 305.66036 
" style="fill: none; stroke: #000000; stroke-width: 1.875; stroke-linejoin: miter; stroke-linecap: square"/>
   </g>
   <g id="text_22">
    <!-- Contralateral correlation = 0.4 -->
    <g transform="translate(423.095658 19.705078)scale(0.225 -0.225)">
     <use xlink:href="#ArialMT-43"/>
     <use xlink:href="#ArialMT-6f" x="72.216797"/>
     <use xlink:href="#ArialMT-6e" x="127.832031"/>
     <use xlink:href="#ArialMT-74" x="183.447266"/>
     <use xlink:href="#ArialMT-72" x="211.230469"/>
     <use xlink:href="#ArialMT-61" x="244.53125"/>
     <use xlink:href="#ArialMT-6c" x="300.146484"/>
     <use xlink:href="#ArialMT-61" x="322.363281"/>
     <use xlink:href="#ArialMT-74" x="377.978516"/>
     <use xlink:href="#ArialMT-65" x="405.761719"/>
     <use xlink:href="#ArialMT-72" x="461.376953"/>
     <use xlink:href="#ArialMT-61" x="494.677734"/>
     <use xlink:href="#ArialMT-6c" x="550.292969"/>
     <use xlink:href="#ArialMT-20" x="572.509766"/>
     <use xlink:href="#ArialMT-63" x="600.292969"/>
     <use xlink:href="#ArialMT-6f" x="650.292969"/>
     <use xlink:href="#ArialMT-72" x="705.908203"/>
     <use xlink:href="#ArialMT-72" x="739.208984"/>
     <use xlink:href="#ArialMT-65" x="772.509766"/>
     <use xlink:href="#ArialMT-6c" x="828.125"/>
     <use xlink:href="#ArialMT-61" x="850.341797"/>
     <use xlink:href="#ArialMT-74" x="905.957031"/>
     <use xlink:href="#ArialMT-69" x="933.740234"/>
     <use xlink:href="#ArialMT-6f" x="955.957031"/>
     <use xlink:href="#ArialMT-6e" x="1011.572266"/>
     <use xlink:href="#ArialMT-20" x="1067.1875"/>
     <use xlink:href="#ArialMT-3d" x="1094.970703"/>
     <use xlink:href="#ArialMT-20" x="1153.369141"/>
     <use xlink:href="#ArialMT-30" x="1181.152344"/>
     <use xlink:href="#ArialMT-2e" x="1236.767578"/>
     <use xlink:href="#ArialMT-34" x="1264.550781"/>
    </g>
   </g>
  </g>
  <g id="axes_3">
   <g id="patch_9">
    <path d="M 748.402805 305.66036 
L 1077.59952 305.66036 
L 1077.59952 25.705078 
L 748.402805 25.705078 
z
" style="fill: #ffffff"/>
   </g>
   <g id="matplotlib.axis_5">
    <g id="xtick_9">
     <g id="line2d_31">
      <g>
       <use xlink:href="#m4a7f3d3c7b" x="758.958063" y="305.66036" style="stroke: #000000; stroke-width: 1.875"/>
      </g>
     </g>
     <g id="text_23">
      <!-- 0 -->
      <g transform="translate(753.223347 328.923348)scale(0.20625 -0.20625)">
       <use xlink:href="#ArialMT-30"/>
      </g>
     </g>
    </g>
    <g id="xtick_10">
     <g id="line2d_32">
      <g>
       <use xlink:href="#m4a7f3d3c7b" x="856.918699" y="305.66036" style="stroke: #000000; stroke-width: 1.875"/>
      </g>
     </g>
     <g id="text_24">
      <!-- 200 -->
      <g transform="translate(839.714548 328.923348)scale(0.20625 -0.20625)">
       <use xlink:href="#ArialMT-32"/>
       <use xlink:href="#ArialMT-30" x="55.615234"/>
       <use xlink:href="#ArialMT-30" x="111.230469"/>
      </g>
     </g>
    </g>
    <g id="xtick_11">
     <g id="line2d_33">
      <g>
       <use xlink:href="#m4a7f3d3c7b" x="954.879334" y="305.66036" style="stroke: #000000; stroke-width: 1.875"/>
      </g>
     </g>
     <g id="text_25">
      <!-- 400 -->
      <g transform="translate(937.675184 328.923348)scale(0.20625 -0.20625)">
       <use xlink:href="#ArialMT-34"/>
       <use xlink:href="#ArialMT-30" x="55.615234"/>
       <use xlink:href="#ArialMT-30" x="111.230469"/>
      </g>
     </g>
    </g>
    <g id="xtick_12">
     <g id="line2d_34">
      <g>
       <use xlink:href="#m4a7f3d3c7b" x="1052.839969" y="305.66036" style="stroke: #000000; stroke-width: 1.875"/>
      </g>
     </g>
     <g id="text_26">
      <!-- 600 -->
      <g transform="translate(1035.635819 328.923348)scale(0.20625 -0.20625)">
       <use xlink:href="#ArialMT-36"/>
       <use xlink:href="#ArialMT-30" x="55.615234"/>
       <use xlink:href="#ArialMT-30" x="111.230469"/>
      </g>
     </g>
    </g>
    <g id="text_27">
     <!-- Nodes per side -->
     <g transform="translate(837.337881 353.127645)scale(0.225 -0.225)">
      <use xlink:href="#ArialMT-4e"/>
      <use xlink:href="#ArialMT-6f" x="72.216797"/>
      <use xlink:href="#ArialMT-64" x="127.832031"/>
      <use xlink:href="#ArialMT-65" x="183.447266"/>
      <use xlink:href="#ArialMT-73" x="239.0625"/>
      <use xlink:href="#ArialMT-20" x="289.0625"/>
      <use xlink:href="#ArialMT-70" x="316.845703"/>
      <use xlink:href="#ArialMT-65" x="372.460938"/>
      <use xlink:href="#ArialMT-72" x="428.076172"/>
      <use xlink:href="#ArialMT-20" x="461.376953"/>
      <use xlink:href="#ArialMT-73" x="489.160156"/>
      <use xlink:href="#ArialMT-69" x="539.160156"/>
      <use xlink:href="#ArialMT-64" x="561.376953"/>
      <use xlink:href="#ArialMT-65" x="616.992188"/>
     </g>
    </g>
   </g>
   <g id="matplotlib.axis_6">
    <g id="ytick_13">
     <g id="line2d_35">
      <g>
       <use xlink:href="#m3ae676a4d1" x="748.402805" y="294.795186" style="stroke: #000000; stroke-width: 1.875"/>
      </g>
     </g>
    </g>
    <g id="ytick_14">
     <g id="line2d_36">
      <g>
       <use xlink:href="#m3ae676a4d1" x="748.402805" y="243.522213" style="stroke: #000000; stroke-width: 1.875"/>
      </g>
     </g>
    </g>
    <g id="ytick_15">
     <g id="line2d_37">
      <g>
       <use xlink:href="#m3ae676a4d1" x="748.402805" y="192.249239" style="stroke: #000000; stroke-width: 1.875"/>
      </g>
     </g>
    </g>
    <g id="ytick_16">
     <g id="line2d_38">
      <g>
       <use xlink:href="#m3ae676a4d1" x="748.402805" y="140.976265" style="stroke: #000000; stroke-width: 1.875"/>
      </g>
     </g>
    </g>
    <g id="ytick_17">
     <g id="line2d_39">
      <g>
       <use xlink:href="#m3ae676a4d1" x="748.402805" y="89.703292" style="stroke: #000000; stroke-width: 1.875"/>
      </g>
     </g>
    </g>
    <g id="ytick_18">
     <g id="line2d_40">
      <g>
       <use xlink:href="#m3ae676a4d1" x="748.402805" y="38.430318" style="stroke: #000000; stroke-width: 1.875"/>
      </g>
     </g>
    </g>
   </g>
   <g id="PolyCollection_5">
    <defs>
     <path id="m55b12ae7d8" d="M 763.366292 -267.416414 
L 763.366292 -257.3095 
L 765.815308 -272.8087 
L 770.223537 -286.476314 
L 776.590978 -280.989081 
L 787.856451 -267.592648 
L 804.999562 -254.123289 
L 832.918343 -217.760186 
L 877.490432 -157.972351 
L 948.511893 -100.85063 
L 1062.636033 -68.703735 
L 1062.636033 -148.353224 
L 1062.636033 -148.353224 
L 948.511893 -182.411755 
L 877.490432 -231.536433 
L 832.918343 -270.086556 
L 804.999562 -290.556354 
L 787.856451 -294.847003 
L 776.590978 -299.583375 
L 770.223537 -301.119315 
L 765.815308 -284.940893 
L 763.366292 -267.416414 
z
" style="stroke: #0173b2; stroke-opacity: 0.2; stroke-width: 1.5"/>
    </defs>
    <g clip-path="url(#pb75d6ad54f)">
     <use xlink:href="#m55b12ae7d8" x="0" y="361.19952" style="fill: #0173b2; fill-opacity: 0.2; stroke: #0173b2; stroke-opacity: 0.2; stroke-width: 1.5"/>
    </g>
   </g>
   <g id="PolyCollection_6">
    <defs>
     <path id="m67f7c6f248" d="M 763.366292 -310.079154 
L 763.366292 -304.334724 
L 765.815308 -315.04889 
L 770.223537 -320.329344 
L 776.590978 -322.769202 
L 787.856451 -322.769202 
L 804.999562 -322.769202 
L 832.918343 -322.769202 
L 877.490432 -322.769202 
L 948.511893 -322.769202 
L 1062.636033 -322.769202 
L 1062.636033 -322.769202 
L 1062.636033 -322.769202 
L 948.511893 -322.769202 
L 877.490432 -322.769202 
L 832.918343 -322.769202 
L 804.999562 -322.769202 
L 787.856451 -322.769202 
L 776.590978 -322.769202 
L 770.223537 -322.769202 
L 765.815308 -319.819826 
L 763.366292 -310.079154 
z
" style="stroke: #de8f05; stroke-opacity: 0.2; stroke-width: 1.5"/>
    </defs>
    <g clip-path="url(#pb75d6ad54f)">
     <use xlink:href="#m67f7c6f248" x="0" y="361.19952" style="fill: #de8f05; fill-opacity: 0.2; stroke: #de8f05; stroke-opacity: 0.2; stroke-width: 1.5"/>
    </g>
   </g>
   <g id="line2d_41">
    <path d="M 763.366292 98.938478 
L 765.815308 82.23496 
L 770.223537 67.297691 
L 776.590978 71.054367 
L 787.856451 79.388019 
L 804.999562 88.730731 
L 832.918343 116.811189 
L 877.490432 166.199344 
L 948.511893 219.912797 
L 1062.636033 260.372001 
" clip-path="url(#pb75d6ad54f)" style="fill: none; stroke-dasharray: 6.75,2.25; stroke-dashoffset: 0; stroke: #0173b2; stroke-width: 2.25"/>
   </g>
   <g id="line2d_42">
    <path d="M 763.366292 53.967583 
L 765.815308 43.585314 
L 770.223537 39.380579 
L 776.590978 38.430318 
L 787.856451 38.430318 
L 804.999562 38.430318 
L 832.918343 38.430318 
L 877.490432 38.430318 
L 948.511893 38.430318 
L 1062.636033 38.430318 
" clip-path="url(#pb75d6ad54f)" style="fill: none; stroke: #de8f05; stroke-width: 2.25; stroke-linecap: round"/>
   </g>
   <g id="line2d_43"/>
   <g id="line2d_44"/>
   <g id="patch_10">
    <path d="M 748.402805 305.66036 
L 748.402805 25.705078 
" style="fill: none; stroke: #000000; stroke-width: 1.875; stroke-linejoin: miter; stroke-linecap: square"/>
   </g>
   <g id="patch_11">
    <path d="M 748.402805 305.66036 
L 1077.59952 305.66036 
" style="fill: none; stroke: #000000; stroke-width: 1.875; stroke-linejoin: miter; stroke-linecap: square"/>
   </g>
   <g id="text_28">
    <!-- Contralateral correlation = 0.6 -->
    <g transform="translate(764.492373 19.705078)scale(0.225 -0.225)">
     <use xlink:href="#ArialMT-43"/>
     <use xlink:href="#ArialMT-6f" x="72.216797"/>
     <use xlink:href="#ArialMT-6e" x="127.832031"/>
     <use xlink:href="#ArialMT-74" x="183.447266"/>
     <use xlink:href="#ArialMT-72" x="211.230469"/>
     <use xlink:href="#ArialMT-61" x="244.53125"/>
     <use xlink:href="#ArialMT-6c" x="300.146484"/>
     <use xlink:href="#ArialMT-61" x="322.363281"/>
     <use xlink:href="#ArialMT-74" x="377.978516"/>
     <use xlink:href="#ArialMT-65" x="405.761719"/>
     <use xlink:href="#ArialMT-72" x="461.376953"/>
     <use xlink:href="#ArialMT-61" x="494.677734"/>
     <use xlink:href="#ArialMT-6c" x="550.292969"/>
     <use xlink:href="#ArialMT-20" x="572.509766"/>
     <use xlink:href="#ArialMT-63" x="600.292969"/>
     <use xlink:href="#ArialMT-6f" x="650.292969"/>
     <use xlink:href="#ArialMT-72" x="705.908203"/>
     <use xlink:href="#ArialMT-72" x="739.208984"/>
     <use xlink:href="#ArialMT-65" x="772.509766"/>
     <use xlink:href="#ArialMT-6c" x="828.125"/>
     <use xlink:href="#ArialMT-61" x="850.341797"/>
     <use xlink:href="#ArialMT-74" x="905.957031"/>
     <use xlink:href="#ArialMT-69" x="933.740234"/>
     <use xlink:href="#ArialMT-6f" x="955.957031"/>
     <use xlink:href="#ArialMT-6e" x="1011.572266"/>
     <use xlink:href="#ArialMT-20" x="1067.1875"/>
     <use xlink:href="#ArialMT-3d" x="1094.970703"/>
     <use xlink:href="#ArialMT-20" x="1153.369141"/>
     <use xlink:href="#ArialMT-30" x="1181.152344"/>
     <use xlink:href="#ArialMT-2e" x="1236.767578"/>
     <use xlink:href="#ArialMT-36" x="1264.550781"/>
    </g>
   </g>
  </g>
 </g>
 <defs>
  <clipPath id="p6681db3500">
   <rect x="65.609375" y="25.705078" width="329.196715" height="279.955282"/>
  </clipPath>
  <clipPath id="pee6b937b69">
   <rect x="407.00609" y="25.705078" width="329.196715" height="279.955282"/>
  </clipPath>
  <clipPath id="pb75d6ad54f">
   <rect x="748.402805" y="25.705078" width="329.196715" height="279.955282"/>
  </clipPath>
 </defs>
</svg>
